<svg width="58" height="22" viewBox="0 0 58 22" fill="none" xmlns="http://www.w3.org/2000/svg">
<path d="M8.3182 5.352H9.2302V15.84H8.3182V5.352ZM7.3582 12.228L7.4422 12.984C6.3502 13.152 4.5502 13.332 2.2462 13.332H1.1782V9.288H5.1502V7.08H1.1302V6.324H6.0742V10.044H2.0902V12.552H2.3422C4.0102 12.552 6.0862 12.456 7.3582 12.228ZM19.313 10.38H12.137V5.76H13.061V7.308H18.401V5.76H19.313V10.38ZM14.369 15.852H13.457V12.372H10.997V11.604H20.465V12.372H17.969V15.852H17.057V12.372H14.369V15.852ZM18.401 9.624V8.052H13.061V9.624H18.401ZM34.0002 14.4H24.5322V13.632H34.0002V14.4ZM29.1762 10.32L28.6722 11.004C28.0482 10.632 27.4242 9.948 27.1602 9.252C26.9202 10.128 26.0802 11.124 25.1562 11.628L24.6402 10.956C26.0922 10.188 26.7282 8.82 26.7282 7.404V6.336H27.6042V7.392C27.6042 8.808 28.1322 9.792 29.1762 10.32ZM33.8682 10.704L33.3522 11.388C32.5482 10.98 31.7322 10.128 31.4322 9.264C31.1562 10.2 30.2802 11.256 29.5002 11.7L28.9482 11.088C30.1722 10.38 31.0002 9.012 31.0002 7.476V6.312H31.8762V7.488C31.8762 9.012 32.6082 10.104 33.8682 10.704ZM43.483 15.84H42.571V5.352H43.483V15.84ZM40.399 6.468C40.351 9.876 38.263 12.48 35.551 13.764L35.023 13.044C37.675 11.88 39.235 9.6 39.427 7.236H35.407V6.468H40.399Z" fill="#A4A4A4"/>
<g clip-path="url(#clip0_103_2067)">
<path d="M50.0834 13.4999H51.85C51.9049 13.5002 51.9592 13.4897 52.01 13.469C52.0608 13.4482 52.1069 13.4177 52.1459 13.3791L55.0292 10.4916L56.2125 9.33323C56.2516 9.29449 56.2826 9.24841 56.3037 9.19763C56.3249 9.14686 56.3358 9.0924 56.3358 9.03739C56.3358 8.98239 56.3249 8.92793 56.3037 8.87715C56.2826 8.82638 56.2516 8.78029 56.2125 8.74156L54.4459 6.95406C54.4071 6.91501 54.3611 6.88401 54.3103 6.86286C54.2595 6.8417 54.205 6.83081 54.15 6.83081C54.095 6.83081 54.0406 6.8417 53.9898 6.86286C53.939 6.88401 53.8929 6.91501 53.8542 6.95406L52.6792 8.13323L49.7875 11.0207C49.7489 11.0597 49.7184 11.1058 49.6976 11.1566C49.6769 11.2074 49.6664 11.2617 49.6667 11.3166V13.0832C49.6667 13.1937 49.7106 13.2997 49.7887 13.3779C49.8669 13.456 49.9729 13.4999 50.0834 13.4999ZM54.15 7.83739L55.3292 9.01656L54.7375 9.60823L53.5584 8.42906L54.15 7.83739ZM50.5 11.4874L52.9709 9.01656L54.15 10.1957L51.6792 12.6666H50.5V11.4874ZM56.75 14.3332H49.25C49.1395 14.3332 49.0336 14.3771 48.9554 14.4553C48.8773 14.5334 48.8334 14.6394 48.8334 14.7499C48.8334 14.8604 48.8773 14.9664 48.9554 15.0445C49.0336 15.1227 49.1395 15.1666 49.25 15.1666H56.75C56.8605 15.1666 56.9665 15.1227 57.0447 15.0445C57.1228 14.9664 57.1667 14.8604 57.1667 14.7499C57.1667 14.6394 57.1228 14.5334 57.0447 14.4553C56.9665 14.3771 56.8605 14.3332 56.75 14.3332Z" fill="#A4A4A4"/>
</g>
<defs>
<clipPath id="clip0_103_2067">
<rect width="10" height="10" fill="white" transform="translate(48 6)"/>
</clipPath>
</defs>
</svg>
