<svg width="30" height="30" viewBox="0 0 30 30" fill="none" xmlns="http://www.w3.org/2000/svg">
<path d="M29.5 15C29.5 23.0081 23.0081 29.5 15 29.5C6.99187 29.5 0.5 23.0081 0.5 15C0.5 6.99187 6.99187 0.5 15 0.5C23.0081 0.5 29.5 6.99187 29.5 15Z" fill="white" stroke="#D9D9D9"/>
<path d="M15 26.25C21.2132 26.25 26.25 21.2132 26.25 15C26.25 8.7868 21.2132 3.75 15 3.75C8.7868 3.75 3.75 8.7868 3.75 15C3.75 21.2132 8.7868 26.25 15 26.25Z" fill="#9747FF"/>
<mask id="path-3-outside-1_541_4920" maskUnits="userSpaceOnUse" x="11.5" y="8.5" width="5" height="13" fill="black">
<rect fill="white" x="11.5" y="8.5" width="5" height="13"/>
<path d="M15.9238 20.5H14.8691V10.9858H14.8105L12.2983 12.6411V11.5718L14.8398 9.89453H15.9238V20.5Z"/>
</mask>
<path d="M15.9238 20.5H14.8691V10.9858H14.8105L12.2983 12.6411V11.5718L14.8398 9.89453H15.9238V20.5Z" fill="white"/>
<path d="M15.9238 20.5V21H16.4238V20.5H15.9238ZM14.8691 20.5H14.3691V21H14.8691V20.5ZM14.8691 10.9858H15.3691V10.4858H14.8691V10.9858ZM14.8105 10.9858V10.4858H14.6606L14.5354 10.5683L14.8105 10.9858ZM12.2983 12.6411H11.7983V13.5693L12.5734 13.0586L12.2983 12.6411ZM12.2983 11.5718L12.0229 11.1545L11.7983 11.3027V11.5718H12.2983ZM14.8398 9.89453V9.39453H14.6897L14.5644 9.47722L14.8398 9.89453ZM15.9238 9.89453H16.4238V9.39453H15.9238V9.89453ZM15.9238 20H14.8691V21H15.9238V20ZM15.3691 20.5V10.9858H14.3691V20.5H15.3691ZM14.8691 10.4858H14.8105V11.4858H14.8691V10.4858ZM14.5354 10.5683L12.0232 12.2236L12.5734 13.0586L15.0856 11.4034L14.5354 10.5683ZM12.7983 12.6411V11.5718H11.7983V12.6411H12.7983ZM12.5737 11.9891L15.1152 10.3118L14.5644 9.47722L12.0229 11.1545L12.5737 11.9891ZM14.8398 10.3945H15.9238V9.39453H14.8398V10.3945ZM15.4238 9.89453V20.5H16.4238V9.89453H15.4238Z" fill="white" mask="url(#path-3-outside-1_541_4920)"/>
</svg>
