<svg width="30" height="30" viewBox="0 0 30 30" fill="none" xmlns="http://www.w3.org/2000/svg">
<path d="M29.5 15C29.5 23.0081 23.0081 29.5 15 29.5C6.99187 29.5 0.5 23.0081 0.5 15C0.5 6.99187 6.99187 0.5 15 0.5C23.0081 0.5 29.5 6.99187 29.5 15Z" fill="white" stroke="#D9D9D9"/>
<path d="M15 26.25C21.2132 26.25 26.25 21.2132 26.25 15C26.25 8.7868 21.2132 3.75 15 3.75C8.7868 3.75 3.75 8.7868 3.75 15C3.75 21.2132 8.7868 26.25 15 26.25Z" fill="#9747FF"/>
<mask id="path-3-outside-1_541_4931" maskUnits="userSpaceOnUse" x="7.75" y="8.5" width="15" height="13" fill="black">
<rect fill="white" x="7.75" y="8.5" width="15" height="13"/>
<path d="M12.1738 20.5H11.1191V10.9858H11.0605L8.54834 12.6411V11.5718L11.0898 9.89453H12.1738V20.5ZM18.458 20.6465C17.7061 20.6465 17.064 20.4316 16.5317 20.002C15.9995 19.5723 15.5894 18.9497 15.3013 18.1343C15.0181 17.3188 14.8765 16.3398 14.8765 15.1973C14.8765 14.0596 15.0181 13.083 15.3013 12.2676C15.5894 11.4521 16.002 10.8296 16.5391 10.3999C17.0762 9.96533 17.7158 9.74805 18.458 9.74805C19.2002 9.74805 19.8398 9.96533 20.377 10.3999C20.9141 10.8296 21.3242 11.4521 21.6074 12.2676C21.8906 13.083 22.0322 14.0596 22.0322 15.1973C22.0322 16.3398 21.8931 17.3188 21.6147 18.1343C21.3364 18.9497 20.9263 19.5723 20.3843 20.002C19.8472 20.4316 19.2051 20.6465 18.458 20.6465ZM18.458 19.709C18.9902 19.709 19.4468 19.5332 19.8276 19.1816C20.2134 18.8252 20.5063 18.3101 20.7065 17.6362C20.9116 16.9575 21.0142 16.1445 21.0142 15.1973C21.0142 14.25 20.9116 13.437 20.7065 12.7583C20.5063 12.0747 20.2134 11.5547 19.8276 11.1982C19.4468 10.8418 18.9902 10.6636 18.458 10.6636C17.9258 10.6636 17.4668 10.8418 17.0811 11.1982C16.6953 11.5547 16.3975 12.0747 16.1875 12.7583C15.9824 13.437 15.8799 14.25 15.8799 15.1973C15.8799 16.1445 15.9824 16.9575 16.1875 17.6362C16.3926 18.3101 16.688 18.8252 17.0737 19.1816C17.4644 19.5332 17.9258 19.709 18.458 19.709Z"/>
</mask>
<path d="M12.1738 20.5H11.1191V10.9858H11.0605L8.54834 12.6411V11.5718L11.0898 9.89453H12.1738V20.5ZM18.458 20.6465C17.7061 20.6465 17.064 20.4316 16.5317 20.002C15.9995 19.5723 15.5894 18.9497 15.3013 18.1343C15.0181 17.3188 14.8765 16.3398 14.8765 15.1973C14.8765 14.0596 15.0181 13.083 15.3013 12.2676C15.5894 11.4521 16.002 10.8296 16.5391 10.3999C17.0762 9.96533 17.7158 9.74805 18.458 9.74805C19.2002 9.74805 19.8398 9.96533 20.377 10.3999C20.9141 10.8296 21.3242 11.4521 21.6074 12.2676C21.8906 13.083 22.0322 14.0596 22.0322 15.1973C22.0322 16.3398 21.8931 17.3188 21.6147 18.1343C21.3364 18.9497 20.9263 19.5723 20.3843 20.002C19.8472 20.4316 19.2051 20.6465 18.458 20.6465ZM18.458 19.709C18.9902 19.709 19.4468 19.5332 19.8276 19.1816C20.2134 18.8252 20.5063 18.3101 20.7065 17.6362C20.9116 16.9575 21.0142 16.1445 21.0142 15.1973C21.0142 14.25 20.9116 13.437 20.7065 12.7583C20.5063 12.0747 20.2134 11.5547 19.8276 11.1982C19.4468 10.8418 18.9902 10.6636 18.458 10.6636C17.9258 10.6636 17.4668 10.8418 17.0811 11.1982C16.6953 11.5547 16.3975 12.0747 16.1875 12.7583C15.9824 13.437 15.8799 14.25 15.8799 15.1973C15.8799 16.1445 15.9824 16.9575 16.1875 17.6362C16.3926 18.3101 16.688 18.8252 17.0737 19.1816C17.4644 19.5332 17.9258 19.709 18.458 19.709Z" fill="white"/>
<path d="M12.1738 20.5V21H12.6738V20.5H12.1738ZM11.1191 20.5H10.6191V21H11.1191V20.5ZM11.1191 10.9858H11.6191V10.4858H11.1191V10.9858ZM11.0605 10.9858V10.4858H10.9106L10.7854 10.5683L11.0605 10.9858ZM8.54834 12.6411H8.04834V13.5693L8.82344 13.0586L8.54834 12.6411ZM8.54834 11.5718L8.27294 11.1545L8.04834 11.3027V11.5718H8.54834ZM11.0898 9.89453V9.39453H10.9397L10.8144 9.47722L11.0898 9.89453ZM12.1738 9.89453H12.6738V9.39453H12.1738V9.89453ZM12.1738 20H11.1191V21H12.1738V20ZM11.6191 20.5V10.9858H10.6191V20.5H11.6191ZM11.1191 10.4858H11.0605V11.4858H11.1191V10.4858ZM10.7854 10.5683L8.27324 12.2236L8.82344 13.0586L11.3356 11.4034L10.7854 10.5683ZM9.04834 12.6411V11.5718H8.04834V12.6411H9.04834ZM8.82374 11.9891L11.3652 10.3118L10.8144 9.47722L8.27294 11.1545L8.82374 11.9891ZM11.0898 10.3945H12.1738V9.39453H11.0898V10.3945ZM11.6738 9.89453V20.5H12.6738V9.89453H11.6738ZM15.3013 18.1343L14.8289 18.2983L14.8298 18.3008L15.3013 18.1343ZM15.3013 12.2676L14.8298 12.101L14.8289 12.1035L15.3013 12.2676ZM16.5391 10.3999L16.8514 10.7903L16.8536 10.7886L16.5391 10.3999ZM20.377 10.3999L20.0625 10.7886L20.0646 10.7903L20.377 10.3999ZM21.6074 12.2676L21.1351 12.4316L21.6074 12.2676ZM20.3843 20.002L20.0737 19.6101L20.0719 19.6115L20.3843 20.002ZM19.8276 19.1816L20.1668 19.549L20.167 19.5489L19.8276 19.1816ZM20.7065 17.6362L20.2279 17.4916L20.2272 17.4938L20.7065 17.6362ZM20.7065 12.7583L20.2267 12.8988L20.2279 12.9029L20.7065 12.7583ZM19.8276 11.1982L19.486 11.5633L19.4883 11.5655L19.8276 11.1982ZM16.1875 12.7583L15.7095 12.6115L15.7089 12.6137L16.1875 12.7583ZM16.1875 17.6362L15.7089 17.7809L15.7092 17.7818L16.1875 17.6362ZM17.0737 19.1816L16.7344 19.5489L16.7392 19.5533L17.0737 19.1816ZM18.458 20.1465C17.8083 20.1465 17.2801 19.9636 16.8458 19.6129L16.2177 20.391C16.8478 20.8997 17.6038 21.1465 18.458 21.1465V20.1465ZM16.8458 19.6129C16.4024 19.2549 16.038 18.7187 15.7727 17.9677L14.8298 18.3008C15.1407 19.1807 15.5966 19.8896 16.2177 20.391L16.8458 19.6129ZM15.7736 17.9702C15.5136 17.2215 15.3765 16.301 15.3765 15.1973H14.3765C14.3765 16.3787 14.5226 17.4162 14.8289 18.2983L15.7736 17.9702ZM15.3765 15.1973C15.3765 14.0987 15.5135 13.1805 15.7736 12.4316L14.8289 12.1035C14.5226 12.9855 14.3765 14.0204 14.3765 15.1973H15.3765ZM15.7727 12.4341C16.0376 11.6842 16.4038 11.1484 16.8514 10.7903L16.2267 10.0095C15.6001 10.5108 15.1411 11.2201 14.8298 12.101L15.7727 12.4341ZM16.8536 10.7886C17.2948 10.4316 17.8212 10.248 18.458 10.248V9.24805C17.6105 9.24805 16.8575 9.49909 16.2246 10.0112L16.8536 10.7886ZM18.458 10.248C19.0948 10.248 19.6212 10.4316 20.0625 10.7886L20.6915 10.0112C20.0585 9.49909 19.3056 9.24805 18.458 9.24805V10.248ZM20.0646 10.7903C20.5114 11.1478 20.875 11.6826 21.1351 12.4316L22.0797 12.1035C21.7735 11.2217 21.3167 10.5114 20.6893 10.0095L20.0646 10.7903ZM21.1351 12.4316C21.3952 13.1805 21.5322 14.0987 21.5322 15.1973H22.5322C22.5322 14.0204 22.3861 12.9855 22.0797 12.1035L21.1351 12.4316ZM21.5322 15.1973C21.5322 16.3017 21.3974 17.2232 21.1416 17.9728L22.0879 18.2958C22.3887 17.4145 22.5322 16.378 22.5322 15.1973H21.5322ZM21.1416 17.9728C20.8866 18.7197 20.5239 19.2532 20.0737 19.6101L20.6949 20.3938C21.3286 19.8914 21.7862 19.1797 22.0879 18.2958L21.1416 17.9728ZM20.0719 19.6115C19.6313 19.964 19.102 20.1465 18.458 20.1465V21.1465C19.3082 21.1465 20.063 20.8993 20.6966 20.3924L20.0719 19.6115ZM18.458 20.209C19.1122 20.209 19.6909 19.9884 20.1668 19.549L19.4885 18.8142C19.2027 19.078 18.8683 19.209 18.458 19.209V20.209ZM20.167 19.5489C20.6374 19.1141 20.9684 18.5104 21.1858 17.7786L20.2272 17.4938C20.0443 18.1097 19.7893 18.5363 19.4883 18.8144L20.167 19.5489ZM21.1852 17.7809C21.4083 17.0425 21.5142 16.1782 21.5142 15.1973H20.5142C20.5142 16.1109 20.415 16.8725 20.2279 17.4916L21.1852 17.7809ZM21.5142 15.1973C21.5142 14.2164 21.4083 13.352 21.1852 12.6137L20.2279 12.9029C20.415 13.522 20.5142 14.2836 20.5142 15.1973H21.5142ZM21.1864 12.6178C20.9695 11.8771 20.6388 11.2671 20.167 10.831L19.4883 11.5655C19.7879 11.8423 20.0432 12.2723 20.2267 12.8988L21.1864 12.6178ZM20.1693 10.8332C19.6937 10.3881 19.1143 10.1636 18.458 10.1636V11.1636C18.8662 11.1636 19.1998 11.2955 19.486 11.5633L20.1693 10.8332ZM18.458 10.1636C17.8019 10.1636 17.2212 10.388 16.7417 10.831L17.4204 11.5655C17.7124 11.2956 18.0497 11.1636 18.458 11.1636V10.1636ZM16.7417 10.831C16.2718 11.2653 15.9364 11.8728 15.7095 12.6115L16.6655 12.9051C16.8585 12.2766 17.1188 11.8441 17.4204 11.5655L16.7417 10.831ZM15.7089 12.6137C15.4858 13.352 15.3799 14.2164 15.3799 15.1973H16.3799C16.3799 14.2836 16.4791 13.522 16.6661 12.9029L15.7089 12.6137ZM15.3799 15.1973C15.3799 16.1782 15.4858 17.0425 15.7089 17.7809L16.6661 17.4916C16.4791 16.8725 16.3799 16.1109 16.3799 15.1973H15.3799ZM15.7092 17.7818C15.9316 18.5126 16.2649 19.115 16.7344 19.5489L17.4131 18.8144C17.1111 18.5354 16.8536 18.1075 16.6658 17.4906L15.7092 17.7818ZM16.7392 19.5533C17.223 19.9886 17.804 20.209 18.458 20.209V19.209C18.0476 19.209 17.7057 19.0778 17.4082 18.81L16.7392 19.5533Z" fill="white" mask="url(#path-3-outside-1_541_4931)"/>
</svg>
