<svg width="30" height="30" viewBox="0 0 30 30" fill="none" xmlns="http://www.w3.org/2000/svg">
<path d="M29.5 15C29.5 23.0081 23.0081 29.5 15 29.5C6.99187 29.5 0.5 23.0081 0.5 15C0.5 6.99187 6.99187 0.5 15 0.5C23.0081 0.5 29.5 6.99187 29.5 15Z" fill="white" stroke="#D9D9D9"/>
<path d="M15 26.25C21.2132 26.25 26.25 21.2132 26.25 15C26.25 8.7868 21.2132 3.75 15 3.75C8.7868 3.75 3.75 8.7868 3.75 15C3.75 21.2132 8.7868 26.25 15 26.25Z" fill="#9747FF"/>
<mask id="path-3-outside-1_541_4921" maskUnits="userSpaceOnUse" x="10.75" y="8.25" width="9" height="13" fill="black">
<rect fill="white" x="10.75" y="8.25" width="9" height="13"/>
<path d="M11.79 19.481L15.3716 15.6138C15.8745 15.0669 16.2603 14.625 16.5288 14.2881C16.7974 13.9463 16.9927 13.624 17.1147 13.3213C17.2417 13.0186 17.3052 12.7061 17.3052 12.3838C17.3052 12.0029 17.2075 11.6636 17.0122 11.3657C16.8218 11.063 16.5581 10.8286 16.2212 10.6626C15.8843 10.4966 15.5034 10.4136 15.0786 10.4136C14.6489 10.4136 14.2656 10.5039 13.9287 10.6846C13.5967 10.8652 13.3379 11.1191 13.1523 11.4463C12.9668 11.7686 12.874 12.1323 12.874 12.5376H11.8853C11.8853 11.9517 12.022 11.4292 12.2954 10.9702C12.5737 10.5063 12.9595 10.145 13.4526 9.88623C13.9507 9.62744 14.5024 9.49805 15.1079 9.49805C15.7183 9.49805 16.2627 9.625 16.7412 9.87891C17.2246 10.1279 17.603 10.4746 17.8765 10.9189C18.1499 11.3584 18.2866 11.8467 18.2866 12.3838C18.2866 12.7842 18.2134 13.1675 18.0669 13.5337C17.9253 13.895 17.6885 14.2954 17.3564 14.7349C17.0293 15.1694 16.5508 15.7236 15.9209 16.3975L13.2622 19.2393V19.3125H18.5942V20.25H11.7974L11.79 19.481Z"/>
</mask>
<path d="M11.79 19.481L15.3716 15.6138C15.8745 15.0669 16.2603 14.625 16.5288 14.2881C16.7974 13.9463 16.9927 13.624 17.1147 13.3213C17.2417 13.0186 17.3052 12.7061 17.3052 12.3838C17.3052 12.0029 17.2075 11.6636 17.0122 11.3657C16.8218 11.063 16.5581 10.8286 16.2212 10.6626C15.8843 10.4966 15.5034 10.4136 15.0786 10.4136C14.6489 10.4136 14.2656 10.5039 13.9287 10.6846C13.5967 10.8652 13.3379 11.1191 13.1523 11.4463C12.9668 11.7686 12.874 12.1323 12.874 12.5376H11.8853C11.8853 11.9517 12.022 11.4292 12.2954 10.9702C12.5737 10.5063 12.9595 10.145 13.4526 9.88623C13.9507 9.62744 14.5024 9.49805 15.1079 9.49805C15.7183 9.49805 16.2627 9.625 16.7412 9.87891C17.2246 10.1279 17.603 10.4746 17.8765 10.9189C18.1499 11.3584 18.2866 11.8467 18.2866 12.3838C18.2866 12.7842 18.2134 13.1675 18.0669 13.5337C17.9253 13.895 17.6885 14.2954 17.3564 14.7349C17.0293 15.1694 16.5508 15.7236 15.9209 16.3975L13.2622 19.2393V19.3125H18.5942V20.25H11.7974L11.79 19.481Z" fill="white"/>
<path d="M11.79 19.481L11.4232 19.1412L11.2882 19.287L11.2901 19.4857L11.79 19.481ZM15.3716 15.6138L15.7384 15.9535L15.7396 15.9522L15.3716 15.6138ZM16.5288 14.2881L16.9198 14.5997L16.922 14.597L16.5288 14.2881ZM17.1147 13.3213L16.6536 13.1279L16.651 13.1343L17.1147 13.3213ZM17.0122 11.3657L16.5889 11.632L16.5941 11.6399L17.0122 11.3657ZM13.9287 10.6846L13.6924 10.2439L13.6897 10.2454L13.9287 10.6846ZM13.1523 11.4463L13.5857 11.6958L13.5873 11.693L13.1523 11.4463ZM12.874 12.5376V13.0376H13.374V12.5376H12.874ZM11.8853 12.5376H11.3853V13.0376H11.8853V12.5376ZM12.2954 10.9702L11.8667 10.713L11.8659 10.7143L12.2954 10.9702ZM13.4526 9.88623L13.2221 9.44255L13.2203 9.44349L13.4526 9.88623ZM16.7412 9.87891L16.5068 10.3206L16.5122 10.3234L16.7412 9.87891ZM17.8765 10.9189L17.4506 11.181L17.4519 11.1831L17.8765 10.9189ZM18.0669 13.5337L17.6026 13.348L17.6014 13.3513L18.0669 13.5337ZM17.3564 14.7349L16.9575 14.4334L16.957 14.4341L17.3564 14.7349ZM15.9209 16.3975L16.286 16.7391L16.2862 16.7389L15.9209 16.3975ZM13.2622 19.2393L12.8971 18.8977L12.7622 19.0418V19.2393H13.2622ZM13.2622 19.3125H12.7622V19.8125H13.2622V19.3125ZM18.5942 19.3125H19.0942V18.8125H18.5942V19.3125ZM18.5942 20.25V20.75H19.0942V20.25H18.5942ZM11.7974 20.25L11.2974 20.2548L11.3021 20.75H11.7974V20.25ZM12.1569 19.8207L15.7384 15.9535L15.0047 15.274L11.4232 19.1412L12.1569 19.8207ZM15.7396 15.9522C16.2457 15.4019 16.6405 14.9501 16.9198 14.5997L16.1378 13.9764C15.88 14.2999 15.5033 14.7319 15.0036 15.2753L15.7396 15.9522ZM16.922 14.597C17.2107 14.2296 17.434 13.8665 17.5785 13.5083L16.651 13.1343C16.5513 13.3815 16.3841 13.663 16.1356 13.9792L16.922 14.597ZM17.5758 13.5147C17.728 13.1519 17.8052 12.7737 17.8052 12.3838H16.8052C16.8052 12.6384 16.7554 12.8853 16.6536 13.1279L17.5758 13.5147ZM17.8052 12.3838C17.8052 11.9126 17.6828 11.4766 17.4303 11.0915L16.5941 11.6399C16.7322 11.8506 16.8052 12.0933 16.8052 12.3838H17.8052ZM17.4354 11.0995C17.1932 10.7145 16.8577 10.4188 16.4422 10.2141L16.0002 11.1111C16.2585 11.2384 16.4503 11.4115 16.589 11.6319L17.4354 11.0995ZM16.4422 10.2141C16.028 10.01 15.57 9.91357 15.0786 9.91357V10.9136C15.4369 10.9136 15.7405 10.9832 16.0002 11.1111L16.4422 10.2141ZM15.0786 9.91357C14.5768 9.91357 14.1106 10.0197 13.6924 10.2439L14.165 11.1252C14.4206 10.9881 14.721 10.9136 15.0786 10.9136V9.91357ZM13.6897 10.2454C13.2761 10.4704 12.9493 10.7908 12.7174 11.1996L13.5873 11.693C13.7265 11.4475 13.9172 11.26 14.1677 11.1238L13.6897 10.2454ZM12.719 11.1968C12.4859 11.6017 12.374 12.0529 12.374 12.5376H13.374C13.374 12.2118 13.4477 11.9354 13.5857 11.6958L12.719 11.1968ZM12.874 12.0376H11.8853V13.0376H12.874V12.0376ZM12.3853 12.5376C12.3853 12.0328 12.502 11.6003 12.725 11.2261L11.8659 10.7143C11.5419 11.2581 11.3853 11.8706 11.3853 12.5376H12.3853ZM12.7242 11.2275C12.9538 10.8447 13.2705 10.5464 13.685 10.329L13.2203 9.44349C12.6484 9.74359 12.1936 10.168 11.8667 10.713L12.7242 11.2275ZM13.6832 10.3299C14.1045 10.111 14.5762 9.99805 15.1079 9.99805V8.99805C14.4287 8.99805 13.7969 9.14389 13.2221 9.44255L13.6832 10.3299ZM15.1079 9.99805C15.647 9.99805 16.1092 10.1096 16.5069 10.3206L16.9756 9.43723C16.4161 9.14039 15.7895 8.99805 15.1079 8.99805V9.99805ZM16.5122 10.3234C16.9182 10.5325 17.227 10.8176 17.4506 11.181L18.3023 10.6569C17.979 10.1316 17.531 9.72333 16.9702 9.43442L16.5122 10.3234ZM17.4519 11.1831C17.6741 11.5402 17.7866 11.9363 17.7866 12.3838H18.7866C18.7866 11.757 18.6257 11.1766 18.301 10.6548L17.4519 11.1831ZM17.7866 12.3838C17.7866 12.7216 17.7252 13.0418 17.6027 13.348L18.5311 13.7194C18.7016 13.2932 18.7866 12.8468 18.7866 12.3838H17.7866ZM17.6014 13.3513C17.4818 13.6564 17.2725 14.0165 16.9575 14.4334L17.7554 15.0363C18.1044 14.5743 18.3688 14.1336 18.5324 13.7161L17.6014 13.3513ZM16.957 14.4341C16.6453 14.8482 16.1805 15.3876 15.5556 16.056L16.2862 16.7389C16.9211 16.0597 17.4133 15.4907 17.7559 15.0356L16.957 14.4341ZM15.5558 16.0559L12.8971 18.8977L13.6273 19.5809L16.286 16.7391L15.5558 16.0559ZM12.7622 19.2393V19.3125H13.7622V19.2393H12.7622ZM13.2622 19.8125H18.5942V18.8125H13.2622V19.8125ZM18.0942 19.3125V20.25H19.0942V19.3125H18.0942ZM18.5942 19.75H11.7974V20.75H18.5942V19.75ZM12.2973 20.2452L12.29 19.4762L11.2901 19.4857L11.2974 20.2548L12.2973 20.2452Z" fill="white" mask="url(#path-3-outside-1_541_4921)"/>
</svg>
