<svg width="30" height="30" viewBox="0 0 30 30" fill="none" xmlns="http://www.w3.org/2000/svg">
<path d="M29.5 15C29.5 23.0081 23.0081 29.5 15 29.5C6.99187 29.5 0.5 23.0081 0.5 15C0.5 6.99187 6.99187 0.5 15 0.5C23.0081 0.5 29.5 6.99187 29.5 15Z" fill="white" stroke="#D9D9D9"/>
<path d="M15 26.25C21.2132 26.25 26.25 21.2132 26.25 15C26.25 8.7868 21.2132 3.75 15 3.75C8.7868 3.75 3.75 8.7868 3.75 15C3.75 21.2132 8.7868 26.25 15 26.25Z" fill="#9747FF"/>
<mask id="path-3-outside-1_541_4922" maskUnits="userSpaceOnUse" x="10.5" y="8.5" width="9" height="13" fill="black">
<rect fill="white" x="10.5" y="8.5" width="9" height="13"/>
<path d="M15.0996 20.6465C14.4307 20.6465 13.8276 20.5293 13.2905 20.2949C12.7583 20.0557 12.3384 19.7236 12.0308 19.2988C11.7231 18.874 11.5571 18.3882 11.5327 17.8413H12.5874C12.6069 18.2026 12.729 18.5273 12.9536 18.8154C13.1782 19.0986 13.4761 19.3184 13.8472 19.4746C14.2231 19.6309 14.6382 19.709 15.0923 19.709C15.5806 19.709 16.02 19.6187 16.4106 19.438C16.8013 19.2573 17.104 19.0132 17.3188 18.7056C17.5386 18.3931 17.6484 18.0415 17.6484 17.6509C17.6484 17.231 17.5361 16.8599 17.3115 16.5376C17.0918 16.2104 16.7744 15.959 16.3594 15.7832C15.9443 15.6025 15.4512 15.5122 14.8799 15.5122H14.2207V14.5894H14.8799C15.3438 14.5894 15.7563 14.5088 16.1177 14.3477C16.4839 14.1816 16.7671 13.9497 16.9673 13.6519C17.1724 13.3491 17.2749 13 17.2749 12.6045C17.2749 12.2236 17.1846 11.8867 17.0039 11.5938C16.8281 11.3008 16.5767 11.0737 16.2495 10.9126C15.9272 10.7466 15.5488 10.6636 15.1143 10.6636C14.6992 10.6636 14.3159 10.7417 13.9644 10.8979C13.6128 11.0542 13.3296 11.2764 13.1147 11.5645C12.9048 11.8477 12.7925 12.1772 12.7778 12.5532H11.7671C11.7866 12.0112 11.9453 11.5278 12.2432 11.103C12.5459 10.6733 12.9487 10.3413 13.4517 10.1069C13.9595 9.86768 14.5186 9.74805 15.1289 9.74805C15.7539 9.74805 16.3057 9.87256 16.7842 10.1216C17.2676 10.3706 17.6387 10.71 17.8975 11.1396C18.1611 11.5645 18.2905 12.0356 18.2856 12.5532C18.2905 12.9487 18.2173 13.3125 18.0659 13.6445C17.9146 13.9766 17.6973 14.2573 17.4141 14.4868C17.1309 14.7114 16.7988 14.8799 16.418 14.9922V15.0581C16.8818 15.1411 17.2822 15.3022 17.6191 15.5415C17.9561 15.7808 18.2148 16.0811 18.3955 16.4424C18.5811 16.7988 18.6714 17.2017 18.6665 17.6509C18.6714 18.2075 18.52 18.7153 18.2124 19.1743C17.9048 19.6333 17.4775 19.9946 16.9307 20.2583C16.3838 20.5171 15.7734 20.6465 15.0996 20.6465Z"/>
</mask>
<path d="M15.0996 20.6465C14.4307 20.6465 13.8276 20.5293 13.2905 20.2949C12.7583 20.0557 12.3384 19.7236 12.0308 19.2988C11.7231 18.874 11.5571 18.3882 11.5327 17.8413H12.5874C12.6069 18.2026 12.729 18.5273 12.9536 18.8154C13.1782 19.0986 13.4761 19.3184 13.8472 19.4746C14.2231 19.6309 14.6382 19.709 15.0923 19.709C15.5806 19.709 16.02 19.6187 16.4106 19.438C16.8013 19.2573 17.104 19.0132 17.3188 18.7056C17.5386 18.3931 17.6484 18.0415 17.6484 17.6509C17.6484 17.231 17.5361 16.8599 17.3115 16.5376C17.0918 16.2104 16.7744 15.959 16.3594 15.7832C15.9443 15.6025 15.4512 15.5122 14.8799 15.5122H14.2207V14.5894H14.8799C15.3438 14.5894 15.7563 14.5088 16.1177 14.3477C16.4839 14.1816 16.7671 13.9497 16.9673 13.6519C17.1724 13.3491 17.2749 13 17.2749 12.6045C17.2749 12.2236 17.1846 11.8867 17.0039 11.5938C16.8281 11.3008 16.5767 11.0737 16.2495 10.9126C15.9272 10.7466 15.5488 10.6636 15.1143 10.6636C14.6992 10.6636 14.3159 10.7417 13.9644 10.8979C13.6128 11.0542 13.3296 11.2764 13.1147 11.5645C12.9048 11.8477 12.7925 12.1772 12.7778 12.5532H11.7671C11.7866 12.0112 11.9453 11.5278 12.2432 11.103C12.5459 10.6733 12.9487 10.3413 13.4517 10.1069C13.9595 9.86768 14.5186 9.74805 15.1289 9.74805C15.7539 9.74805 16.3057 9.87256 16.7842 10.1216C17.2676 10.3706 17.6387 10.71 17.8975 11.1396C18.1611 11.5645 18.2905 12.0356 18.2856 12.5532C18.2905 12.9487 18.2173 13.3125 18.0659 13.6445C17.9146 13.9766 17.6973 14.2573 17.4141 14.4868C17.1309 14.7114 16.7988 14.8799 16.418 14.9922V15.0581C16.8818 15.1411 17.2822 15.3022 17.6191 15.5415C17.9561 15.7808 18.2148 16.0811 18.3955 16.4424C18.5811 16.7988 18.6714 17.2017 18.6665 17.6509C18.6714 18.2075 18.52 18.7153 18.2124 19.1743C17.9048 19.6333 17.4775 19.9946 16.9307 20.2583C16.3838 20.5171 15.7734 20.6465 15.0996 20.6465Z" fill="white"/>
<path d="M13.2905 20.2949L13.0855 20.751L13.0906 20.7532L13.2905 20.2949ZM11.5327 17.8413V17.3413H11.0099L11.0332 17.8636L11.5327 17.8413ZM12.5874 17.8413L13.0867 17.8143L13.0611 17.3413H12.5874V17.8413ZM12.9536 18.8154L12.5593 19.1229L12.5619 19.1261L12.9536 18.8154ZM13.8472 19.4746L13.6531 19.9354L13.6553 19.9363L13.8472 19.4746ZM17.3188 18.7056L16.9098 18.418L16.9089 18.4193L17.3188 18.7056ZM17.3115 16.5376L16.8964 16.8164L16.9013 16.8235L17.3115 16.5376ZM16.3594 15.7832L16.1598 16.2417L16.1644 16.2436L16.3594 15.7832ZM14.2207 15.5122H13.7207V16.0122H14.2207V15.5122ZM14.2207 14.5894V14.0894H13.7207V14.5894H14.2207ZM16.1177 14.3477L16.3213 14.8043L16.3241 14.803L16.1177 14.3477ZM16.9673 13.6519L16.5533 13.3714L16.5523 13.3729L16.9673 13.6519ZM17.0039 11.5938L16.5751 11.851L16.5783 11.8562L17.0039 11.5938ZM16.2495 10.9126L16.0205 11.3572L16.0286 11.3611L16.2495 10.9126ZM13.1147 11.5645L12.7139 11.2655L12.7131 11.2667L13.1147 11.5645ZM12.7778 12.5532V13.0532H13.2587L13.2775 12.5727L12.7778 12.5532ZM11.7671 12.5532L11.2674 12.5352L11.2487 13.0532H11.7671V12.5532ZM12.2432 11.103L11.8344 10.815L11.8338 10.816L12.2432 11.103ZM13.4517 10.1069L13.6629 10.5601L13.6648 10.5592L13.4517 10.1069ZM16.7842 10.1216L16.5534 10.5651L16.5552 10.5661L16.7842 10.1216ZM17.8975 11.1396L17.4691 11.3976L17.4726 11.4033L17.8975 11.1396ZM18.2856 12.5532L17.7855 12.5485L17.7857 12.5594L18.2856 12.5532ZM18.0659 13.6445L17.611 13.4371L18.0659 13.6445ZM17.4141 14.4868L17.7248 14.8786L17.7289 14.8753L17.4141 14.4868ZM16.418 14.9922L16.2766 14.5126L15.918 14.6183V14.9922H16.418ZM16.418 15.0581H15.918V15.4766L16.3299 15.5503L16.418 15.0581ZM18.3955 16.4424L17.9482 16.666L17.952 16.6733L18.3955 16.4424ZM18.6665 17.6509L18.1664 17.6454L18.1665 17.6553L18.6665 17.6509ZM16.9307 20.2583L17.1445 20.7103L17.1478 20.7087L16.9307 20.2583ZM15.0996 20.1465C14.4898 20.1465 13.9562 20.0399 13.4905 19.8367L13.0906 20.7532C13.6991 21.0187 14.3715 21.1465 15.0996 21.1465V20.1465ZM13.4955 19.8389C13.0339 19.6313 12.6865 19.3518 12.4357 19.0056L11.6258 19.5921C11.9903 20.0954 12.4827 20.48 13.0855 20.751L13.4955 19.8389ZM12.4357 19.0056C12.188 18.6635 12.0525 18.2728 12.0322 17.819L11.0332 17.8636C11.0618 18.5036 11.2583 19.0846 11.6258 19.5921L12.4357 19.0056ZM11.5327 18.3413H12.5874V17.3413H11.5327V18.3413ZM12.0881 17.8683C12.1132 18.3327 12.2725 18.755 12.5593 19.1229L13.3479 18.508C13.1855 18.2997 13.1006 18.0726 13.0867 17.8143L12.0881 17.8683ZM12.5619 19.1261C12.8445 19.4824 13.2136 19.7503 13.6531 19.9354L14.0412 19.0138C13.7386 18.8864 13.512 18.7148 13.3454 18.5047L12.5619 19.1261ZM13.6553 19.9363C14.0987 20.1206 14.5799 20.209 15.0923 20.209V19.209C14.6964 19.209 14.3476 19.1411 14.039 19.0129L13.6553 19.9363ZM15.0923 20.209C15.6433 20.209 16.1558 20.1067 16.6205 19.8918L16.2008 18.9842C15.8842 19.1306 15.5178 19.209 15.0923 19.209V20.209ZM16.6205 19.8918C17.0795 19.6795 17.4562 19.3822 17.7288 18.9919L16.9089 18.4193C16.7518 18.6442 16.523 18.8351 16.2008 18.9842L16.6205 19.8918ZM17.7279 18.9932C18.0082 18.5944 18.1484 18.142 18.1484 17.6509H17.1484C17.1484 17.941 17.0689 18.1917 16.9098 18.418L17.7279 18.9932ZM18.1484 17.6509C18.1484 17.1362 18.0089 16.6637 17.7217 16.2517L16.9013 16.8235C17.0634 17.056 17.1484 17.3258 17.1484 17.6509H18.1484ZM17.7266 16.2588C17.4452 15.8399 17.0456 15.5309 16.5544 15.3228L16.1644 16.2436C16.5032 16.3871 16.7384 16.581 16.8965 16.8164L17.7266 16.2588ZM16.5589 15.3248C16.0667 15.1105 15.5025 15.0122 14.8799 15.0122V16.0122C15.3999 16.0122 15.8219 16.0946 16.1598 16.2417L16.5589 15.3248ZM14.8799 15.0122H14.2207V16.0122H14.8799V15.0122ZM14.7207 15.5122V14.5894H13.7207V15.5122H14.7207ZM14.2207 15.0894H14.8799V14.0894H14.2207V15.0894ZM14.8799 15.0894C15.4019 15.0894 15.8858 14.9985 16.3213 14.8043L15.914 13.891C15.6269 14.0191 15.2856 14.0894 14.8799 14.0894V15.0894ZM16.3241 14.803C16.7644 14.6034 17.1242 14.3147 17.3823 13.9308L16.5523 13.3729C16.41 13.5847 16.2034 13.7598 15.9112 13.8923L16.3241 14.803ZM17.3812 13.9323C17.647 13.54 17.7749 13.0914 17.7749 12.6045H16.7749C16.7749 12.9086 16.6977 13.1583 16.5533 13.3714L17.3812 13.9323ZM17.7749 12.6045C17.7749 12.1411 17.6639 11.7114 17.4295 11.3313L16.5783 11.8562C16.7053 12.062 16.7749 12.3061 16.7749 12.6045H17.7749ZM17.4327 11.3365C17.204 10.9555 16.8777 10.6647 16.4704 10.4641L16.0286 11.3611C16.2756 11.4828 16.4522 11.6461 16.5752 11.851L17.4327 11.3365ZM16.4785 10.4681C16.0727 10.259 15.6128 10.1636 15.1143 10.1636V11.1636C15.4849 11.1636 15.7818 11.2341 16.0205 11.3571L16.4785 10.4681ZM15.1143 10.1636C14.6348 10.1636 14.1817 10.2542 13.7613 10.441L14.1674 11.3549C14.4501 11.2292 14.7636 11.1636 15.1143 11.1636V10.1636ZM13.7613 10.441C13.3371 10.6296 12.9837 10.9039 12.7139 11.2655L13.5156 11.8634C13.6755 11.6489 13.8885 11.4788 14.1674 11.3549L13.7613 10.441ZM12.7131 11.2667C12.4391 11.6362 12.2965 12.0644 12.2782 12.5338L13.2775 12.5727C13.2885 12.2901 13.3705 12.0591 13.5164 11.8622L12.7131 11.2667ZM12.7778 12.0532H11.7671V13.0532H12.7778V12.0532ZM12.2668 12.5712C12.283 12.1211 12.4127 11.7321 12.6526 11.3901L11.8338 10.816C11.4779 11.3236 11.2903 11.9013 11.2674 12.5352L12.2668 12.5712ZM12.6519 11.391C12.9015 11.0367 13.2345 10.7598 13.6629 10.5601L13.2405 9.65373C12.663 9.92286 12.1903 10.31 11.8344 10.8151L12.6519 11.391ZM13.6648 10.5592C14.1003 10.3541 14.5857 10.248 15.1289 10.248V9.24805C14.4514 9.24805 13.8187 9.38129 13.2386 9.65462L13.6648 10.5592ZM15.1289 10.248C15.6863 10.248 16.1567 10.3587 16.5534 10.5651L17.015 9.67805C16.4547 9.38644 15.8215 9.24805 15.1289 9.24805V10.248ZM16.5552 10.5661C16.9633 10.7763 17.2622 11.054 17.4691 11.3976L18.3258 10.8817C18.0151 10.3659 17.5718 9.96489 17.0132 9.67709L16.5552 10.5661ZM17.4726 11.4033C17.6845 11.7447 17.7897 12.1222 17.7857 12.5485L18.7856 12.5579C18.7914 11.9491 18.6378 11.3842 18.3223 10.876L17.4726 11.4033ZM17.7857 12.5594C17.7897 12.8875 17.7293 13.1776 17.611 13.4371L18.5209 13.8519C18.7053 13.4474 18.7913 13.0099 18.7856 12.5471L17.7857 12.5594ZM17.611 13.4371C17.4916 13.6989 17.3223 13.9176 17.0993 14.0983L17.7289 14.8753C18.0722 14.597 18.3375 14.2543 18.5209 13.8519L17.611 13.4371ZM17.1034 14.0951C16.8752 14.276 16.602 14.4167 16.2766 14.5126L16.5594 15.4718C16.9957 15.3431 17.3865 15.1468 17.7248 14.8786L17.1034 14.0951ZM15.918 14.9922V15.0581H16.918V14.9922H15.918ZM16.3299 15.5503C16.7314 15.6221 17.0607 15.7582 17.3296 15.9492L17.9086 15.1338C17.5037 14.8463 17.0323 14.6601 16.506 14.5659L16.3299 15.5503ZM17.3296 15.9492C17.6013 16.1421 17.8052 16.3797 17.9483 16.666L18.8427 16.2188C18.6245 15.7824 18.3108 15.4195 17.9086 15.1338L17.3296 15.9492ZM17.952 16.6733C18.0953 16.9485 18.1706 17.2686 18.1665 17.6454L19.1665 17.6563C19.1721 17.1347 19.0668 16.6492 18.839 16.2115L17.952 16.6733ZM18.1665 17.6553C18.1705 18.1121 18.0482 18.5212 17.7971 18.8959L18.6277 19.4527C18.9918 18.9094 19.1722 18.303 19.1665 17.6465L18.1665 17.6553ZM17.7971 18.8959C17.5438 19.2738 17.1883 19.579 16.7135 19.8079L17.1478 20.7087C17.7667 20.4103 18.2658 19.9928 18.6277 19.4527L17.7971 18.8959ZM16.7168 19.8063C16.244 20.0301 15.708 20.1465 15.0996 20.1465V21.1465C15.8389 21.1465 16.5235 21.0041 17.1445 20.7103L16.7168 19.8063Z" fill="white" mask="url(#path-3-outside-1_541_4922)"/>
</svg>
