<svg width="30" height="30" viewBox="0 0 30 30" fill="none" xmlns="http://www.w3.org/2000/svg">
<path d="M29.5 15C29.5 23.0081 23.0081 29.5 15 29.5C6.99187 29.5 0.5 23.0081 0.5 15C0.5 6.99187 6.99187 0.5 15 0.5C23.0081 0.5 29.5 6.99187 29.5 15Z" fill="white" stroke="#D9D9D9"/>
<path d="M15 26.25C21.2132 26.25 26.25 21.2132 26.25 15C26.25 8.7868 21.2132 3.75 15 3.75C8.7868 3.75 3.75 8.7868 3.75 15C3.75 21.2132 8.7868 26.25 15 26.25Z" fill="#9747FF"/>
<mask id="path-3-outside-1_541_4924" maskUnits="userSpaceOnUse" x="10" y="8.5" width="9" height="13" fill="black">
<rect fill="white" x="10" y="8.5" width="9" height="13"/>
<path d="M10.7837 17.3945L15.625 9.89453H16.2549V11.2861H15.7861L11.9409 17.2407V17.3213H18.335V18.2441H10.7837V17.3945ZM15.8887 17.9805V17.585V9.89453H16.8921V20.5H15.8887V17.9805Z"/>
</mask>
<path d="M10.7837 17.3945L15.625 9.89453H16.2549V11.2861H15.7861L11.9409 17.2407V17.3213H18.335V18.2441H10.7837V17.3945ZM15.8887 17.9805V17.585V9.89453H16.8921V20.5H15.8887V17.9805Z" fill="white"/>
<path d="M10.7837 17.3945L10.3636 17.1234L10.2837 17.2472V17.3945H10.7837ZM15.625 9.89453V9.39453H15.3526L15.2049 9.62337L15.625 9.89453ZM16.2549 9.89453H16.7549V9.39453H16.2549V9.89453ZM16.2549 11.2861V11.7861H16.7549V11.2861H16.2549ZM15.7861 11.2861V10.7861H15.5138L15.3661 11.0149L15.7861 11.2861ZM11.9409 17.2407L11.5209 16.9695L11.4409 17.0933V17.2407H11.9409ZM11.9409 17.3213H11.4409V17.8213H11.9409V17.3213ZM18.335 17.3213H18.835V16.8213H18.335V17.3213ZM18.335 18.2441V18.7441H18.835V18.2441H18.335ZM10.7837 18.2441H10.2837V18.7441H10.7837V18.2441ZM15.8887 9.89453V9.39453H15.3887V9.89453H15.8887ZM16.8921 9.89453H17.3921V9.39453H16.8921V9.89453ZM16.8921 20.5V21H17.3921V20.5H16.8921ZM15.8887 20.5H15.3887V21H15.8887V20.5ZM11.2038 17.6657L16.0451 10.1657L15.2049 9.62337L10.3636 17.1234L11.2038 17.6657ZM15.625 10.3945H16.2549V9.39453H15.625V10.3945ZM15.7549 9.89453V11.2861H16.7549V9.89453H15.7549ZM16.2549 10.7861H15.7861V11.7861H16.2549V10.7861ZM15.3661 11.0149L11.5209 16.9695L12.361 17.512L16.2062 11.5574L15.3661 11.0149ZM11.4409 17.2407V17.3213H12.4409V17.2407H11.4409ZM11.9409 17.8213H18.335V16.8213H11.9409V17.8213ZM17.835 17.3213V18.2441H18.835V17.3213H17.835ZM18.335 17.7441H10.7837V18.7441H18.335V17.7441ZM11.2837 18.2441V17.3945H10.2837V18.2441H11.2837ZM16.3887 17.9805V17.585H15.3887V17.9805H16.3887ZM16.3887 17.585V9.89453H15.3887V17.585H16.3887ZM15.8887 10.3945H16.8921V9.39453H15.8887V10.3945ZM16.3921 9.89453V20.5H17.3921V9.89453H16.3921ZM16.8921 20H15.8887V21H16.8921V20ZM16.3887 20.5V17.9805H15.3887V20.5H16.3887Z" fill="white" mask="url(#path-3-outside-1_541_4924)"/>
</svg>
