<svg width="30" height="30" viewBox="0 0 30 30" fill="none" xmlns="http://www.w3.org/2000/svg">
<path d="M29.5 15C29.5 23.0081 23.0081 29.5 15 29.5C6.99187 29.5 0.5 23.0081 0.5 15C0.5 6.99187 6.99187 0.5 15 0.5C23.0081 0.5 29.5 6.99187 29.5 15Z" fill="white" stroke="#D9D9D9"/>
<path d="M15 26.25C21.2132 26.25 26.25 21.2132 26.25 15C26.25 8.7868 21.2132 3.75 15 3.75C8.7868 3.75 3.75 8.7868 3.75 15C3.75 21.2132 8.7868 26.25 15 26.25Z" fill="#9747FF"/>
<mask id="path-3-outside-1_541_4925" maskUnits="userSpaceOnUse" x="10.75" y="8.5" width="9" height="13" fill="black">
<rect fill="white" x="10.75" y="8.5" width="9" height="13"/>
<path d="M15.0713 20.6465C14.4609 20.6465 13.9067 20.5269 13.4087 20.2876C12.9155 20.0435 12.5249 19.709 12.2368 19.2842C11.9487 18.8594 11.7949 18.3784 11.7754 17.8413H12.7861C12.8105 18.1978 12.9253 18.5176 13.1304 18.8008C13.3354 19.084 13.6064 19.3086 13.9434 19.4746C14.2852 19.6406 14.6611 19.7236 15.0713 19.7236C15.5547 19.7236 15.9893 19.6113 16.375 19.3867C16.7656 19.1621 17.0708 18.8545 17.2905 18.4639C17.5103 18.0732 17.6177 17.6387 17.6128 17.1602C17.6128 16.6621 17.498 16.2178 17.2686 15.8271C17.0439 15.4316 16.7314 15.124 16.3311 14.9043C15.9355 14.6846 15.4937 14.5747 15.0054 14.5747C14.5415 14.5649 14.1338 14.6406 13.7822 14.8018C13.4355 14.958 13.1597 15.207 12.9546 15.5488H11.9146L12.647 9.89453H18.1621V10.8247H13.5186L13.0645 14.3403H13.1523C13.3867 14.1206 13.6846 13.9473 14.0459 13.8203C14.4072 13.6934 14.7832 13.6299 15.1738 13.6299C15.8184 13.6299 16.4043 13.7788 16.9316 14.0767C17.459 14.3696 17.874 14.7847 18.1768 15.3218C18.4795 15.8589 18.6309 16.4644 18.6309 17.1382C18.6309 17.8071 18.4771 18.4102 18.1694 18.9473C17.8618 19.4795 17.437 19.897 16.895 20.1997C16.3579 20.4976 15.75 20.6465 15.0713 20.6465Z"/>
</mask>
<path d="M15.0713 20.6465C14.4609 20.6465 13.9067 20.5269 13.4087 20.2876C12.9155 20.0435 12.5249 19.709 12.2368 19.2842C11.9487 18.8594 11.7949 18.3784 11.7754 17.8413H12.7861C12.8105 18.1978 12.9253 18.5176 13.1304 18.8008C13.3354 19.084 13.6064 19.3086 13.9434 19.4746C14.2852 19.6406 14.6611 19.7236 15.0713 19.7236C15.5547 19.7236 15.9893 19.6113 16.375 19.3867C16.7656 19.1621 17.0708 18.8545 17.2905 18.4639C17.5103 18.0732 17.6177 17.6387 17.6128 17.1602C17.6128 16.6621 17.498 16.2178 17.2686 15.8271C17.0439 15.4316 16.7314 15.124 16.3311 14.9043C15.9355 14.6846 15.4937 14.5747 15.0054 14.5747C14.5415 14.5649 14.1338 14.6406 13.7822 14.8018C13.4355 14.958 13.1597 15.207 12.9546 15.5488H11.9146L12.647 9.89453H18.1621V10.8247H13.5186L13.0645 14.3403H13.1523C13.3867 14.1206 13.6846 13.9473 14.0459 13.8203C14.4072 13.6934 14.7832 13.6299 15.1738 13.6299C15.8184 13.6299 16.4043 13.7788 16.9316 14.0767C17.459 14.3696 17.874 14.7847 18.1768 15.3218C18.4795 15.8589 18.6309 16.4644 18.6309 17.1382C18.6309 17.8071 18.4771 18.4102 18.1694 18.9473C17.8618 19.4795 17.437 19.897 16.895 20.1997C16.3579 20.4976 15.75 20.6465 15.0713 20.6465Z" fill="white"/>
<path d="M13.4087 20.2876L13.1868 20.7357L13.1922 20.7383L13.4087 20.2876ZM11.7754 17.8413V17.3413H11.2569L11.2757 17.8595L11.7754 17.8413ZM12.7861 17.8413L13.285 17.8071L13.2531 17.3413H12.7861V17.8413ZM13.9434 19.4746L13.7224 19.9231L13.7249 19.9244L13.9434 19.4746ZM16.375 19.3867L16.1258 18.9533L16.1234 18.9546L16.375 19.3867ZM17.6128 17.1602L17.1128 17.1602L17.1128 17.1653L17.6128 17.1602ZM17.2686 15.8271L16.8337 16.0741L16.8374 16.0804L17.2686 15.8271ZM16.3311 14.9043L16.0882 15.3414L16.0905 15.3426L16.3311 14.9043ZM15.0054 14.5747L14.9948 15.0747H15.0054V14.5747ZM13.7822 14.8018L13.9877 15.2576L13.9906 15.2563L13.7822 14.8018ZM12.9546 15.5488V16.0488H13.2377L13.3833 15.8061L12.9546 15.5488ZM11.9146 15.5488L11.4187 15.4846L11.3456 16.0488H11.9146V15.5488ZM12.647 9.89453V9.39453H12.2076L12.1511 9.8303L12.647 9.89453ZM18.1621 9.89453H18.6621V9.39453H18.1621V9.89453ZM18.1621 10.8247V11.3247H18.6621V10.8247H18.1621ZM13.5186 10.8247V10.3247H13.079L13.0227 10.7607L13.5186 10.8247ZM13.0645 14.3403L12.5686 14.2763L12.4957 14.8403H13.0645V14.3403ZM13.1523 14.3403V14.8403H13.3501L13.4943 14.7051L13.1523 14.3403ZM16.9316 14.0767L16.6857 14.512L16.6888 14.5137L16.9316 14.0767ZM18.1768 15.3218L18.6123 15.0763L18.1768 15.3218ZM18.1694 18.9473L18.6023 19.1975L18.6033 19.1958L18.1694 18.9473ZM16.895 20.1997L17.1375 20.637L17.1388 20.6362L16.895 20.1997ZM15.0713 20.1465C14.528 20.1465 14.0489 20.0404 13.6252 19.8369L13.1922 20.7383C13.7646 21.0133 14.3939 21.1465 15.0713 21.1465V20.1465ZM13.6305 19.8395C13.209 19.6308 12.8868 19.3517 12.6506 19.0035L11.823 19.5648C12.163 20.0662 12.6221 20.4561 13.1869 20.7357L13.6305 19.8395ZM12.6506 19.0035C12.4178 18.6602 12.2913 18.2711 12.2751 17.8231L11.2757 17.8595C11.2985 18.4858 11.4797 19.0586 11.823 19.5648L12.6506 19.0035ZM11.7754 18.3413H12.7861V17.3413H11.7754V18.3413ZM12.2873 17.8755C12.318 18.3232 12.4641 18.7332 12.7254 19.094L13.5353 18.5075C13.3865 18.3019 13.3031 18.0723 13.285 17.8071L12.2873 17.8755ZM12.7254 19.094C12.9818 19.448 13.318 19.7238 13.7224 19.9231L14.1644 19.0261C13.8949 18.8933 13.6891 18.7199 13.5353 18.5075L12.7254 19.094ZM13.7249 19.9244C14.1401 20.126 14.5916 20.2236 15.0713 20.2236V19.2236C14.7307 19.2236 14.4302 19.1552 14.1618 19.0249L13.7249 19.9244ZM15.0713 20.2236C15.6355 20.2236 16.1582 20.0916 16.6266 19.8188L16.1234 18.9546C15.8203 19.1311 15.4739 19.2236 15.0713 19.2236V20.2236ZM16.6242 19.8202C17.0924 19.551 17.4622 19.1785 17.7263 18.709L16.8547 18.2187C16.6794 18.5305 16.4388 18.7732 16.1258 18.9533L16.6242 19.8202ZM17.7263 18.709C17.9919 18.2368 18.1185 17.715 18.1128 17.1551L17.1128 17.1653C17.1169 17.5623 17.0286 17.9096 16.8547 18.2187L17.7263 18.709ZM18.1128 17.1602C18.1128 16.5822 17.9787 16.0488 17.6997 15.5739L16.8374 16.0804C17.0174 16.3868 17.1128 16.7421 17.1128 17.1602H18.1128ZM17.7033 15.5802C17.4328 15.1038 17.0529 14.7301 16.5716 14.466L16.0905 15.3426C16.41 15.518 16.6551 15.7595 16.8338 16.0741L17.7033 15.5802ZM16.5739 14.4672C16.0983 14.203 15.5717 14.0747 15.0054 14.0747V15.0747C15.4156 15.0747 15.7728 15.1662 16.0882 15.3414L16.5739 14.4672ZM15.0159 14.0748C14.4915 14.0638 14.0064 14.149 13.5739 14.3472L13.9906 15.2563C14.2612 15.1323 14.5915 15.0661 14.9948 15.0746L15.0159 14.0748ZM13.5768 14.3459C13.1325 14.5461 12.7807 14.8668 12.5258 15.2916L13.3833 15.8061C13.5386 15.5472 13.7386 15.3699 13.9877 15.2576L13.5768 14.3459ZM12.9546 15.0488H11.9146V16.0488H12.9546V15.0488ZM12.4104 15.6131L13.1428 9.95876L12.1511 9.8303L11.4187 15.4846L12.4104 15.6131ZM12.647 10.3945H18.1621V9.39453H12.647V10.3945ZM17.6621 9.89453V10.8247H18.6621V9.89453H17.6621ZM18.1621 10.3247H13.5186V11.3247H18.1621V10.3247ZM13.0227 10.7607L12.5686 14.2763L13.5603 14.4044L14.0144 10.8888L13.0227 10.7607ZM13.0645 14.8403H13.1523V13.8403H13.0645V14.8403ZM13.4943 14.7051C13.6692 14.5411 13.9035 14.4003 14.2116 14.292L13.8802 13.3486C13.4657 13.4942 13.1042 13.7001 12.8104 13.9756L13.4943 14.7051ZM14.2116 14.292C14.5186 14.1842 14.8385 14.1299 15.1738 14.1299V13.1299C14.7279 13.1299 14.2958 13.2025 13.8802 13.3486L14.2116 14.292ZM15.1738 14.1299C15.7379 14.1299 16.2383 14.2593 16.6857 14.512L17.1775 13.6413C16.5703 13.2983 15.8988 13.1299 15.1738 13.1299V14.1299ZM16.6888 14.5137C17.1336 14.7608 17.4827 15.1087 17.7412 15.5673L18.6123 15.0763C18.2653 14.4606 17.7844 13.9784 17.1745 13.6396L16.6888 14.5137ZM17.7412 15.5673C17.9978 16.0226 18.1309 16.5422 18.1309 17.1382H19.1309C19.1309 16.3865 18.9612 15.6952 18.6123 15.0763L17.7412 15.5673ZM18.1309 17.1382C18.1309 17.7272 17.9964 18.2434 17.7356 18.6988L18.6033 19.1958C18.9577 18.5769 19.1309 17.887 19.1309 17.1382H18.1309ZM17.7365 18.6971C17.4745 19.1505 17.1153 19.5039 16.6512 19.7632L17.1388 20.6362C17.7587 20.29 18.2492 19.8085 18.6023 19.1975L17.7365 18.6971ZM16.6525 19.7624C16.1972 20.0149 15.6743 20.1465 15.0713 20.1465V21.1465C15.8257 21.1465 16.5186 20.9802 17.1375 20.637L16.6525 19.7624Z" fill="white" mask="url(#path-3-outside-1_541_4925)"/>
</svg>
