<svg width="30" height="30" viewBox="0 0 30 30" fill="none" xmlns="http://www.w3.org/2000/svg">
<path d="M29.5 15C29.5 23.0081 23.0081 29.5 15 29.5C6.99187 29.5 0.5 23.0081 0.5 15C0.5 6.99187 6.99187 0.5 15 0.5C23.0081 0.5 29.5 6.99187 29.5 15Z" fill="white" stroke="#D9D9D9"/>
<path d="M15 26.25C21.2132 26.25 26.25 21.2132 26.25 15C26.25 8.7868 21.2132 3.75 15 3.75C8.7868 3.75 3.75 8.7868 3.75 15C3.75 21.2132 8.7868 26.25 15 26.25Z" fill="#9747FF"/>
<mask id="path-3-outside-1_541_4926" maskUnits="userSpaceOnUse" x="10.5" y="8.5" width="9" height="13" fill="black">
<rect fill="white" x="10.5" y="8.5" width="9" height="13"/>
<path d="M15.0776 20.6465C14.4087 20.6416 13.7959 20.4756 13.2393 20.1484C12.6875 19.8164 12.2383 19.2769 11.8916 18.5298C11.5449 17.7827 11.3716 16.8159 11.3716 15.6294C11.3716 14.4429 11.5181 13.4102 11.811 12.5312C12.1089 11.6475 12.5459 10.9639 13.1221 10.4805C13.6982 9.99219 14.4014 9.74805 15.2314 9.74805C15.8223 9.74805 16.3496 9.86523 16.8135 10.0996C17.2773 10.3291 17.6558 10.6562 17.9487 11.0811C18.2417 11.5059 18.4224 11.9966 18.4907 12.5532H17.4653C17.3921 12.187 17.2578 11.8623 17.0625 11.5791C16.8721 11.2959 16.6206 11.0762 16.3081 10.9199C15.9956 10.7637 15.6367 10.6855 15.2314 10.6855C14.626 10.6855 14.1084 10.8613 13.6787 11.2129C13.2539 11.5645 12.9268 12.0796 12.6973 12.7583C12.4727 13.4321 12.3604 14.25 12.3604 15.2119H12.4775C12.6582 14.8994 12.8877 14.6309 13.166 14.4062C13.4443 14.1768 13.7617 13.9985 14.1182 13.8716C14.4746 13.7446 14.8457 13.6812 15.2314 13.6812C15.8418 13.6812 16.4058 13.8325 16.9233 14.1353C17.4458 14.4331 17.8584 14.8457 18.1611 15.373C18.4639 15.9004 18.6152 16.4912 18.6152 17.1455C18.6152 17.79 18.4663 18.3809 18.1685 18.918C17.8706 19.4502 17.4531 19.8726 16.916 20.1851C16.3838 20.4927 15.771 20.6465 15.0776 20.6465ZM15.0776 19.7236C15.5513 19.7236 15.9785 19.6089 16.3594 19.3794C16.7451 19.145 17.0479 18.8325 17.2676 18.4419C17.4922 18.0464 17.6045 17.6191 17.6045 17.1602C17.6045 16.6865 17.4946 16.2568 17.2749 15.8711C17.0552 15.4805 16.7524 15.1729 16.3667 14.9482C15.9858 14.7236 15.5562 14.6113 15.0776 14.6113C14.5991 14.6113 14.1597 14.731 13.7593 14.9702C13.3638 15.2095 13.0537 15.5293 12.8291 15.9297C12.6094 16.3252 12.5117 16.7524 12.5361 17.2114C12.5703 17.6753 12.7021 18.1001 12.9316 18.4858C13.1611 18.8667 13.4614 19.1694 13.8325 19.394C14.2036 19.6138 14.6187 19.7236 15.0776 19.7236Z"/>
</mask>
<path d="M15.0776 20.6465C14.4087 20.6416 13.7959 20.4756 13.2393 20.1484C12.6875 19.8164 12.2383 19.2769 11.8916 18.5298C11.5449 17.7827 11.3716 16.8159 11.3716 15.6294C11.3716 14.4429 11.5181 13.4102 11.811 12.5312C12.1089 11.6475 12.5459 10.9639 13.1221 10.4805C13.6982 9.99219 14.4014 9.74805 15.2314 9.74805C15.8223 9.74805 16.3496 9.86523 16.8135 10.0996C17.2773 10.3291 17.6558 10.6562 17.9487 11.0811C18.2417 11.5059 18.4224 11.9966 18.4907 12.5532H17.4653C17.3921 12.187 17.2578 11.8623 17.0625 11.5791C16.8721 11.2959 16.6206 11.0762 16.3081 10.9199C15.9956 10.7637 15.6367 10.6855 15.2314 10.6855C14.626 10.6855 14.1084 10.8613 13.6787 11.2129C13.2539 11.5645 12.9268 12.0796 12.6973 12.7583C12.4727 13.4321 12.3604 14.25 12.3604 15.2119H12.4775C12.6582 14.8994 12.8877 14.6309 13.166 14.4062C13.4443 14.1768 13.7617 13.9985 14.1182 13.8716C14.4746 13.7446 14.8457 13.6812 15.2314 13.6812C15.8418 13.6812 16.4058 13.8325 16.9233 14.1353C17.4458 14.4331 17.8584 14.8457 18.1611 15.373C18.4639 15.9004 18.6152 16.4912 18.6152 17.1455C18.6152 17.79 18.4663 18.3809 18.1685 18.918C17.8706 19.4502 17.4531 19.8726 16.916 20.1851C16.3838 20.4927 15.771 20.6465 15.0776 20.6465ZM15.0776 19.7236C15.5513 19.7236 15.9785 19.6089 16.3594 19.3794C16.7451 19.145 17.0479 18.8325 17.2676 18.4419C17.4922 18.0464 17.6045 17.6191 17.6045 17.1602C17.6045 16.6865 17.4946 16.2568 17.2749 15.8711C17.0552 15.4805 16.7524 15.1729 16.3667 14.9482C15.9858 14.7236 15.5562 14.6113 15.0776 14.6113C14.5991 14.6113 14.1597 14.731 13.7593 14.9702C13.3638 15.2095 13.0537 15.5293 12.8291 15.9297C12.6094 16.3252 12.5117 16.7524 12.5361 17.2114C12.5703 17.6753 12.7021 18.1001 12.9316 18.4858C13.1611 18.8667 13.4614 19.1694 13.8325 19.394C14.2036 19.6138 14.6187 19.7236 15.0776 19.7236Z" fill="white"/>
<path d="M15.0776 20.6465L15.074 21.1465H15.0776V20.6465ZM13.2393 20.1484L12.9814 20.5769L12.9859 20.5795L13.2393 20.1484ZM11.811 12.5312L11.3372 12.3716L11.3367 12.3731L11.811 12.5312ZM13.1221 10.4805L13.4434 10.8635L13.4453 10.8619L13.1221 10.4805ZM16.8135 10.0996L16.588 10.5459L16.5918 10.5478L16.8135 10.0996ZM18.4907 12.5532V13.0532H19.0559L18.987 12.4923L18.4907 12.5532ZM17.4653 12.5532L16.975 12.6513L17.0554 13.0532H17.4653V12.5532ZM17.0625 11.5791L16.6475 11.8581L16.6509 11.863L17.0625 11.5791ZM13.6787 11.2129L13.3621 10.8259L13.3599 10.8277L13.6787 11.2129ZM12.6973 12.7583L12.2236 12.5981L12.2229 12.6002L12.6973 12.7583ZM12.3604 15.2119H11.8604V15.7119H12.3604V15.2119ZM12.4775 15.2119V15.7119H12.766L12.9104 15.4622L12.4775 15.2119ZM13.166 14.4062L13.48 14.7954L13.4841 14.792L13.166 14.4062ZM16.9233 14.1353L16.6709 14.5669L16.6757 14.5696L16.9233 14.1353ZM18.1611 15.373L18.5948 15.1241L18.1611 15.373ZM18.1685 18.918L18.6048 19.1622L18.6057 19.1605L18.1685 18.918ZM16.916 20.1851L17.1662 20.618L17.1675 20.6172L16.916 20.1851ZM16.3594 19.3794L16.6174 19.8077L16.619 19.8067L16.3594 19.3794ZM17.2676 18.4419L16.8328 18.195L16.8318 18.1968L17.2676 18.4419ZM17.2749 15.8711L16.8391 16.1162L16.8404 16.1186L17.2749 15.8711ZM16.3667 14.9482L16.1127 15.3789L16.1151 15.3803L16.3667 14.9482ZM13.7593 14.9702L13.5028 14.541L13.5005 14.5424L13.7593 14.9702ZM12.8291 15.9297L12.393 15.6851L12.392 15.6869L12.8291 15.9297ZM12.5361 17.2114L12.0367 17.238L12.0375 17.2482L12.5361 17.2114ZM12.9316 18.4858L12.5019 18.7415L12.5034 18.7439L12.9316 18.4858ZM13.8325 19.394L13.5736 19.8218L13.5778 19.8243L13.8325 19.394ZM15.0813 20.1465C14.4969 20.1422 13.9707 19.9984 13.4926 19.7174L12.9859 20.5795C13.6211 20.9528 14.3205 21.141 15.074 21.1465L15.0813 20.1465ZM13.4971 19.72C13.0519 19.4521 12.6615 19.001 12.3451 18.3193L11.4381 18.7403C11.8151 19.5527 12.3231 20.1807 12.9815 20.5768L13.4971 19.72ZM12.3451 18.3193C12.0395 17.6606 11.8716 16.7729 11.8716 15.6294H10.8716C10.8716 16.859 11.0504 17.9048 11.4381 18.7403L12.3451 18.3193ZM11.8716 15.6294C11.8716 14.4823 12.0134 13.5053 12.2854 12.6894L11.3367 12.3731C11.0227 13.315 10.8716 14.4034 10.8716 15.6294H11.8716ZM12.2849 12.6909C12.5604 11.8734 12.9527 11.2752 13.4434 10.8635L12.8007 10.0974C12.1391 10.6525 11.6574 11.4215 11.3372 12.3716L12.2849 12.6909ZM13.4453 10.8619C13.922 10.4579 14.5072 10.248 15.2314 10.248V9.24805C14.2956 9.24805 13.4745 9.52644 12.7988 10.099L13.4453 10.8619ZM15.2314 10.248C15.7547 10.248 16.2031 10.3514 16.588 10.5459L17.039 9.65334C16.4961 9.37908 15.8898 9.24805 15.2314 9.24805V10.248ZM16.5918 10.5478C16.9796 10.7397 17.2926 11.0104 17.5371 11.3649L18.3603 10.7972C18.0189 10.3021 17.5751 9.91855 17.0352 9.65146L16.5918 10.5478ZM17.5371 11.3649C17.7804 11.7177 17.935 12.1305 17.9945 12.6142L18.987 12.4923C18.9097 11.8627 18.703 11.294 18.3603 10.7972L17.5371 11.3649ZM18.4907 12.0532H17.4653V13.0532H18.4907V12.0532ZM17.9556 12.4552C17.8702 12.0281 17.7112 11.639 17.4741 11.2952L16.6509 11.863C16.8044 12.0856 16.914 12.346 16.975 12.6513L17.9556 12.4552ZM17.4774 11.3001C17.2376 10.9435 16.9195 10.6666 16.5317 10.4727L16.0845 11.3671C16.3217 11.4857 16.5065 11.6483 16.6476 11.8581L17.4774 11.3001ZM16.5317 10.4727C16.1395 10.2766 15.7019 10.1855 15.2314 10.1855V11.1855C15.5715 11.1855 15.8517 11.2508 16.0845 11.3671L16.5317 10.4727ZM15.2314 10.1855C14.5217 10.1855 13.8894 10.3945 13.3621 10.8259L13.9953 11.5999C14.3274 11.3282 14.7302 11.1855 15.2314 11.1855V10.1855ZM13.3599 10.8277C12.8452 11.2537 12.4741 11.8573 12.2236 12.5981L13.1709 12.9185C13.3794 12.3019 13.6626 11.8752 13.9975 11.5981L13.3599 10.8277ZM12.2229 12.6002C11.9765 13.3395 11.8604 14.214 11.8604 15.2119H12.8604C12.8604 14.286 12.9688 13.5248 13.1716 12.9164L12.2229 12.6002ZM12.3604 15.7119H12.4775V14.7119H12.3604V15.7119ZM12.9104 15.4622C13.0606 15.2024 13.25 14.981 13.48 14.7953L12.852 14.0172C12.5254 14.2807 12.2558 14.5965 12.0447 14.9617L12.9104 15.4622ZM13.4841 14.792C13.7155 14.6012 13.9815 14.451 14.2859 14.3426L13.9504 13.4006C13.542 13.546 13.1732 13.7523 12.8479 14.0205L13.4841 14.792ZM14.2859 14.3426C14.5875 14.2352 14.9017 14.1812 15.2314 14.1812V13.1812C14.7897 13.1812 14.3618 13.2541 13.9504 13.4006L14.2859 14.3426ZM15.2314 14.1812C15.7547 14.1812 16.2313 14.3097 16.6709 14.5668L17.1758 13.7037C16.5802 13.3553 15.9289 13.1812 15.2314 13.1812V14.1812ZM16.6757 14.5696C17.1199 14.8228 17.4686 15.171 17.7275 15.622L18.5948 15.1241C18.2482 14.5204 17.7717 14.0434 17.171 13.7009L16.6757 14.5696ZM17.7275 15.622C17.9835 16.0678 18.1152 16.5717 18.1152 17.1455H19.1152C19.1152 16.4107 18.9443 15.7329 18.5948 15.1241L17.7275 15.622ZM18.1152 17.1455C18.1152 17.7095 17.9858 18.2163 17.7312 18.6755L18.6057 19.1605C18.9468 18.5454 19.1152 17.8705 19.1152 17.1455H18.1152ZM17.7321 18.6738C17.4788 19.1264 17.1259 19.4845 16.6646 19.7529L17.1675 20.6172C17.7804 20.2606 18.2624 19.774 18.6048 19.1621L17.7321 18.6738ZM16.6658 19.7522C16.219 20.0104 15.6946 20.1465 15.0776 20.1465V21.1465C15.8474 21.1465 16.5486 20.9749 17.1662 20.618L16.6658 19.7522ZM15.0776 20.2236C15.636 20.2236 16.1536 20.0872 16.6174 19.8077L16.1013 18.9511C15.8035 19.1306 15.4665 19.2236 15.0776 19.2236V20.2236ZM16.619 19.8067C17.0776 19.5281 17.4412 19.1531 17.7034 18.687L16.8318 18.1968C16.6545 18.512 16.4126 18.762 16.0997 18.9521L16.619 19.8067ZM17.7024 18.6888C17.9701 18.2173 18.1045 17.7049 18.1045 17.1602H17.1045C17.1045 17.5334 17.0143 17.8755 16.8328 18.195L17.7024 18.6888ZM18.1045 17.1602C18.1045 16.6057 17.9749 16.0898 17.7094 15.6236L16.8404 16.1186C17.0143 16.4239 17.1045 16.7673 17.1045 17.1602H18.1045ZM17.7107 15.626C17.4475 15.1581 17.0813 14.7858 16.6183 14.5162L16.1151 15.3803C16.4236 15.5599 16.6629 15.8029 16.8391 16.1162L17.7107 15.626ZM16.6207 14.5176C16.1566 14.2439 15.6379 14.1113 15.0776 14.1113V15.1113C15.4744 15.1113 15.8151 15.2034 16.1127 15.3789L16.6207 14.5176ZM15.0776 14.1113C14.5113 14.1113 13.9828 14.2542 13.5028 14.541L14.0158 15.3994C14.3365 15.2077 14.687 15.1113 15.0776 15.1113V14.1113ZM13.5005 14.5424C13.0316 14.8261 12.6602 15.2088 12.393 15.6851L13.2652 16.1743C13.4472 15.8498 13.696 15.5929 14.0181 15.398L13.5005 14.5424ZM12.392 15.6869C12.1259 16.1659 12.0075 16.6867 12.0368 17.238L13.0354 17.1849C13.0159 16.8182 13.0929 16.4845 13.2662 16.1725L12.392 15.6869ZM12.0375 17.2482C12.0771 17.7865 12.2313 18.2867 12.5019 18.7415L13.3613 18.2302C13.173 17.9135 13.0635 17.5641 13.0348 17.1747L12.0375 17.2482ZM12.5034 18.7439C12.7736 19.1924 13.1314 19.5541 13.5736 19.8218L14.0914 18.9663C13.7915 18.7848 13.5486 18.541 13.3599 18.2278L12.5034 18.7439ZM13.5778 19.8243C14.031 20.0926 14.535 20.2236 15.0776 20.2236V19.2236C14.7023 19.2236 14.3762 19.1349 14.0873 18.9638L13.5778 19.8243Z" fill="white" mask="url(#path-3-outside-1_541_4926)"/>
</svg>
