<svg width="30" height="30" viewBox="0 0 30 30" fill="none" xmlns="http://www.w3.org/2000/svg">
<path d="M29.5 15C29.5 23.0081 23.0081 29.5 15 29.5C6.99187 29.5 0.5 23.0081 0.5 15C0.5 6.99187 6.99187 0.5 15 0.5C23.0081 0.5 29.5 6.99187 29.5 15Z" fill="white" stroke="#D9D9D9"/>
<path d="M15 26.25C21.2132 26.25 26.25 21.2132 26.25 15C26.25 8.7868 21.2132 3.75 15 3.75C8.7868 3.75 3.75 8.7868 3.75 15C3.75 21.2132 8.7868 26.25 15 26.25Z" fill="#9747FF"/>
<mask id="path-3-outside-1_541_4927" maskUnits="userSpaceOnUse" x="11.5" y="8.75" width="8" height="13" fill="black">
<rect fill="white" x="11.5" y="8.75" width="8" height="13"/>
<path d="M17.8135 11.1406V11.0747H12.1152V10.1445H18.9048V11.1187L13.9609 20.75H12.8696L17.8135 11.1406Z"/>
</mask>
<path d="M17.8135 11.1406V11.0747H12.1152V10.1445H18.9048V11.1187L13.9609 20.75H12.8696L17.8135 11.1406Z" fill="white"/>
<path d="M17.8135 11.1406L18.2581 11.3694L18.3135 11.2617V11.1406H17.8135ZM17.8135 11.0747H18.3135V10.5747H17.8135V11.0747ZM12.1152 11.0747H11.6152V11.5747H12.1152V11.0747ZM12.1152 10.1445V9.64453H11.6152V10.1445H12.1152ZM18.9048 10.1445H19.4048V9.64453H18.9048V10.1445ZM18.9048 11.1187L19.3496 11.347L19.4048 11.2395V11.1187H18.9048ZM13.9609 20.75V21.25H14.2663L14.4058 20.9783L13.9609 20.75ZM12.8696 20.75L12.425 20.5213L12.0501 21.25H12.8696V20.75ZM18.3135 11.1406V11.0747H17.3135V11.1406H18.3135ZM17.8135 10.5747H12.1152V11.5747H17.8135V10.5747ZM12.6152 11.0747V10.1445H11.6152V11.0747H12.6152ZM12.1152 10.6445H18.9048V9.64453H12.1152V10.6445ZM18.4048 10.1445V11.1187H19.4048V10.1445H18.4048ZM18.46 10.8903L13.5161 20.5217L14.4058 20.9783L19.3496 11.347L18.46 10.8903ZM13.9609 20.25H12.8696V21.25H13.9609V20.25ZM13.3142 20.9787L18.2581 11.3694L17.3689 10.9119L12.425 20.5213L13.3142 20.9787Z" fill="white" mask="url(#path-3-outside-1_541_4927)"/>
</svg>
