<svg width="30" height="30" viewBox="0 0 30 30" fill="none" xmlns="http://www.w3.org/2000/svg">
<path d="M29.5 15C29.5 23.0081 23.0081 29.5 15 29.5C6.99187 29.5 0.5 23.0081 0.5 15C0.5 6.99187 6.99187 0.5 15 0.5C23.0081 0.5 29.5 6.99187 29.5 15Z" fill="white" stroke="#D9D9D9"/>
<path d="M15 26.25C21.2132 26.25 26.25 21.2132 26.25 15C26.25 8.7868 21.2132 3.75 15 3.75C8.7868 3.75 3.75 8.7868 3.75 15C3.75 21.2132 8.7868 26.25 15 26.25Z" fill="#9747FF"/>
<mask id="path-3-outside-1_541_4928" maskUnits="userSpaceOnUse" x="10.5" y="8.25" width="9" height="13" fill="black">
<rect fill="white" x="10.5" y="8.25" width="9" height="13"/>
<path d="M14.9971 20.3965C14.2939 20.3965 13.6616 20.2695 13.1001 20.0156C12.5435 19.7568 12.1064 19.4053 11.7891 18.9609C11.4766 18.5117 11.3203 18.0112 11.3203 17.4595C11.3203 17.02 11.4155 16.6074 11.606 16.2217C11.7964 15.8311 12.0601 15.5063 12.397 15.2476C12.7388 14.9888 13.1147 14.8252 13.5249 14.7568V14.6982C13.1733 14.6006 12.8608 14.437 12.5874 14.2075C12.314 13.9731 12.1016 13.6875 11.9502 13.3506C11.7988 13.0137 11.7231 12.6548 11.7231 12.2739C11.7231 11.7515 11.8672 11.2778 12.1553 10.853C12.4434 10.4282 12.834 10.0962 13.3271 9.85693C13.8252 9.61768 14.3818 9.49805 14.9971 9.49805C15.6074 9.49805 16.1641 9.61768 16.667 9.85693C17.1699 10.0913 17.5654 10.4233 17.8535 10.853C18.1416 11.2778 18.2856 11.7515 18.2856 12.2739C18.2856 12.6548 18.2075 13.0137 18.0513 13.3506C17.895 13.6875 17.6802 13.9731 17.4067 14.2075C17.1333 14.437 16.8208 14.6006 16.4692 14.6982V14.7568C16.8843 14.8203 17.2578 14.9839 17.5898 15.2476C17.9268 15.5063 18.1929 15.8311 18.3882 16.2217C18.5835 16.6074 18.6812 17.02 18.6812 17.4595C18.6812 18.0112 18.5225 18.5117 18.2051 18.9609C17.8877 19.4053 17.4482 19.7568 16.8867 20.0156C16.3301 20.2695 15.7002 20.3965 14.9971 20.3965ZM14.9971 19.4736C15.5146 19.4736 15.9736 19.3857 16.374 19.21C16.7793 19.0293 17.0918 18.7827 17.3115 18.4702C17.5312 18.1528 17.6411 17.7964 17.6411 17.4009C17.6411 16.9907 17.5264 16.6196 17.2969 16.2876C17.0723 15.9556 16.7573 15.6943 16.3521 15.5039C15.9468 15.3135 15.4951 15.2183 14.9971 15.2183C14.499 15.2183 14.0474 15.3135 13.6421 15.5039C13.2417 15.6943 12.9268 15.9556 12.6973 16.2876C12.4678 16.6196 12.3555 16.9907 12.3604 17.4009C12.3555 17.7964 12.4629 18.1528 12.6826 18.4702C12.9072 18.7827 13.2197 19.0293 13.6201 19.21C14.0205 19.3857 14.4795 19.4736 14.9971 19.4736ZM14.9971 14.332C15.4219 14.332 15.8076 14.2466 16.1543 14.0757C16.5059 13.9048 16.7793 13.668 16.9746 13.3652C17.1699 13.0625 17.2676 12.7256 17.2676 12.3545C17.2676 11.9736 17.1699 11.6367 16.9746 11.3438C16.7842 11.0508 16.5156 10.8237 16.1689 10.6626C15.8223 10.4966 15.4316 10.4136 14.9971 10.4136C14.5625 10.4136 14.1719 10.4966 13.8252 10.6626C13.4785 10.8237 13.2075 11.0508 13.0122 11.3438C12.8218 11.6367 12.7266 11.9736 12.7266 12.3545C12.7266 12.7256 12.8267 13.0625 13.0269 13.3652C13.2271 13.668 13.498 13.9048 13.8398 14.0757C14.1865 14.2466 14.5723 14.332 14.9971 14.332Z"/>
</mask>
<path d="M14.9971 20.3965C14.2939 20.3965 13.6616 20.2695 13.1001 20.0156C12.5435 19.7568 12.1064 19.4053 11.7891 18.9609C11.4766 18.5117 11.3203 18.0112 11.3203 17.4595C11.3203 17.02 11.4155 16.6074 11.606 16.2217C11.7964 15.8311 12.0601 15.5063 12.397 15.2476C12.7388 14.9888 13.1147 14.8252 13.5249 14.7568V14.6982C13.1733 14.6006 12.8608 14.437 12.5874 14.2075C12.314 13.9731 12.1016 13.6875 11.9502 13.3506C11.7988 13.0137 11.7231 12.6548 11.7231 12.2739C11.7231 11.7515 11.8672 11.2778 12.1553 10.853C12.4434 10.4282 12.834 10.0962 13.3271 9.85693C13.8252 9.61768 14.3818 9.49805 14.9971 9.49805C15.6074 9.49805 16.1641 9.61768 16.667 9.85693C17.1699 10.0913 17.5654 10.4233 17.8535 10.853C18.1416 11.2778 18.2856 11.7515 18.2856 12.2739C18.2856 12.6548 18.2075 13.0137 18.0513 13.3506C17.895 13.6875 17.6802 13.9731 17.4067 14.2075C17.1333 14.437 16.8208 14.6006 16.4692 14.6982V14.7568C16.8843 14.8203 17.2578 14.9839 17.5898 15.2476C17.9268 15.5063 18.1929 15.8311 18.3882 16.2217C18.5835 16.6074 18.6812 17.02 18.6812 17.4595C18.6812 18.0112 18.5225 18.5117 18.2051 18.9609C17.8877 19.4053 17.4482 19.7568 16.8867 20.0156C16.3301 20.2695 15.7002 20.3965 14.9971 20.3965ZM14.9971 19.4736C15.5146 19.4736 15.9736 19.3857 16.374 19.21C16.7793 19.0293 17.0918 18.7827 17.3115 18.4702C17.5312 18.1528 17.6411 17.7964 17.6411 17.4009C17.6411 16.9907 17.5264 16.6196 17.2969 16.2876C17.0723 15.9556 16.7573 15.6943 16.3521 15.5039C15.9468 15.3135 15.4951 15.2183 14.9971 15.2183C14.499 15.2183 14.0474 15.3135 13.6421 15.5039C13.2417 15.6943 12.9268 15.9556 12.6973 16.2876C12.4678 16.6196 12.3555 16.9907 12.3604 17.4009C12.3555 17.7964 12.4629 18.1528 12.6826 18.4702C12.9072 18.7827 13.2197 19.0293 13.6201 19.21C14.0205 19.3857 14.4795 19.4736 14.9971 19.4736ZM14.9971 14.332C15.4219 14.332 15.8076 14.2466 16.1543 14.0757C16.5059 13.9048 16.7793 13.668 16.9746 13.3652C17.1699 13.0625 17.2676 12.7256 17.2676 12.3545C17.2676 11.9736 17.1699 11.6367 16.9746 11.3438C16.7842 11.0508 16.5156 10.8237 16.1689 10.6626C15.8223 10.4966 15.4316 10.4136 14.9971 10.4136C14.5625 10.4136 14.1719 10.4966 13.8252 10.6626C13.4785 10.8237 13.2075 11.0508 13.0122 11.3438C12.8218 11.6367 12.7266 11.9736 12.7266 12.3545C12.7266 12.7256 12.8267 13.0625 13.0269 13.3652C13.2271 13.668 13.498 13.9048 13.8398 14.0757C14.1865 14.2466 14.5723 14.332 14.9971 14.332Z" fill="white"/>
<path d="M13.1001 20.0156L12.8893 20.469L12.8941 20.4712L13.1001 20.0156ZM11.7891 18.9609L11.3786 19.2465L11.3822 19.2516L11.7891 18.9609ZM11.606 16.2217L12.0543 16.443L12.0554 16.4408L11.606 16.2217ZM12.397 15.2476L12.0951 14.8489L12.0924 14.851L12.397 15.2476ZM13.5249 14.7568L13.6071 15.25L14.0249 15.1804V14.7568H13.5249ZM13.5249 14.6982H14.0249V14.3182L13.6587 14.2165L13.5249 14.6982ZM12.5874 14.2075L12.262 14.5872L12.266 14.5905L12.5874 14.2075ZM13.3271 9.85693L13.1106 9.40624L13.1089 9.40708L13.3271 9.85693ZM16.667 9.85693L16.4522 10.3085L16.4558 10.3101L16.667 9.85693ZM17.8535 10.853L17.4382 11.1315L17.4397 11.1337L17.8535 10.853ZM18.0513 13.3506L18.5049 13.5609L18.0513 13.3506ZM17.4067 14.2075L17.7282 14.5905L17.7321 14.5871L17.4067 14.2075ZM16.4692 14.6982L16.3354 14.2165L15.9692 14.3182V14.6982H16.4692ZM16.4692 14.7568H15.9692V15.1862L16.3936 15.2511L16.4692 14.7568ZM17.5898 15.2476L17.2789 15.6392L17.2853 15.6441L17.5898 15.2476ZM18.3882 16.2217L17.941 16.4453L17.9421 16.4475L18.3882 16.2217ZM18.2051 18.9609L18.612 19.2516L18.6134 19.2495L18.2051 18.9609ZM16.8867 20.0156L17.0942 20.4705L17.096 20.4697L16.8867 20.0156ZM16.374 19.21L16.575 19.6678L16.5776 19.6666L16.374 19.21ZM17.3115 18.4702L17.7205 18.7578L17.7226 18.7548L17.3115 18.4702ZM17.2969 16.2876L16.8827 16.5678L16.8856 16.5719L17.2969 16.2876ZM13.6421 15.5039L13.4295 15.0514L13.4273 15.0524L13.6421 15.5039ZM12.6973 16.2876L12.286 16.0033L12.6973 16.2876ZM12.3604 17.4009L12.8605 17.4071L12.8603 17.3949L12.3604 17.4009ZM12.6826 18.4702L12.2715 18.7549L12.2766 18.762L12.6826 18.4702ZM13.6201 19.21L13.4145 19.6657L13.4191 19.6678L13.6201 19.21ZM16.1543 14.0757L15.9357 13.626L15.9332 13.6272L16.1543 14.0757ZM16.9746 11.3438L16.5554 11.6163L16.5586 11.6211L16.9746 11.3438ZM16.1689 10.6626L15.953 11.1136L15.9582 11.116L16.1689 10.6626ZM13.8252 10.6626L14.036 11.116L14.0411 11.1136L13.8252 10.6626ZM13.0122 11.3438L12.5962 11.0664L12.593 11.0713L13.0122 11.3438ZM13.8398 14.0757L13.6162 14.5229L13.6188 14.5242L13.8398 14.0757ZM14.9971 19.8965C14.355 19.8965 13.7944 19.7808 13.3061 19.56L12.8941 20.4712C13.5289 20.7582 14.2329 20.8965 14.9971 20.8965V19.8965ZM13.3109 19.5622C12.8227 19.3352 12.4571 19.036 12.1959 18.6703L11.3822 19.2516C11.7558 19.7746 12.2643 20.1784 12.8893 20.469L13.3109 19.5622ZM12.1995 18.6754C11.9458 18.3107 11.8203 17.91 11.8203 17.4595H10.8203C10.8203 18.1124 11.0073 18.7127 11.3786 19.2465L12.1995 18.6754ZM11.8203 17.4595C11.8203 17.0951 11.8986 16.7584 12.0543 16.443L11.1576 16.0003C10.9325 16.4564 10.8203 16.945 10.8203 17.4595H11.8203ZM12.0554 16.4408C12.2127 16.1181 12.4274 15.8546 12.7016 15.6441L12.0924 14.851C11.6927 15.1581 11.3801 15.5441 11.1565 16.0026L12.0554 16.4408ZM12.6988 15.6462C12.9782 15.4346 13.2793 15.3047 13.6071 15.25L13.4427 14.2636C12.9502 14.3457 12.4994 14.5429 12.0952 14.8489L12.6988 15.6462ZM14.0249 14.7568V14.6982H13.0249V14.7568H14.0249ZM13.6587 14.2165C13.3745 14.1375 13.1263 14.007 12.9088 13.8245L12.266 14.5905C12.5954 14.867 12.9722 15.0636 13.3911 15.18L13.6587 14.2165ZM12.9128 13.8279C12.6967 13.6427 12.5283 13.4172 12.4063 13.1457L11.4941 13.5555C11.6749 13.9578 11.9312 14.3036 12.262 14.5871L12.9128 13.8279ZM12.4063 13.1457C12.2848 12.8752 12.2231 12.5864 12.2231 12.2739H11.2231C11.2231 12.7232 11.3129 13.1521 11.4941 13.5555L12.4063 13.1457ZM12.2231 12.2739C12.2231 11.8496 12.3382 11.4741 12.5691 11.1337L11.7415 10.5724C11.3961 11.0816 11.2231 11.6533 11.2231 12.2739H12.2231ZM12.5691 11.1337C12.8046 10.7864 13.1256 10.5105 13.5454 10.3068L13.1089 9.40708C12.5424 9.68192 12.0821 10.0701 11.7415 10.5724L12.5691 11.1337ZM13.5437 10.3076C13.9668 10.1043 14.4482 9.99805 14.9971 9.99805V8.99805C14.3155 8.99805 13.6836 9.131 13.1106 9.40624L13.5437 10.3076ZM14.9971 9.99805C15.5403 9.99805 16.0226 10.1041 16.4522 10.3084L16.8818 9.40542C16.3055 9.13128 15.6745 8.99805 14.9971 8.99805V9.99805ZM16.4558 10.3101C16.8822 10.5089 17.2046 10.7831 17.4382 11.1315L18.2688 10.5746C17.9262 10.0636 17.4576 9.67374 16.8782 9.40373L16.4558 10.3101ZM17.4397 11.1337C17.6706 11.4741 17.7856 11.8496 17.7856 12.2739H18.7856C18.7856 11.6533 18.6126 11.0816 18.2673 10.5724L17.4397 11.1337ZM17.7856 12.2739C17.7856 12.584 17.7226 12.8709 17.5977 13.1402L18.5049 13.5609C18.6925 13.1564 18.7856 12.7255 18.7856 12.2739H17.7856ZM17.5977 13.1402C17.4706 13.4143 17.2987 13.6416 17.0813 13.8279L17.7321 14.5871C18.0616 14.3047 18.3195 13.9607 18.5049 13.5609L17.5977 13.1402ZM17.0853 13.8245C16.8679 14.007 16.6197 14.1375 16.3354 14.2165L16.6031 15.18C17.0219 15.0636 17.3987 14.867 17.7282 14.5905L17.0853 13.8245ZM15.9692 14.6982V14.7568H16.9692V14.6982H15.9692ZM16.3936 15.2511C16.7218 15.3013 17.0143 15.429 17.2789 15.6391L17.9008 14.856C17.5013 14.5388 17.0468 14.3394 16.5448 14.2626L16.3936 15.2511ZM17.2853 15.6441C17.5604 15.8555 17.7785 16.1204 17.941 16.4453L18.8354 15.9981C18.6072 15.5417 18.2931 15.1572 17.8944 14.851L17.2853 15.6441ZM17.9421 16.4475C18.1014 16.7621 18.1812 17.0972 18.1812 17.4595H19.1812C19.1812 16.9429 19.0656 16.4528 18.8343 15.9958L17.9421 16.4475ZM18.1812 17.4595C18.1812 17.9082 18.0543 18.3079 17.7967 18.6724L18.6134 19.2495C18.9906 18.7156 19.1812 18.1142 19.1812 17.4595H18.1812ZM17.7982 18.6703C17.5378 19.035 17.1706 19.3342 16.6774 19.5615L17.096 20.4697C17.7258 20.1794 18.2376 19.7756 18.6119 19.2516L17.7982 18.6703ZM16.6792 19.5607C16.1968 19.7808 15.6392 19.8965 14.9971 19.8965V20.8965C15.7611 20.8965 16.4634 20.7583 17.0942 20.4705L16.6792 19.5607ZM14.9971 19.9736C15.5713 19.9736 16.1007 19.876 16.575 19.6678L16.173 18.7521C15.8465 18.8955 15.458 18.9736 14.9971 18.9736V19.9736ZM16.5776 19.6666C17.0519 19.4552 17.441 19.1554 17.7205 18.7578L16.9025 18.1826C16.7426 18.41 16.5067 18.6034 16.1704 18.7533L16.5776 19.6666ZM17.7226 18.7548C18.0017 18.3517 18.1411 17.8954 18.1411 17.4009H17.1411C17.1411 17.6973 17.0608 17.954 16.9004 18.1856L17.7226 18.7548ZM18.1411 17.4009C18.1411 16.8909 17.9964 16.4203 17.7082 16.0033L16.8856 16.5719C17.0563 16.8189 17.1411 17.0905 17.1411 17.4009H18.1411ZM17.711 16.0074C17.4303 15.5924 17.0416 15.2755 16.5647 15.0514L16.1394 15.9564C16.473 16.1132 16.7143 16.3187 16.8827 16.5678L17.711 16.0074ZM16.5647 15.0514C16.0857 14.8263 15.5603 14.7183 14.9971 14.7183V15.7183C15.4299 15.7183 15.8078 15.8006 16.1394 15.9564L16.5647 15.0514ZM14.9971 14.7183C14.4338 14.7183 13.9084 14.8263 13.4295 15.0514L13.8547 15.9564C14.1863 15.8006 14.5642 15.7183 14.9971 15.7183V14.7183ZM13.4273 15.0524C12.9559 15.2766 12.57 15.5923 12.286 16.0033L13.1086 16.5719C13.2835 16.3188 13.5275 16.1121 13.8568 15.9554L13.4273 15.0524ZM12.286 16.0033C11.9965 16.422 11.8543 16.8949 11.8604 17.4068L12.8603 17.3949C12.8566 17.0866 12.939 16.8172 13.1086 16.5719L12.286 16.0033ZM11.8604 17.3947C11.8543 17.8913 11.9912 18.3499 12.2715 18.7548L13.0937 18.1856C12.9346 17.9558 12.8567 17.7015 12.8603 17.4071L11.8604 17.3947ZM12.2766 18.762C12.5593 19.1554 12.9456 19.4541 13.4145 19.6657L13.8258 18.7542C13.4939 18.6045 13.2551 18.41 13.0886 18.1784L12.2766 18.762ZM13.4191 19.6678C13.8934 19.876 14.4228 19.9736 14.9971 19.9736V18.9736C14.5362 18.9736 14.1476 18.8955 13.8211 18.7521L13.4191 19.6678ZM14.9971 14.832C15.4908 14.832 15.9533 14.7322 16.3754 14.5242L15.9332 13.6272C15.6619 13.761 15.3529 13.832 14.9971 13.832V14.832ZM16.3729 14.5254C16.7995 14.318 17.1457 14.0224 17.3948 13.6363L16.5545 13.0942C16.4129 13.3136 16.2123 13.4916 15.9357 13.626L16.3729 14.5254ZM17.3948 13.6363C17.6438 13.2502 17.7676 12.8187 17.7676 12.3545H16.7676C16.7676 12.6325 16.696 12.8748 16.5545 13.0942L17.3948 13.6363ZM17.7676 12.3545C17.7676 11.8834 17.6452 11.4483 17.3906 11.0664L16.5586 11.6211C16.6946 11.8252 16.7676 12.0639 16.7676 12.3545H17.7676ZM17.3938 11.0713C17.1475 10.6923 16.8032 10.406 16.3797 10.2092L15.9582 11.116C16.2281 11.2415 16.4209 11.4093 16.5554 11.6162L17.3938 11.0713ZM16.3849 10.2116C15.9625 10.0094 15.4966 9.91357 14.9971 9.91357V10.9136C15.3667 10.9136 15.682 10.9838 15.953 11.1136L16.3849 10.2116ZM14.9971 9.91357C14.4976 9.91357 14.0317 10.0094 13.6092 10.2116L14.0411 11.1136C14.3121 10.9838 14.6274 10.9136 14.9971 10.9136V9.91357ZM13.6145 10.2092C13.1919 10.4056 12.8468 10.6905 12.5962 11.0664L13.4282 11.6211C13.5682 11.4111 13.7652 11.2419 14.0359 11.116L13.6145 10.2092ZM12.593 11.0713C12.3451 11.4526 12.2266 11.886 12.2266 12.3545H13.2266C13.2266 12.0613 13.2984 11.8208 13.4314 11.6162L12.593 11.0713ZM12.2266 12.3545C12.2266 12.8213 12.3542 13.2546 12.6098 13.641L13.4439 13.0894C13.2991 12.8704 13.2266 12.6298 13.2266 12.3545H12.2266ZM12.6098 13.641C12.8609 14.0208 13.2004 14.315 13.6162 14.5229L14.0635 13.6285C13.7957 13.4946 13.5932 13.3151 13.4439 13.0894L12.6098 13.641ZM13.6188 14.5242C14.0408 14.7322 14.5033 14.832 14.9971 14.832V13.832C14.6412 13.832 14.3322 13.761 14.0609 13.6272L13.6188 14.5242Z" fill="white" mask="url(#path-3-outside-1_541_4928)"/>
</svg>
