<svg width="30" height="30" viewBox="0 0 30 30" fill="none" xmlns="http://www.w3.org/2000/svg">
<path d="M29.5 15C29.5 23.0081 23.0081 29.5 15 29.5C6.99187 29.5 0.5 23.0081 0.5 15C0.5 6.99187 6.99187 0.5 15 0.5C23.0081 0.5 29.5 6.99187 29.5 15Z" fill="white" stroke="#D9D9D9"/>
<path d="M15 26.25C21.2132 26.25 26.25 21.2132 26.25 15C26.25 8.7868 21.2132 3.75 15 3.75C8.7868 3.75 3.75 8.7868 3.75 15C3.75 21.2132 8.7868 26.25 15 26.25Z" fill="#9747FF"/>
<mask id="path-3-outside-1_541_4930" maskUnits="userSpaceOnUse" x="11" y="8.5" width="9" height="13" fill="black">
<rect fill="white" x="11" y="8.5" width="9" height="13"/>
<path d="M15.4165 9.74805C16.0903 9.74805 16.7031 9.91162 17.2549 10.2388C17.8115 10.5659 18.2607 11.103 18.6025 11.8501C18.9443 12.5923 19.1152 13.5591 19.1152 14.7505C19.1152 15.937 18.9688 16.9722 18.6758 17.856C18.3877 18.7397 17.9531 19.4258 17.3721 19.9141C16.7959 20.4023 16.0928 20.6465 15.2627 20.6465C14.6768 20.6465 14.1494 20.5269 13.6807 20.2876C13.2119 20.0483 12.8311 19.7163 12.5381 19.2915C12.2451 18.8667 12.062 18.3784 11.9888 17.8267H13.0215C13.0898 18.1929 13.2217 18.5176 13.417 18.8008C13.6123 19.084 13.8662 19.3062 14.1787 19.4673C14.4912 19.6284 14.8525 19.709 15.2627 19.709C15.8633 19.709 16.3784 19.5308 16.8081 19.1743C17.2427 18.8179 17.5723 18.3003 17.7969 17.6216C18.0215 16.938 18.1338 16.1177 18.1338 15.1606H18.0166C17.8359 15.4683 17.604 15.7368 17.3208 15.9663C17.0425 16.1909 16.7251 16.3667 16.3687 16.4937C16.0171 16.6206 15.6509 16.6841 15.27 16.6841C14.6548 16.6841 14.0884 16.5352 13.5708 16.2373C13.0532 15.9346 12.6406 15.522 12.333 14.9995C12.0254 14.4722 11.8716 13.8838 11.8716 13.2344C11.8716 12.5898 12.0181 12.0015 12.311 11.4692C12.6089 10.937 13.0264 10.5171 13.5635 10.2095C14.1006 9.89697 14.7183 9.74316 15.4165 9.74805ZM15.4165 10.6709C14.9429 10.6709 14.5132 10.7856 14.1274 11.0151C13.7417 11.2446 13.439 11.5547 13.2192 11.9453C13.0044 12.3359 12.897 12.7607 12.897 13.2197C12.897 13.6836 13.0044 14.1108 13.2192 14.5015C13.439 14.8872 13.7417 15.1924 14.1274 15.417C14.5132 15.6416 14.9404 15.7539 15.4092 15.7539C15.8926 15.7539 16.332 15.6318 16.7275 15.3877C17.1279 15.1436 17.438 14.8237 17.6577 14.4282C17.8774 14.0278 17.9702 13.6055 17.936 13.1611C17.9067 12.6924 17.7773 12.27 17.5479 11.894C17.3232 11.5132 17.0254 11.2153 16.6543 11.0005C16.2881 10.7808 15.8755 10.6709 15.4165 10.6709Z"/>
</mask>
<path d="M15.4165 9.74805C16.0903 9.74805 16.7031 9.91162 17.2549 10.2388C17.8115 10.5659 18.2607 11.103 18.6025 11.8501C18.9443 12.5923 19.1152 13.5591 19.1152 14.7505C19.1152 15.937 18.9688 16.9722 18.6758 17.856C18.3877 18.7397 17.9531 19.4258 17.3721 19.9141C16.7959 20.4023 16.0928 20.6465 15.2627 20.6465C14.6768 20.6465 14.1494 20.5269 13.6807 20.2876C13.2119 20.0483 12.8311 19.7163 12.5381 19.2915C12.2451 18.8667 12.062 18.3784 11.9888 17.8267H13.0215C13.0898 18.1929 13.2217 18.5176 13.417 18.8008C13.6123 19.084 13.8662 19.3062 14.1787 19.4673C14.4912 19.6284 14.8525 19.709 15.2627 19.709C15.8633 19.709 16.3784 19.5308 16.8081 19.1743C17.2427 18.8179 17.5723 18.3003 17.7969 17.6216C18.0215 16.938 18.1338 16.1177 18.1338 15.1606H18.0166C17.8359 15.4683 17.604 15.7368 17.3208 15.9663C17.0425 16.1909 16.7251 16.3667 16.3687 16.4937C16.0171 16.6206 15.6509 16.6841 15.27 16.6841C14.6548 16.6841 14.0884 16.5352 13.5708 16.2373C13.0532 15.9346 12.6406 15.522 12.333 14.9995C12.0254 14.4722 11.8716 13.8838 11.8716 13.2344C11.8716 12.5898 12.0181 12.0015 12.311 11.4692C12.6089 10.937 13.0264 10.5171 13.5635 10.2095C14.1006 9.89697 14.7183 9.74316 15.4165 9.74805ZM15.4165 10.6709C14.9429 10.6709 14.5132 10.7856 14.1274 11.0151C13.7417 11.2446 13.439 11.5547 13.2192 11.9453C13.0044 12.3359 12.897 12.7607 12.897 13.2197C12.897 13.6836 13.0044 14.1108 13.2192 14.5015C13.439 14.8872 13.7417 15.1924 14.1274 15.417C14.5132 15.6416 14.9404 15.7539 15.4092 15.7539C15.8926 15.7539 16.332 15.6318 16.7275 15.3877C17.1279 15.1436 17.438 14.8237 17.6577 14.4282C17.8774 14.0278 17.9702 13.6055 17.936 13.1611C17.9067 12.6924 17.7773 12.27 17.5479 11.894C17.3232 11.5132 17.0254 11.2153 16.6543 11.0005C16.2881 10.7808 15.8755 10.6709 15.4165 10.6709Z" fill="white"/>
<path d="M15.4165 9.74805L15.413 10.248H15.4165V9.74805ZM17.2549 10.2388L16.9999 10.6689L17.0015 10.6698L17.2549 10.2388ZM18.6025 11.8501L18.1479 12.0581L18.1484 12.0592L18.6025 11.8501ZM18.6758 17.856L18.2012 17.6986L18.2004 17.701L18.6758 17.856ZM17.3721 19.9141L17.0504 19.5313L17.0488 19.5326L17.3721 19.9141ZM11.9888 17.8267V17.3267H11.418L11.4931 17.8925L11.9888 17.8267ZM13.0215 17.8267L13.513 17.7349L13.4368 17.3267H13.0215V17.8267ZM16.8081 19.1743L16.491 18.7877L16.4889 18.7895L16.8081 19.1743ZM17.7969 17.6216L18.2716 17.7787L18.2719 17.7777L17.7969 17.6216ZM18.1338 15.1606H18.6338V14.6606H18.1338V15.1606ZM18.0166 15.1606V14.6606H17.7304L17.5855 14.9074L18.0166 15.1606ZM17.3208 15.9663L17.6348 16.3554L17.6356 16.3548L17.3208 15.9663ZM16.3687 16.4937L16.2009 16.0226L16.1988 16.0234L16.3687 16.4937ZM13.5708 16.2373L13.3184 16.6689L13.3214 16.6707L13.5708 16.2373ZM12.333 14.9995L11.9011 15.2514L11.9021 15.2532L12.333 14.9995ZM12.311 11.4692L11.8747 11.2251L11.873 11.2281L12.311 11.4692ZM13.5635 10.2095L13.812 10.6434L13.8149 10.6416L13.5635 10.2095ZM13.2192 11.9453L12.7834 11.7002L12.7811 11.7044L13.2192 11.9453ZM13.2192 14.5015L12.7811 14.7425L12.7848 14.7489L13.2192 14.5015ZM16.7275 15.3877L16.4672 14.9608L16.4649 14.9622L16.7275 15.3877ZM17.6577 14.4282L18.0948 14.671L18.096 14.6688L17.6577 14.4282ZM17.936 13.1611L17.437 13.1923L17.4375 13.1995L17.936 13.1611ZM17.5479 11.894L17.1171 12.1481L17.1211 12.1545L17.5479 11.894ZM16.6543 11.0005L16.397 11.4293L16.4038 11.4332L16.6543 11.0005ZM15.4165 10.248C16.0053 10.248 16.5293 10.3898 16.9999 10.6689L17.5099 9.80869C16.877 9.43342 16.1753 9.24805 15.4165 9.24805V10.248ZM17.0015 10.6698C17.4484 10.9325 17.8371 11.3789 18.1479 12.0581L19.0572 11.6421C18.6844 10.8272 18.1746 10.1994 17.5082 9.80771L17.0015 10.6698ZM18.1484 12.0592C18.4494 12.7129 18.6152 13.6008 18.6152 14.7505H19.6152C19.6152 13.5173 19.4393 12.4717 19.0567 11.6409L18.1484 12.0592ZM18.6152 14.7505C18.6152 15.8975 18.4734 16.8773 18.2012 17.6986L19.1504 18.0133C19.4641 17.067 19.6152 15.9765 19.6152 14.7505H18.6152ZM18.2004 17.701C17.9347 18.516 17.5454 19.1153 17.0504 19.5313L17.6937 20.2969C18.3609 19.7363 18.8406 18.9635 19.1512 18.0109L18.2004 17.701ZM17.0488 19.5326C16.5721 19.9366 15.987 20.1465 15.2627 20.1465V21.1465C16.1986 21.1465 17.0197 20.8681 17.6953 20.2955L17.0488 19.5326ZM15.2627 20.1465C14.7467 20.1465 14.2987 20.0417 13.908 19.8423L13.4534 20.7329C14.0002 21.012 14.6068 21.1465 15.2627 21.1465V20.1465ZM13.908 19.8423C13.5116 19.6399 13.1946 19.3628 12.9497 19.0076L12.1265 19.5754C12.4675 20.0699 12.9123 20.4568 13.4534 20.7329L13.908 19.8423ZM12.9497 19.0076C12.705 18.6529 12.5481 18.2406 12.4844 17.7609L11.4931 17.8925C11.5759 18.5162 11.7852 19.0805 12.1265 19.5754L12.9497 19.0076ZM11.9888 18.3267H13.0215V17.3267H11.9888V18.3267ZM12.53 17.9184C12.6101 18.3478 12.7671 18.7391 13.0054 19.0846L13.8286 18.5169C13.6763 18.2961 13.5696 18.038 13.513 17.7349L12.53 17.9184ZM13.0054 19.0846C13.2484 19.4371 13.5656 19.7137 13.9496 19.9117L14.4079 19.0229C14.1668 18.8986 13.9762 18.7309 13.8286 18.5169L13.0054 19.0846ZM13.9496 19.9117C14.3439 20.115 14.7861 20.209 15.2627 20.209V19.209C14.919 19.209 14.6386 19.1418 14.4079 19.0229L13.9496 19.9117ZM15.2627 20.209C15.9704 20.209 16.6009 19.9959 17.1273 19.5591L16.4889 18.7895C16.156 19.0657 15.7562 19.209 15.2627 19.209V20.209ZM17.1252 19.5609C17.6505 19.1301 18.0252 18.523 18.2716 17.7787L17.3222 17.4645C17.1193 18.0775 16.8349 18.5057 16.491 18.7877L17.1252 19.5609ZM18.2719 17.7777C18.5175 17.0302 18.6338 16.1543 18.6338 15.1606H17.6338C17.6338 16.081 17.5255 16.8458 17.3219 17.4655L18.2719 17.7777ZM18.1338 14.6606H18.0166V15.6606H18.1338V14.6606ZM17.5855 14.9074C17.4358 15.1622 17.2437 15.3853 17.006 15.5778L17.6356 16.3548C17.9643 16.0884 18.2361 15.7743 18.4477 15.4139L17.5855 14.9074ZM17.0068 15.5772C16.7747 15.7645 16.5074 15.9135 16.2009 16.0226L16.5364 16.9647C16.9428 16.8199 17.3102 16.6174 17.6348 16.3554L17.0068 15.5772ZM16.1988 16.0234C15.9028 16.1303 15.5941 16.1841 15.27 16.1841V17.1841C15.7077 17.1841 16.1314 17.1109 16.5385 16.9639L16.1988 16.0234ZM15.27 16.1841C14.7395 16.1841 14.2595 16.0568 13.8202 15.8039L13.3214 16.6707C13.9172 17.0135 14.57 17.1841 15.27 17.1841V16.1841ZM13.8232 15.8057C13.3802 15.5466 13.0287 15.1956 12.7639 14.7458L11.9021 15.2532C12.2526 15.8484 12.7262 16.3226 13.3184 16.6689L13.8232 15.8057ZM12.7649 14.7476C12.5047 14.3016 12.3716 13.8011 12.3716 13.2344H11.3716C11.3716 13.9665 11.546 14.6427 11.9011 15.2514L12.7649 14.7476ZM12.3716 13.2344C12.3716 12.6688 12.4992 12.1642 12.7491 11.7104L11.873 11.2281C11.5369 11.8387 11.3716 12.5108 11.3716 13.2344H12.3716ZM12.7474 11.7134C13.0003 11.2615 13.3523 10.9066 13.812 10.6434L13.315 9.77559C12.7005 10.1275 12.2175 10.6125 11.8747 11.2251L12.7474 11.7134ZM13.8149 10.6416C14.2654 10.3795 14.793 10.2437 15.413 10.248L15.42 9.24806C14.6436 9.24263 13.9358 9.4144 13.312 9.7773L13.8149 10.6416ZM15.4165 10.1709C14.8581 10.1709 14.3392 10.3074 13.8718 10.5854L14.3831 11.4448C14.6872 11.2639 15.0277 11.1709 15.4165 11.1709V10.1709ZM13.8718 10.5854C13.411 10.8596 13.0461 11.2332 12.7835 11.7002L13.655 12.1904C13.8318 11.8762 14.0724 11.6297 14.3831 11.4448L13.8718 10.5854ZM12.7811 11.7044C12.5245 12.171 12.397 12.6791 12.397 13.2197H13.397C13.397 12.8424 13.4843 12.5008 13.6573 12.1863L12.7811 11.7044ZM12.397 13.2197C12.397 13.7643 12.524 14.2749 12.7811 14.7424L13.6573 14.2605C13.4848 13.9467 13.397 13.6029 13.397 13.2197H12.397ZM12.7848 14.7489C13.0484 15.2117 13.4144 15.5804 13.8758 15.8491L14.379 14.9849C14.069 14.8044 13.8296 14.5627 13.6537 14.254L12.7848 14.7489ZM13.8758 15.8491C14.3419 16.1204 14.8566 16.2539 15.4092 16.2539V15.2539C15.0242 15.2539 14.6845 15.1628 14.379 14.9849L13.8758 15.8491ZM15.4092 16.2539C15.9814 16.2539 16.5125 16.108 16.9902 15.8132L16.4649 14.9622C16.1516 15.1556 15.8037 15.2539 15.4092 15.2539V16.2539ZM16.9878 15.8146C17.4593 15.5271 17.8315 15.145 18.0948 14.671L17.2206 14.1854C17.0445 14.5025 16.7966 14.76 16.4672 14.9608L16.9878 15.8146ZM18.096 14.6688C18.3613 14.1855 18.4764 13.6665 18.4346 13.1228L17.4375 13.1995C17.464 13.5445 17.3936 13.8702 17.2194 14.1877L18.096 14.6688ZM18.4351 13.1299C18.401 12.5855 18.2493 12.0835 17.9746 11.6335L17.1211 12.1545C17.3054 12.4565 17.4124 12.7992 17.437 13.1923L18.4351 13.1299ZM17.9785 11.6401C17.7117 11.1875 17.3527 10.8271 16.9048 10.5678L16.4038 11.4332C16.6981 11.6036 16.9348 11.8388 17.1172 12.148L17.9785 11.6401ZM16.9115 10.5717C16.4618 10.3019 15.9591 10.1709 15.4165 10.1709V11.1709C15.7919 11.1709 16.1144 11.2596 16.397 11.4292L16.9115 10.5717Z" fill="white" mask="url(#path-3-outside-1_541_4930)"/>
</svg>
