<svg xmlns="http://www.w3.org/2000/svg"  viewBox="0 0 50 50" width="24px" height="24px"><path d="M11.279,37.5l2.694-2.694l0.61-0.61v-0.862v-12.5c0-5.744,4.673-10.417,10.417-10.417s10.417,4.673,10.417,10.417v12.5 v0.862l0.61,0.61l2.694,2.694H11.279z" opacity=".3"/><path d="M28.125,10.417h-6.25V7.292c0-1.725,1.4-3.125,3.125-3.125l0,0c1.725,0,3.125,1.4,3.125,3.125V10.417z"/><path d="M25,12.5c4.596,0,8.333,3.737,8.333,8.333v12.5v1.725l0.358,0.358H16.308l0.358-0.358v-1.725v-12.5 C16.667,16.237,20.404,12.5,25,12.5 M25,8.333L25,8.333c-6.904,0-12.5,5.596-12.5,12.5v12.5L8.333,37.5v2.083h33.333V37.5 L37.5,33.333v-12.5C37.5,13.929,31.904,8.333,25,8.333L25,8.333z"/><path d="M25 37.5A4.167 4.167 0 1 0 25 45.834A4.167 4.167 0 1 0 25 37.5Z"/></svg>