<svg width="40" height="40" viewBox="0 0 40 40" fill="none" xmlns="http://www.w3.org/2000/svg">
<path d="M20 40C31.0457 40 40 31.0457 40 20C40 8.9543 31.0457 0 20 0C8.9543 0 0 8.9543 0 20C0 31.0457 8.9543 40 20 40Z" fill="white"/>
<path d="M20 35C28.2843 35 35 28.2843 35 20C35 11.7157 28.2843 5 20 5C11.7157 5 5 11.7157 5 20C5 28.2843 11.7157 35 20 35Z" fill="#F1729B"/>
<path d="M24.8331 15.1984C25.1907 14.8408 25.6387 14.6291 26.1036 14.5631L24.8331 15.1984ZM26.1036 14.5631C26.7789 14.4672 27.4895 14.6789 28.0089 15.1984C28.8859 16.0754 28.8859 17.4972 28.0089 18.3742C27.3023 19.0808 26.242 19.2181 25.3979 18.786C25.0529 18.6094 24.6109 18.5964 24.3369 18.8704L18.8704 24.3369C18.5964 24.6109 18.6094 25.0529 18.786 25.3979C19.2181 26.242 19.0808 27.3023 18.3742 28.0089C17.4972 28.8859 16.0754 28.8859 15.1984 28.0089C14.6789 27.4895 14.4672 26.7789 14.5631 26.1036M26.1036 14.5631C26.1995 13.8878 25.9877 13.1772 25.4682 12.6577C24.5913 11.7808 23.1694 11.7808 22.2925 12.6577C21.5858 13.3643 21.4486 14.4247 21.8807 15.2687C22.0572 15.6137 22.0703 16.0557 21.7962 16.3298L16.3298 21.7962C16.0557 22.0703 15.6137 22.0572 15.2687 21.8807C14.4247 21.4486 13.3643 21.5858 12.6577 22.2925C11.7808 23.1694 11.7808 24.5913 12.6577 25.4682C13.1772 25.9877 13.8878 26.1995 14.5631 26.1036M15.8335 25.4682C15.476 25.8258 15.0279 26.0376 14.5631 26.1036L15.8335 25.4682Z" fill="white"/>
<path d="M24.8331 15.1984C25.1907 14.8408 25.6387 14.6291 26.1036 14.5631M26.1036 14.5631C26.7789 14.4672 27.4895 14.6789 28.0089 15.1984C28.8859 16.0754 28.8859 17.4972 28.0089 18.3742C27.3023 19.0808 26.242 19.2181 25.3979 18.786C25.0529 18.6094 24.6109 18.5964 24.3369 18.8704L18.8704 24.3369C18.5964 24.6109 18.6094 25.0529 18.786 25.3979C19.2181 26.242 19.0808 27.3023 18.3742 28.0089C17.4972 28.8859 16.0754 28.8859 15.1984 28.0089C14.6789 27.4895 14.4672 26.7789 14.5631 26.1036M26.1036 14.5631C26.1995 13.8878 25.9877 13.1772 25.4682 12.6577C24.5913 11.7808 23.1694 11.7808 22.2925 12.6577C21.5858 13.3643 21.4486 14.4247 21.8807 15.2687C22.0572 15.6137 22.0703 16.0557 21.7962 16.3298L16.3298 21.7962C16.0557 22.0703 15.6137 22.0572 15.2687 21.8807C14.4247 21.4486 13.3643 21.5858 12.6577 22.2925C11.7808 23.1694 11.7808 24.5913 12.6577 25.4682C13.1772 25.9877 13.8878 26.1995 14.5631 26.1036M14.5631 26.1036C15.0279 26.0376 15.476 25.8258 15.8335 25.4682" stroke="white" stroke-width="1.25" stroke-linecap="round" stroke-linejoin="round"/>
</svg>
