<svg width="20" height="20" viewBox="0 0 20 20" fill="none" xmlns="http://www.w3.org/2000/svg">
<rect x="0.5" y="0.5" width="19" height="19" rx="9.5" fill="#333333"/>
<rect x="0.5" y="0.5" width="19" height="19" rx="9.5" stroke="#333333"/>
<path d="M6 6.11111H7.5L8.5 5H11.5L12.5 6.11111H14C14.2652 6.11111 14.5196 6.22817 14.7071 6.43655C14.8946 6.64492 15 6.92754 15 7.22222V13.8889C15 14.1836 14.8946 14.4662 14.7071 14.6746C14.5196 14.8829 14.2652 15 14 15H6C5.73478 15 5.48043 14.8829 5.29289 14.6746C5.10536 14.4662 5 14.1836 5 13.8889V7.22222C5 6.92754 5.10536 6.64492 5.29289 6.43655C5.48043 6.22817 5.73478 6.11111 6 6.11111ZM10 7.77778C9.33696 7.77778 8.70107 8.07044 8.23223 8.59137C7.76339 9.1123 7.5 9.81884 7.5 10.5556C7.5 11.2923 7.76339 11.9988 8.23223 12.5197C8.70107 13.0407 9.33696 13.3333 10 13.3333C10.663 13.3333 11.2989 13.0407 11.7678 12.5197C12.2366 11.9988 12.5 11.2923 12.5 10.5556C12.5 9.81884 12.2366 9.1123 11.7678 8.59137C11.2989 8.07044 10.663 7.77778 10 7.77778ZM10 8.88889C10.3978 8.88889 10.7794 9.06448 11.0607 9.37704C11.342 9.6896 11.5 10.1135 11.5 10.5556C11.5 10.9976 11.342 11.4215 11.0607 11.7341C10.7794 12.0466 10.3978 12.2222 10 12.2222C9.60218 12.2222 9.22064 12.0466 8.93934 11.7341C8.65804 11.4215 8.5 10.9976 8.5 10.5556C8.5 10.1135 8.65804 9.6896 8.93934 9.37704C9.22064 9.06448 9.60218 8.88889 10 8.88889Z" fill="white"/>
</svg>
