<svg width="40" height="40" viewBox="0 0 40 40" fill="none" xmlns="http://www.w3.org/2000/svg">
<path d="M20 40C31.0457 40 40 31.0457 40 20C40 8.9543 31.0457 0 20 0C8.9543 0 0 8.9543 0 20C0 31.0457 8.9543 40 20 40Z" fill="white"/>
<path d="M20 35C28.2843 35 35 28.2843 35 20C35 11.7157 28.2843 5 20 5C11.7157 5 5 11.7157 5 20C5 28.2843 11.7157 35 20 35Z" fill="#F1729B"/>
<path d="M25.8332 17.9167H25.5665L24.5248 15.3167C24.3388 14.8544 24.0189 14.4582 23.6061 14.1791C23.1933 13.8999 22.7065 13.7505 22.2082 13.75H17.2082C16.6292 13.7484 16.0677 13.9477 15.6194 14.3139C15.171 14.6802 14.8637 15.1907 14.7498 15.7583L14.3165 17.9167H14.1665C13.5035 17.9167 12.8676 18.1801 12.3987 18.6489C11.9299 19.1178 11.6665 19.7536 11.6665 20.4167V22.9167C11.6665 23.1377 11.7543 23.3497 11.9106 23.5059C12.0669 23.6622 12.2788 23.75 12.4998 23.75H13.3332C13.3332 24.4131 13.5966 25.0489 14.0654 25.5178C14.5342 25.9866 15.1701 26.25 15.8332 26.25C16.4962 26.25 17.1321 25.9866 17.6009 25.5178C18.0698 25.0489 18.3332 24.4131 18.3332 23.75H21.6665C21.6665 24.4131 21.9299 25.0489 22.3987 25.5178C22.8676 25.9866 23.5035 26.25 24.1665 26.25C24.8295 26.25 25.4654 25.9866 25.9343 25.5178C26.4031 25.0489 26.6665 24.4131 26.6665 23.75H27.4998C27.7209 23.75 27.9328 23.6622 28.0891 23.5059C28.2454 23.3497 28.3332 23.1377 28.3332 22.9167V20.4167C28.3332 19.7536 28.0698 19.1178 27.6009 18.6489C27.1321 18.1801 26.4962 17.9167 25.8332 17.9167V17.9167ZM20.8332 15.4167H22.2082C22.3736 15.4182 22.5349 15.4689 22.6715 15.5624C22.808 15.6559 22.9136 15.7879 22.9748 15.9417L23.7665 17.9167H20.8332V15.4167ZM16.3832 16.0833C16.4221 15.8923 16.5269 15.7209 16.6791 15.5991C16.8314 15.4773 17.0215 15.4127 17.2165 15.4167H19.1665V17.9167H16.0165L16.3832 16.0833ZM15.8332 24.5833C15.6684 24.5833 15.5072 24.5345 15.3702 24.4429C15.2332 24.3513 15.1263 24.2212 15.0633 24.0689C15.0002 23.9166 14.9837 23.7491 15.0158 23.5874C15.048 23.4258 15.1274 23.2773 15.2439 23.1608C15.3605 23.0442 15.5089 22.9648 15.6706 22.9327C15.8322 22.9005 15.9998 22.917 16.1521 22.9801C16.3043 23.0432 16.4345 23.15 16.5261 23.287C16.6176 23.4241 16.6665 23.5852 16.6665 23.75C16.6665 23.971 16.5787 24.183 16.4224 24.3393C16.2661 24.4955 16.0542 24.5833 15.8332 24.5833ZM24.1665 24.5833C24.0017 24.5833 23.8406 24.5345 23.7035 24.4429C23.5665 24.3513 23.4597 24.2212 23.3966 24.0689C23.3335 23.9166 23.317 23.7491 23.3492 23.5874C23.3813 23.4258 23.4607 23.2773 23.5772 23.1608C23.6938 23.0442 23.8423 22.9648 24.0039 22.9327C24.1656 22.9005 24.3331 22.917 24.4854 22.9801C24.6377 23.0432 24.7678 23.15 24.8594 23.287C24.951 23.4241 24.9998 23.5852 24.9998 23.75C24.9998 23.971 24.912 24.183 24.7558 24.3393C24.5995 24.4955 24.3875 24.5833 24.1665 24.5833ZM26.6665 22.0833H26.0165C25.7822 21.8255 25.4966 21.6196 25.178 21.4786C24.8594 21.3377 24.5149 21.2649 24.1665 21.2649C23.8181 21.2649 23.4736 21.3377 23.155 21.4786C22.8364 21.6196 22.5508 21.8255 22.3165 22.0833H17.6832C17.4489 21.8255 17.1632 21.6196 16.8447 21.4786C16.5261 21.3377 16.1815 21.2649 15.8332 21.2649C15.4848 21.2649 15.1403 21.3377 14.8217 21.4786C14.5031 21.6196 14.2175 21.8255 13.9832 22.0833H13.3332V20.4167C13.3332 20.1957 13.421 19.9837 13.5772 19.8274C13.7335 19.6711 13.9455 19.5833 14.1665 19.5833H25.8332C26.0542 19.5833 26.2661 19.6711 26.4224 19.8274C26.5787 19.9837 26.6665 20.1957 26.6665 20.4167V22.0833Z" fill="white"/>
<path d="M15 18.5H16.5L22.5 19.5L25 18.5L27.5 19.5V22.5H13L12.5 20.5L15 18.5Z" fill="white"/>
</svg>
