<svg width="33" height="33" viewBox="0 0 33 33" fill="none" xmlns="http://www.w3.org/2000/svg">
<path d="M16.5 0C19.7634 0 22.9535 0.967708 25.6669 2.78075C28.3803 4.59379 30.4952 7.17074 31.744 10.1857C32.9929 13.2007 33.3196 16.5183 32.6829 19.719C32.0463 22.9197 30.4748 25.8597 28.1673 28.1673C25.8597 30.4748 22.9197 32.0463 19.719 32.6829C16.5183 33.3196 13.2007 32.9929 10.1857 31.744C7.17074 30.4952 4.59379 28.3803 2.78075 25.6669C0.967708 22.9535 0 19.7634 0 16.5C0 12.1239 1.73839 7.92709 4.83274 4.83274C7.92709 1.73839 12.1239 0 16.5 0Z" fill="#F1729B"/>
<path d="M16.5 2.0625C13.6444 2.06229 10.8528 2.90893 8.47841 4.49532C6.10398 6.08172 4.25333 8.33663 3.16051 10.9749C2.06768 13.6131 1.78177 16.5162 2.33893 19.3169C2.89609 22.1176 4.27129 24.6902 6.29062 26.7094C8.99832 29.4171 12.6707 30.9382 16.5 30.9382C20.3293 30.9382 24.0017 29.4171 26.7094 26.7094C29.4171 24.0017 30.9382 20.3293 30.9382 16.5C30.9382 12.6707 29.4171 8.99832 26.7094 6.29062C25.3717 4.94584 23.7806 3.87971 22.0282 3.15395C20.2757 2.42819 18.3968 2.05722 16.5 2.0625ZM16.5 0C19.7634 0 22.9535 0.967708 25.6669 2.78075C28.3803 4.59379 30.4952 7.17074 31.744 10.1857C32.9929 13.2007 33.3196 16.5183 32.6829 19.719C32.0463 22.9197 30.4748 25.8597 28.1673 28.1673C25.8597 30.4748 22.9197 32.0463 19.719 32.6829C16.5183 33.3196 13.2007 32.9929 10.1857 31.744C7.17074 30.4952 4.59379 28.3803 2.78075 25.6669C0.967708 22.9535 0 19.7634 0 16.5C0 12.1239 1.73839 7.92709 4.83274 4.83274C7.92709 1.73839 12.1239 0 16.5 0Z" fill="#F1729B"/>
<path d="M9.92188 16.6849L14.5944 22.2849L24.0789 11.7153" stroke="white" stroke-width="3" stroke-miterlimit="10" stroke-linecap="round" stroke-linejoin="round"/>
</svg>
