<svg width="14" height="14" viewBox="0 0 14 14" fill="none" xmlns="http://www.w3.org/2000/svg">
<path d="M1.64094 0.556512L13.4521 12.3854C13.5947 12.5279 13.6748 12.7212 13.6748 12.9228C13.6748 13.1243 13.5947 13.3176 13.4521 13.4601C13.3096 13.6026 13.1163 13.6827 12.9147 13.6827C12.7131 13.6827 12.5197 13.6026 12.3772 13.4601L0.566651 1.63192C0.491916 1.56234 0.431961 1.47843 0.390361 1.38518C0.348762 1.29194 0.326369 1.19127 0.32452 1.08919C0.32267 0.987101 0.341401 0.885689 0.379595 0.790998C0.417789 0.696307 0.474665 0.610276 0.54683 0.538035C0.618995 0.465795 0.704972 0.408824 0.799633 0.37052C0.894294 0.332217 0.9957 0.313365 1.09781 0.315089C1.19991 0.316813 1.30062 0.339078 1.39394 0.380556C1.48725 0.422034 1.57125 0.481876 1.64094 0.556512Z" fill="#888888"/>
<path d="M13.4465 1.63239L1.6411 13.4629C1.57065 13.5336 1.48697 13.5896 1.39485 13.6279C1.30272 13.6661 1.20396 13.6858 1.10422 13.6858C1.00448 13.6858 0.905715 13.6661 0.813589 13.6279C0.721462 13.5896 0.637783 13.5336 0.567341 13.4629C0.425006 13.3202 0.345071 13.1268 0.345071 12.9252C0.345071 12.7235 0.425006 12.5301 0.567341 12.3874L12.3727 0.556824C12.4431 0.486233 12.5267 0.430214 12.6188 0.391972C12.7108 0.353731 12.8095 0.334015 12.9091 0.333954C13.0088 0.333893 13.1075 0.353487 13.1996 0.391616C13.2917 0.429744 13.3753 0.48566 13.4458 0.556165C13.5884 0.698854 13.6686 0.892347 13.6687 1.09414C13.6689 1.29593 13.5889 1.48952 13.4465 1.63239Z" fill="#888888"/>
</svg>
