<svg width="40" height="40" viewBox="0 0 40 40" fill="none" xmlns="http://www.w3.org/2000/svg">
<path d="M20 40C31.0457 40 40 31.0457 40 20C40 8.9543 31.0457 0 20 0C8.9543 0 0 8.9543 0 20C0 31.0457 8.9543 40 20 40Z" fill="white"/>
<path d="M20 35C28.2843 35 35 28.2843 35 20C35 11.7157 28.2843 5 20 5C11.7157 5 5 11.7157 5 20C5 28.2843 11.7157 35 20 35Z" fill="#F1729B"/>
<path d="M17.5001 24.1667H20.8334C21.9385 24.1667 22.9983 23.7277 23.7797 22.9463C24.5611 22.1649 25.0001 21.1051 25.0001 20V19.1667H25.8334C26.4965 19.1667 27.1323 18.9033 27.6012 18.4344C28.07 17.9656 28.3334 17.3297 28.3334 16.6667C28.3334 16.0036 28.07 15.3677 27.6012 14.8989C27.1323 14.4301 26.4965 14.1667 25.8334 14.1667H25.0001V13.3333C25.0001 13.1123 24.9123 12.9004 24.756 12.7441C24.5997 12.5878 24.3878 12.5 24.1667 12.5H14.1667C13.9457 12.5 13.7338 12.5878 13.5775 12.7441C13.4212 12.9004 13.3334 13.1123 13.3334 13.3333V20C13.3334 21.1051 13.7724 22.1649 14.5538 22.9463C15.3352 23.7277 16.395 24.1667 17.5001 24.1667ZM25.0001 15.8333H25.8334C26.0544 15.8333 26.2664 15.9211 26.4227 16.0774C26.579 16.2337 26.6667 16.4457 26.6667 16.6667C26.6667 16.8877 26.579 17.0996 26.4227 17.2559C26.2664 17.4122 26.0544 17.5 25.8334 17.5H25.0001V15.8333ZM15.0001 14.1667H23.3334V20C23.3334 20.663 23.07 21.2989 22.6012 21.7678C22.1323 22.2366 21.4965 22.5 20.8334 22.5H17.5001C16.837 22.5 16.2012 22.2366 15.7323 21.7678C15.2635 21.2989 15.0001 20.663 15.0001 20V14.1667ZM27.5001 25.8333H12.5001C12.2791 25.8333 12.0671 25.9211 11.9108 26.0774C11.7545 26.2337 11.6667 26.4457 11.6667 26.6667C11.6667 26.8877 11.7545 27.0996 11.9108 27.2559C12.0671 27.4122 12.2791 27.5 12.5001 27.5H27.5001C27.7211 27.5 27.9331 27.4122 28.0893 27.2559C28.2456 27.0996 28.3334 26.8877 28.3334 26.6667C28.3334 26.4457 28.2456 26.2337 28.0893 26.0774C27.9331 25.9211 27.7211 25.8333 27.5001 25.8333Z" fill="white"/>
<path d="M14.5 22V14H24V22L18.5 23.5L14.5 22Z" fill="white"/>
</svg>
