<svg width="24" height="24" viewBox="0 0 24 24" fill="none" xmlns="http://www.w3.org/2000/svg">
<path fill-rule="evenodd" clip-rule="evenodd" d="M12.0355 11.813C13.3005 11.3993 14.9502 11.9036 16.0799 12.8584C16.7699 13.4427 17.0011 14.119 16.9286 14.6323C16.8566 15.1415 15.9992 15.3866 15.2765 15.2235C14.7253 15.099 14.1544 15.0646 13.6344 15.2159C13.1349 15.4131 12.7505 15.7731 12.453 16.1887C12.0628 16.7331 11.2443 17.061 10.7794 16.7343C10.3124 16.4054 9.93099 15.7805 9.95696 14.9515C10.0009 13.5955 10.7856 12.259 12.0355 11.813ZM6.90239 12.0374C6.4613 12.4462 6.64847 13.2082 7.32028 13.7388C7.9921 14.2694 8.89384 14.3702 9.33493 13.9614C9.77603 13.5527 9.58886 12.7907 8.91704 12.2601C8.24522 11.7295 7.34287 11.6298 6.90239 12.0374ZM8.47198 8.80711C9.15067 8.47308 10.141 8.85459 10.6839 9.65881C11.2262 10.4642 11.1159 11.3877 10.4366 11.723C9.75791 12.057 8.76759 11.6755 8.22468 10.8713C7.68239 10.0658 7.79329 9.14113 8.47198 8.80711ZM15.9296 8.9516C15.2796 8.91579 14.709 9.51988 14.6528 10.2994C14.597 11.0797 15.0786 11.741 15.7282 11.776C16.3782 11.8118 16.9487 11.2077 17.0049 10.4282C17.0612 9.64875 16.5795 8.9874 15.9296 8.9516ZM12.1788 7.53996C12.9401 7.38175 13.7691 7.98519 14.029 8.88712C14.289 9.78905 13.8816 10.6483 13.1189 10.806C12.3576 10.9643 11.5287 10.3608 11.2688 9.45888C11.0088 8.55695 11.4161 7.69768 12.1788 7.53996Z" fill="#F1729B"/>
<path d="M11.9999 2C10.6866 2 9.38629 2.25866 8.17303 2.7612C6.95978 3.26375 5.85738 4.00035 4.9288 4.92893C3.05343 6.8043 1.99987 9.34784 1.99987 12C1.99112 14.3091 2.79066 16.5485 4.25987 18.33L2.25987 20.33C2.12111 20.4706 2.02711 20.6492 1.98974 20.8432C1.95236 21.0372 1.97329 21.2379 2.04987 21.42C2.13292 21.5999 2.26757 21.7511 2.43671 21.8544C2.60586 21.9577 2.80187 22.0083 2.99987 22H11.9999C14.652 22 17.1956 20.9464 19.0709 19.0711C20.9463 17.1957 21.9999 14.6522 21.9999 12C21.9999 9.34784 20.9463 6.8043 19.0709 4.92893C17.1956 3.05357 14.652 2 11.9999 2V2ZM11.9999 20H5.40987L6.33987 19.07C6.52612 18.8826 6.63066 18.6292 6.63066 18.365C6.63066 18.1008 6.52612 17.8474 6.33987 17.66C5.03045 16.352 4.21504 14.6305 4.03256 12.7888C3.85007 10.947 4.31181 9.09901 5.33909 7.55952C6.36638 6.02004 7.89566 4.88436 9.66638 4.34597C11.4371 3.80759 13.3397 3.8998 15.0501 4.60691C16.7604 5.31402 18.1727 6.59227 19.0463 8.22389C19.9199 9.85551 20.2007 11.7395 19.841 13.555C19.4813 15.3705 18.5032 17.005 17.0734 18.1802C15.6436 19.3554 13.8506 19.9985 11.9999 20V20Z" fill="#F1729B"/>
</svg>
