<svg width="25" height="24" viewBox="0 0 25 24" fill="none" xmlns="http://www.w3.org/2000/svg">
<path fill-rule="evenodd" clip-rule="evenodd" d="M12.7855 11.813C14.0505 11.3993 15.7002 11.9036 16.8299 12.8584C17.5199 13.4427 17.7511 14.119 17.6786 14.6323C17.6066 15.1415 16.7492 15.3866 16.0265 15.2235C15.4753 15.099 14.9044 15.0646 14.3844 15.2159C13.8849 15.4131 13.5005 15.7731 13.203 16.1887C12.8128 16.7331 11.9943 17.061 11.5294 16.7343C11.0624 16.4054 10.681 15.7805 10.707 14.9515C10.7509 13.5955 11.5356 12.259 12.7855 11.813ZM7.65239 12.0374C7.2113 12.4462 7.39847 13.2082 8.07028 13.7388C8.7421 14.2694 9.64384 14.3702 10.0849 13.9614C10.526 13.5527 10.3389 12.7907 9.66704 12.2601C8.99522 11.7295 8.09287 11.6298 7.65239 12.0374ZM9.22198 8.80711C9.90067 8.47308 10.891 8.85459 11.4339 9.65881C11.9762 10.4642 11.8659 11.3877 11.1866 11.723C10.5079 12.057 9.51759 11.6755 8.97468 10.8713C8.43239 10.0658 8.54329 9.14113 9.22198 8.80711ZM16.6796 8.9516C16.0296 8.91579 15.459 9.51988 15.4028 10.2994C15.347 11.0797 15.8286 11.741 16.4782 11.776C17.1282 11.8118 17.6987 11.2077 17.7549 10.4282C17.8112 9.64875 17.3295 8.9874 16.6796 8.9516ZM12.9288 7.53996C13.6901 7.38175 14.5191 7.98519 14.779 8.88712C15.039 9.78905 14.6316 10.6483 13.8689 10.806C13.1076 10.9643 12.2787 10.3608 12.0188 9.45888C11.7588 8.55695 12.1661 7.69768 12.9288 7.53996Z" fill="#9A9EA6"/>
<path d="M12.7499 2C11.4366 2 10.1363 2.25866 8.92303 2.7612C7.70978 3.26375 6.60738 4.00035 5.6788 4.92893C3.80343 6.8043 2.74987 9.34784 2.74987 12C2.74112 14.3091 3.54066 16.5485 5.00987 18.33L3.00987 20.33C2.87111 20.4706 2.77711 20.6492 2.73974 20.8432C2.70236 21.0372 2.72329 21.2379 2.79987 21.42C2.88292 21.5999 3.01757 21.7511 3.18671 21.8544C3.35586 21.9577 3.55187 22.0083 3.74987 22H12.7499C15.402 22 17.9456 20.9464 19.8209 19.0711C21.6963 17.1957 22.7499 14.6522 22.7499 12C22.7499 9.34784 21.6963 6.8043 19.8209 4.92893C17.9456 3.05357 15.402 2 12.7499 2ZM12.7499 20H6.15987L7.08987 19.07C7.27612 18.8826 7.38066 18.6292 7.38066 18.365C7.38066 18.1008 7.27612 17.8474 7.08987 17.66C5.78045 16.352 4.96504 14.6305 4.78256 12.7888C4.60007 10.947 5.06181 9.09901 6.08909 7.55952C7.11638 6.02004 8.64566 4.88436 10.4164 4.34597C12.1871 3.80759 14.0897 3.8998 15.8001 4.60691C17.5104 5.31402 18.9227 6.59227 19.7963 8.22389C20.6699 9.85551 20.9507 11.7395 20.591 13.555C20.2313 15.3705 19.2532 17.005 17.8234 18.1802C16.3936 19.3554 14.6006 19.9985 12.7499 20Z" fill="#9A9EA6"/>
</svg>
