<svg width="100" height="100" viewBox="0 0 100 100" fill="none" xmlns="http://www.w3.org/2000/svg">
<rect width="100" height="100" rx="50" fill="#F2F2F7"/>
<path d="M59.083 68.9058L56.3109 68.7681C51.9324 68.4421 47.5342 68.4893 43.1638 68.9089C41.6716 69.0577 40.165 68.8761 38.7509 68.377C37.5681 68.0315 36.5 67.3743 35.6584 66.4743C34.8167 65.5742 34.2326 64.4645 33.9671 63.2612C33.2757 60.4775 34.1936 56.8652 37.2602 55.1941C40.3269 53.523 42.4377 50.9314 44.2404 48.0327C44.8487 46.9261 45.6336 45.9261 46.5641 45.0723C47.2824 44.4303 48.18 44.0235 49.1363 43.9065C50.0926 43.7896 51.0618 43.9681 51.9137 44.4182C53.0117 45.0553 53.9743 45.9013 54.7472 46.9084C55.7947 48.2875 56.8442 49.6739 57.9062 51.0491C59.4706 52.9504 61.2391 54.6742 63.1798 56.1895C64.7187 57.4668 65.75 59.2524 66.0872 61.2237C66.3554 62.6027 66.1331 64.0321 65.4586 65.2645C64.7841 66.4968 63.7 67.4546 62.3939 67.9719C61.9012 68.1845 61.3941 68.362 60.8764 68.5032C60.3476 68.6527 59.8197 68.7474 59.083 68.9058Z" fill="#9A9EA6"/>
<path d="M47.6536 34.3C46.8065 29.9418 43.5627 26.9059 40.4083 27.5191C37.254 28.1322 35.3836 32.1622 36.2308 36.5204C37.0779 40.8785 40.3217 43.9144 43.4761 43.3012C46.6304 42.6881 48.5008 38.6581 47.6536 34.3Z" fill="#9A9EA6"/>
<path d="M34.3894 54.7051C37.2193 53.8523 38.5586 49.9925 37.3808 46.0839C36.2029 42.1753 32.954 39.6981 30.1241 40.5509C27.2941 41.4037 25.9548 45.2636 27.1327 49.1721C28.3105 53.0807 31.5594 55.5579 34.3894 54.7051Z" fill="#9A9EA6"/>
<path d="M63.3474 36.1167C64.1968 31.759 62.3286 27.728 59.1746 27.1132C56.0205 26.4984 52.7751 29.5326 51.9257 33.8903C51.0763 38.248 52.9445 42.279 56.0985 42.8938C59.2526 43.5086 62.498 40.4743 63.3474 36.1167Z" fill="#9A9EA6"/>
<path d="M72.4537 48.7494C73.6275 44.8396 72.2842 40.9812 69.4533 40.1314C66.6225 39.2815 63.3761 41.7621 62.2024 45.6719C61.0287 49.5818 62.372 53.4402 65.2028 54.29C68.0337 55.1399 71.28 52.6593 72.4537 48.7494Z" fill="#9A9EA6"/>
</svg>
