<svg width="40" height="40" viewBox="0 0 40 40" fill="none" xmlns="http://www.w3.org/2000/svg">
<path d="M20 40C31.0457 40 40 31.0457 40 20C40 8.9543 31.0457 0 20 0C8.9543 0 0 8.9543 0 20C0 31.0457 8.9543 40 20 40Z" fill="white"/>
<path d="M20 35C28.2843 35 35 28.2843 35 20C35 11.7157 28.2843 5 20 5C11.7157 5 5 11.7157 5 20C5 28.2843 11.7157 35 20 35Z" fill="#FFC700"/>
<path d="M30 17.6697C29.9368 17.4867 29.822 17.3261 29.6693 17.2072C29.5167 17.0882 29.3328 17.0162 29.14 16.9997L23.45 16.1697L20.9 10.9997C20.8181 10.8306 20.6902 10.688 20.5311 10.5882C20.3719 10.4885 20.1878 10.4355 20 10.4355C19.8121 10.4355 19.6281 10.4885 19.4689 10.5882C19.3097 10.688 19.1819 10.8306 19.1 10.9997L16.55 16.1597L10.86 16.9997C10.6749 17.026 10.5009 17.1036 10.3577 17.2238C10.2146 17.344 10.1079 17.5019 10.05 17.6797C9.99692 17.8533 9.99216 18.0382 10.0362 18.2143C10.0802 18.3905 10.1714 18.5514 10.3 18.6797L14.43 22.6797L13.43 28.3597C13.3896 28.5481 13.4045 28.7442 13.473 28.9243C13.5414 29.1044 13.6604 29.261 13.8157 29.3751C13.971 29.4891 14.1559 29.5559 14.3483 29.5674C14.5407 29.5789 14.7322 29.5345 14.9 29.4397L20 26.7697L25.1 29.4397C25.2403 29.5188 25.3988 29.5602 25.56 29.5597C25.7718 29.5604 25.9784 29.4939 26.15 29.3697C26.3051 29.2585 26.4252 29.1053 26.4961 28.9281C26.567 28.7509 26.5857 28.5571 26.55 28.3697L25.55 22.6897L29.68 18.6897C29.8244 18.5673 29.9311 18.4066 29.9877 18.226C30.0444 18.0455 30.0486 17.8525 30 17.6697ZM23.85 21.6697C23.7342 21.7821 23.6474 21.9208 23.5969 22.074C23.5464 22.2273 23.5337 22.3905 23.56 22.5497L24.28 26.7497L20.52 24.7497C20.3738 24.6774 20.213 24.6398 20.05 24.6398C19.8869 24.6398 19.7261 24.6774 19.58 24.7497L15.82 26.7497L16.54 22.5497C16.5662 22.3905 16.5535 22.2273 16.503 22.074C16.4525 21.9208 16.3657 21.7821 16.25 21.6697L13.25 18.6697L17.46 18.0597C17.622 18.0371 17.776 17.9752 17.9085 17.8793C18.041 17.7834 18.1479 17.6565 18.22 17.5097L20 13.6997L21.88 17.5197C21.952 17.6665 22.059 17.7934 22.1915 17.8893C22.324 17.9852 22.478 18.0471 22.64 18.0697L26.85 18.6797L23.85 21.6697Z" fill="white"/>
<path d="M16 22.5L13 18.5L17.5 17L20 13L22.5 17L28 18.5L25 22.5V28L20 25.5L15 28L16 22.5Z" fill="white"/>
</svg>
