<svg width="20" height="20" viewBox="0 0 20 20" fill="none" xmlns="http://www.w3.org/2000/svg">
<path d="M9.99992 3.3335C6.31742 3.3335 3.33325 6.3185 3.33325 10.0002C3.33325 13.6818 6.31742 16.6668 9.99992 16.6668C13.6824 16.6668 16.6666 13.6818 16.6666 10.0002C16.6666 6.3185 13.6824 3.3335 9.99992 3.3335ZM13.0891 11.911C13.2453 12.0673 13.3331 12.2792 13.3331 12.5002C13.3331 12.7211 13.2453 12.9331 13.0891 13.0893C12.9328 13.2456 12.7209 13.3334 12.4999 13.3334C12.2789 13.3334 12.067 13.2456 11.9108 13.0893L9.99992 11.1785L8.08909 13.0893C8.01187 13.167 7.92007 13.2286 7.81896 13.2707C7.71785 13.3127 7.60943 13.3344 7.49992 13.3344C7.39041 13.3344 7.28199 13.3127 7.18087 13.2707C7.07976 13.2286 6.98796 13.167 6.91075 13.0893C6.75453 12.9331 6.66676 12.7211 6.66676 12.5002C6.66676 12.2792 6.75453 12.0673 6.91075 11.911L8.82159 10.0002L6.91075 8.08933C6.7545 7.93307 6.66671 7.72114 6.66671 7.50016C6.66671 7.27918 6.7545 7.06725 6.91075 6.911C7.06701 6.75474 7.27894 6.66695 7.49992 6.66695C7.7209 6.66695 7.93283 6.75474 8.08909 6.911L9.99992 8.82183L11.9108 6.911C12.067 6.75474 12.2789 6.66695 12.4999 6.66695C12.7209 6.66695 12.9328 6.75474 13.0891 6.911C13.2453 7.06725 13.3331 7.27918 13.3331 7.50016C13.3331 7.72114 13.2453 7.93307 13.0891 8.08933L11.1783 10.0002L13.0891 11.911Z" fill="#F1729B"/>
<path d="M13.0891 11.911C13.2453 12.0673 13.3331 12.2792 13.3331 12.5002C13.3331 12.7211 13.2453 12.9331 13.0891 13.0893C12.9328 13.2456 12.7209 13.3334 12.4999 13.3334C12.2789 13.3334 12.067 13.2456 11.9108 13.0893L9.99992 11.1785L8.08909 13.0893C8.01187 13.167 7.92007 13.2286 7.81896 13.2707C7.71785 13.3127 7.60943 13.3344 7.49992 13.3344C7.39041 13.3344 7.28199 13.3127 7.18087 13.2707C7.07976 13.2286 6.98796 13.167 6.91075 13.0893C6.75453 12.9331 6.66676 12.7211 6.66676 12.5002C6.66676 12.2792 6.75453 12.0673 6.91075 11.911L8.82159 10.0002L6.91075 8.08933C6.7545 7.93307 6.66671 7.72114 6.66671 7.50016C6.66671 7.27918 6.7545 7.06725 6.91075 6.911C7.06701 6.75474 7.27894 6.66695 7.49992 6.66695C7.7209 6.66695 7.93283 6.75474 8.08909 6.911L9.99992 8.82183L11.9108 6.911C12.067 6.75474 12.2789 6.66695 12.4999 6.66695C12.7209 6.66695 12.9328 6.75474 13.0891 6.911C13.2453 7.06725 13.3331 7.27918 13.3331 7.50016C13.3331 7.72114 13.2453 7.93307 13.0891 8.08933L11.1783 10.0002L13.0891 11.911Z" fill="white"/>
</svg>
