<svg width="40" height="40" viewBox="0 0 40 40" fill="none" xmlns="http://www.w3.org/2000/svg">
<path d="M20 40C31.0457 40 40 31.0457 40 20C40 8.9543 31.0457 0 20 0C8.9543 0 0 8.9543 0 20C0 31.0457 8.9543 40 20 40Z" fill="white"/>
<path d="M20 35C28.2843 35 35 28.2843 35 20C35 11.7157 28.2843 5 20 5C11.7157 5 5 11.7157 5 20C5 28.2843 11.7157 35 20 35Z" fill="#F1729B"/>
<path d="M25.8335 11.666C25.6125 11.666 25.4005 11.7538 25.2442 11.9101C25.088 12.0664 25.0002 12.2783 25.0002 12.4993V17.0493L24.1668 17.6077V12.4993C24.1668 12.2783 24.079 12.0664 23.9228 11.9101C23.7665 11.7538 23.5545 11.666 23.3335 11.666C23.1125 11.666 22.9005 11.7538 22.7442 11.9101C22.588 12.0664 22.5002 12.2783 22.5002 12.4993V17.6077L21.6668 17.0493V12.4993C21.6668 12.2783 21.579 12.0664 21.4228 11.9101C21.2665 11.7538 21.0545 11.666 20.8335 11.666C20.6125 11.666 20.4005 11.7538 20.2442 11.9101C20.088 12.0664 20.0002 12.2783 20.0002 12.4993V17.4993C20.0009 17.6366 20.0355 17.7716 20.1009 17.8922C20.1663 18.0129 20.2605 18.1155 20.3752 18.191L22.5002 19.616V27.4993C22.5002 27.7204 22.588 27.9323 22.7442 28.0886C22.9005 28.2449 23.1125 28.3327 23.3335 28.3327C23.5545 28.3327 23.7665 28.2449 23.9228 28.0886C24.079 27.9323 24.1668 27.7204 24.1668 27.4993V19.616L26.2918 18.191C26.4065 18.1155 26.5007 18.0129 26.5661 17.8922C26.6315 17.7716 26.6661 17.6366 26.6668 17.4993V12.4993C26.6668 12.2783 26.579 12.0664 26.4228 11.9101C26.2665 11.7538 26.0545 11.666 25.8335 11.666V11.666ZM17.5002 11.666C16.3951 11.666 15.3353 12.105 14.5539 12.8864C13.7725 13.6678 13.3335 14.7276 13.3335 15.8327V20.8327C13.3335 21.0537 13.4213 21.2657 13.5776 21.4219C13.7339 21.5782 13.9458 21.666 14.1668 21.666H16.6668V27.4993C16.6668 27.7204 16.7546 27.9323 16.9109 28.0886C17.0672 28.2449 17.2791 28.3327 17.5002 28.3327C17.7212 28.3327 17.9331 28.2449 18.0894 28.0886C18.2457 27.9323 18.3335 27.7204 18.3335 27.4993V12.4993C18.3335 12.2783 18.2457 12.0664 18.0894 11.9101C17.9331 11.7538 17.7212 11.666 17.5002 11.666V11.666ZM16.6668 19.9993H15.0002V15.8327C14.9999 15.3155 15.16 14.8109 15.4585 14.3885C15.757 13.9662 16.1792 13.6468 16.6668 13.4743V19.9993Z" fill="white"/>
</svg>
