<svg width="58" height="58" viewBox="0 0 58 58" fill="none" xmlns="http://www.w3.org/2000/svg">
<g filter="url(#filter0_d_468_4658)">
<circle cx="29" cy="27" r="25" fill="white"/>
</g>
<path d="M29.0001 36.3327C34.1547 36.3327 38.3334 32.154 38.3334 26.9993C38.3334 21.8447 34.1547 17.666 29.0001 17.666C23.8454 17.666 19.6667 21.8447 19.6667 26.9993C19.6667 32.154 23.8454 36.3327 29.0001 36.3327Z" stroke="black" stroke-width="2"/>
<path d="M28.9999 29.6673C30.4727 29.6673 31.6666 28.4734 31.6666 27.0007C31.6666 25.5279 30.4727 24.334 28.9999 24.334C27.5272 24.334 26.3333 25.5279 26.3333 27.0007C26.3333 28.4734 27.5272 29.6673 28.9999 29.6673Z" fill="black" stroke="black" stroke-width="2"/>
<path d="M29 17.6667V15M38.3333 27H41M29 39V36.3333M17 27H19.6667" stroke="black" stroke-width="2" stroke-linecap="round"/>
<defs>
<filter id="filter0_d_468_4658" x="0" y="0" width="58" height="58" filterUnits="userSpaceOnUse" color-interpolation-filters="sRGB">
<feFlood flood-opacity="0" result="BackgroundImageFix"/>
<feColorMatrix in="SourceAlpha" type="matrix" values="0 0 0 0 0 0 0 0 0 0 0 0 0 0 0 0 0 0 127 0" result="hardAlpha"/>
<feOffset dy="2"/>
<feGaussianBlur stdDeviation="2"/>
<feComposite in2="hardAlpha" operator="out"/>
<feColorMatrix type="matrix" values="0 0 0 0 0 0 0 0 0 0 0 0 0 0 0 0 0 0 0.2 0"/>
<feBlend mode="normal" in2="BackgroundImageFix" result="effect1_dropShadow_468_4658"/>
<feBlend mode="normal" in="SourceGraphic" in2="effect1_dropShadow_468_4658" result="shape"/>
</filter>
</defs>
</svg>
