<svg width="33" height="33" viewBox="0 0 33 33" fill="none" xmlns="http://www.w3.org/2000/svg">
<circle cx="16.5" cy="16.5" r="16.5" fill="#DDDDDD"/>
<path d="M21.6562 17.3574H17.3594V21.6543C17.3594 21.8822 17.2688 22.1008 17.1077 22.262C16.9465 22.4231 16.7279 22.5137 16.5 22.5137C16.2721 22.5137 16.0535 22.4231 15.8923 22.262C15.7312 22.1008 15.6406 21.8822 15.6406 21.6543V17.3574H11.3438C11.1158 17.3574 10.8972 17.2669 10.7361 17.1057C10.5749 16.9446 10.4844 16.726 10.4844 16.498C10.4844 16.2701 10.5749 16.0515 10.7361 15.8904C10.8972 15.7292 11.1158 15.6387 11.3438 15.6387H15.6406V11.3418C15.6406 11.1139 15.7312 10.8953 15.8923 10.7341C16.0535 10.573 16.2721 10.4824 16.5 10.4824C16.7279 10.4824 16.9465 10.573 17.1077 10.7341C17.2688 10.8953 17.3594 11.1139 17.3594 11.3418V15.6387H21.6562C21.8842 15.6387 22.1028 15.7292 22.2639 15.8904C22.4251 16.0515 22.5156 16.2701 22.5156 16.498C22.5156 16.726 22.4251 16.9446 22.2639 17.1057C22.1028 17.2669 21.8842 17.3574 21.6562 17.3574Z" fill="#888888"/>
</svg>
