<svg width="12" height="12" viewBox="0 0 12 12" fill="none" xmlns="http://www.w3.org/2000/svg">
<g clip-path="url(#clip0_1582_1227)">
<path d="M6 1C3.24 1 1 3.24 1 6C1 8.76 3.24 11 6 11C8.76 11 11 8.76 11 6C11 3.24 8.76 1 6 1ZM6 10C3.795 10 2 8.205 2 6C2 3.795 3.795 2 6 2C8.205 2 10 3.795 10 6C10 8.205 8.205 10 6 10ZM5.5 8H6.5V9H5.5V8ZM6.305 3.02C5.275 2.87 4.365 3.505 4.09 4.415C4 4.705 4.22 5 4.525 5H4.625C4.83 5 4.995 4.855 5.065 4.665C5.225 4.22 5.7 3.915 6.215 4.025C6.69 4.125 7.04 4.59 7 5.075C6.95 5.745 6.19 5.89 5.775 6.515C5.775 6.52 5.77 6.52 5.77 6.525C5.765 6.535 5.76 6.54 5.755 6.55C5.71 6.625 5.665 6.71 5.63 6.8C5.625 6.815 5.615 6.825 5.61 6.84C5.605 6.85 5.605 6.86 5.6 6.875C5.54 7.045 5.5 7.25 5.5 7.5H6.5C6.5 7.29 6.555 7.115 6.64 6.965C6.65 6.95 6.655 6.935 6.665 6.92C6.705 6.85 6.755 6.785 6.805 6.725C6.81 6.72 6.815 6.71 6.82 6.705C6.87 6.645 6.925 6.59 6.985 6.535C7.465 6.08 8.115 5.71 7.98 4.755C7.86 3.885 7.175 3.15 6.305 3.02Z" fill="#D9D9D9"/>
</g>
<defs>
<clipPath id="clip0_1582_1227">
<rect width="12" height="12" fill="white"/>
</clipPath>
</defs>
</svg>
