<svg width="40" height="40" viewBox="0 0 40 40" fill="none" xmlns="http://www.w3.org/2000/svg">
<path d="M20 40C31.0457 40 40 31.0457 40 20C40 8.9543 31.0457 0 20 0C8.9543 0 0 8.9543 0 20C0 31.0457 8.9543 40 20 40Z" fill="white"/>
<path d="M20 35C28.2843 35 35 28.2843 35 20C35 11.7157 28.2843 5 20 5C11.7157 5 5 11.7157 5 20C5 28.2843 11.7157 35 20 35Z" fill="#F1729B"/>
<path d="M27.9167 15.4167H25.4167V12.0833C25.4167 11.5833 25.0833 11.25 24.5833 11.25H15.4167C14.9167 11.25 14.5833 11.5833 14.5833 12.0833V15.4167H12.0833C11.5833 15.4167 11.25 15.75 11.25 16.25V27.9167C11.25 28.4167 11.5833 28.75 12.0833 28.75H27.9167C28.4167 28.75 28.75 28.4167 28.75 27.9167V16.25C28.75 15.75 28.4167 15.4167 27.9167 15.4167ZM16.25 25.4167H15.4167C14.9167 25.4167 14.5833 25.0833 14.5833 24.5833C14.5833 24.0833 14.9167 23.75 15.4167 23.75H16.25C16.75 23.75 17.0833 24.0833 17.0833 24.5833C17.0833 25.0833 16.75 25.4167 16.25 25.4167ZM16.25 22.0833H15.4167C14.9167 22.0833 14.5833 21.75 14.5833 21.25C14.5833 20.75 14.9167 20.4167 15.4167 20.4167H16.25C16.75 20.4167 17.0833 20.75 17.0833 21.25C17.0833 21.75 16.75 22.0833 16.25 22.0833ZM20.4167 25.4167H19.5833C19.0833 25.4167 18.75 25.0833 18.75 24.5833C18.75 24.0833 19.0833 23.75 19.5833 23.75H20.4167C20.9167 23.75 21.25 24.0833 21.25 24.5833C21.25 25.0833 20.9167 25.4167 20.4167 25.4167ZM20.4167 22.0833H19.5833C19.0833 22.0833 18.75 21.75 18.75 21.25C18.75 20.75 19.0833 20.4167 19.5833 20.4167H20.4167C20.9167 20.4167 21.25 20.75 21.25 21.25C21.25 21.75 20.9167 22.0833 20.4167 22.0833ZM21.25 17.5H20.8333V17.9167C20.8333 18.4167 20.5 18.75 20 18.75C19.5 18.75 19.1667 18.4167 19.1667 17.9167V17.5H18.75C18.25 17.5 17.9167 17.1667 17.9167 16.6667C17.9167 16.1667 18.25 15.8333 18.75 15.8333H19.1667V15.4167C19.1667 14.9167 19.5 14.5833 20 14.5833C20.5 14.5833 20.8333 14.9167 20.8333 15.4167V15.8333H21.25C21.75 15.8333 22.0833 16.1667 22.0833 16.6667C22.0833 17.1667 21.75 17.5 21.25 17.5ZM24.5833 25.4167H23.75C23.25 25.4167 22.9167 25.0833 22.9167 24.5833C22.9167 24.0833 23.25 23.75 23.75 23.75H24.5833C25.0833 23.75 25.4167 24.0833 25.4167 24.5833C25.4167 25.0833 25.0833 25.4167 24.5833 25.4167ZM24.5833 22.0833H23.75C23.25 22.0833 22.9167 21.75 22.9167 21.25C22.9167 20.75 23.25 20.4167 23.75 20.4167H24.5833C25.0833 20.4167 25.4167 20.75 25.4167 21.25C25.4167 21.75 25.0833 22.0833 24.5833 22.0833Z" fill="white"/>
</svg>
