<svg width="134" height="197" viewBox="0 0 134 197" fill="none" xmlns="http://www.w3.org/2000/svg">
<path d="M31 78L33 87L29 99.5L27.5 108.5L25 113L23.5 125L27.5 137L32.5 144L33.5 148.5L37 156L46.5 170.5L54.5 184.5L63 194H71.5L83.5 174L88.5 163L96.5 157L100 148V144L108 130L109 124V120.5L108 115L105.5 111V105L102 95.5L100 91.5L101 89L102 85V81V75.5V71L100 65L98 60H96L91.5 62.5L86 66.5L80 73.5L74.5 72.5L69.5 71H63.5L57.5 72L54.5 73.5L52 72.5L48.5 67.5L42 62.5L35 59L33 63.5L31 78Z" fill="white" stroke="white"/>
<path d="M64 134L63.5 128.5L67 126L69.5 129V133.5L67 134H64Z" fill="#F1729B"/>
<path d="M101 90.5L111 126L123.5 105.5L131 84.5L128.5 44.5L104.5 13.5L95 8L74 2H56L39 8L24.5 18L10 35L3.5 52.5L1 73L6.5 95L22.5 125L30.5 94L32 84.5L30.5 75L32 63L35 58.5L45 63L53 73L61.5 69.5H74L80 73L87.5 64L96 58.5H98L102 69.5V79.5V87L101 90.5Z" fill="#F1729B" stroke="#F1729B"/>
<path d="M30.6667 140L29 135L32.3333 136.667L34 137.083L33.4444 138.333L30.6667 140Z" fill="#F1729B"/>
<path d="M104.5 137L105.5 133L103.5 134.5L99.5 137.5L100.5 139.5L102.5 140.5L104.5 137Z" fill="#F1729B"/>
<path d="M66.9557 2.01417L67 2.01516L67.0443 2.01417C83.856 1.64135 100.156 8.63943 112.353 21.544C124.552 34.4502 131.637 52.2049 132 70.9196C131.976 82.4253 129.274 93.7231 124.163 103.73C123.484 105.049 122.753 106.341 121.988 107.629L121.974 107.652L121.961 107.676L102.227 143.043L102.212 143.069L75.2161 189.805C75.2137 189.809 75.2113 189.813 75.2089 189.817C74.231 191.448 72.9127 192.762 71.3887 193.659C69.8626 194.558 68.172 195.013 66.4682 195C64.7644 194.986 63.0791 194.504 61.5638 193.58C60.0508 192.659 58.7491 191.322 57.7921 189.675L31.7876 143.078L31.7875 143.078L12.0393 107.685L9.82117 103.71C4.7196 93.7102 2.02324 82.4234 2.00004 70.929C2.36092 52.2126 9.44515 34.4554 21.6439 21.5471C33.8409 8.64065 50.1427 1.64136 66.9557 2.01417Z" stroke="black" stroke-width="4"/>
<path d="M54.3603 110.082C54.9187 106.85 53.5537 103.915 51.3115 103.528C49.0693 103.141 46.7989 105.447 46.2405 108.68C45.6822 111.913 47.0472 114.847 49.2894 115.234C51.5316 115.622 53.8019 113.315 54.3603 110.082Z" fill="black"/>
<path d="M84.0637 115.547C86.3164 115.16 87.6904 112.214 87.1327 108.966C86.575 105.718 84.2968 103.399 82.0441 103.786C79.7915 104.173 78.4174 107.119 78.9751 110.367C79.5328 113.615 81.8111 115.934 84.0637 115.547Z" fill="black"/>
<path d="M66.5302 112.05C63.7435 111.991 60.9743 112.504 58.3941 113.558C55.8139 114.613 53.4777 116.186 51.5302 118.18C51.3018 118.464 51.1899 118.825 51.2168 119.188C51.2438 119.552 51.4077 119.892 51.6755 120.139C51.9433 120.387 52.2951 120.523 52.6597 120.522C53.0243 120.52 53.3747 120.38 53.6402 120.13C55.563 118.118 57.975 116.64 60.6402 115.84C61.0562 116.76 61.677 117.572 62.4553 118.215C63.2335 118.858 64.1484 119.315 65.1302 119.55V124.55C63.5202 126.55 61.8402 127.64 60.1302 127.71H59.9402C58.2411 127.579 56.653 126.816 55.4902 125.57C55.3688 125.419 55.218 125.294 55.047 125.202C54.8761 125.11 54.6883 125.054 54.4951 125.037C54.3019 125.02 54.1072 125.042 53.9227 125.102C53.7382 125.162 53.5677 125.258 53.4214 125.385C53.2751 125.513 53.1561 125.668 53.0715 125.843C52.9868 126.018 52.9383 126.207 52.9289 126.401C52.9194 126.595 52.9492 126.789 53.0165 126.971C53.0837 127.152 53.187 127.319 53.3202 127.46C53.4402 127.59 56.2302 130.72 60.2102 130.58C61.4312 130.478 62.6195 130.133 63.7049 129.564C64.7903 128.996 65.751 128.216 66.5302 127.27C67.3155 128.214 68.2822 128.99 69.3729 129.553C70.4636 130.117 71.6562 130.456 72.8802 130.55H73.1502C75.6804 130.417 78.0575 129.297 79.7702 127.43C80.003 127.14 80.1145 126.771 80.0815 126.401C80.0484 126.03 79.8734 125.687 79.5929 125.443C79.3125 125.198 78.9484 125.072 78.577 125.09C78.2055 125.108 77.8555 125.27 77.6002 125.54C76.3936 126.822 74.7385 127.589 72.9802 127.68C71.2702 127.61 69.5802 126.54 67.9802 124.52V119.52C68.9619 119.285 69.8769 118.828 70.6551 118.185C71.4333 117.542 72.0542 116.73 72.4702 115.81C75.1354 116.61 77.5474 118.088 79.4702 120.1C79.7281 120.37 80.0809 120.529 80.454 120.544C80.8272 120.559 81.1915 120.429 81.4702 120.18C81.7403 119.922 81.8996 119.569 81.9145 119.196C81.9294 118.823 81.7988 118.459 81.5502 118.18C79.6004 116.183 77.2609 114.609 74.6771 113.554C72.0933 112.5 69.3202 111.988 66.5302 112.05Z" fill="black"/>
<path d="M107.75 110.24C107.398 103.722 105.652 97.3557 102.63 91.57C107.1 71.45 100.03 58.57 99.63 57.97C99.4097 57.5831 99.0619 57.2849 98.646 57.1262C98.2301 56.9675 97.772 56.9582 97.35 57.1C89.35 59.8 83.35 65.83 79.26 71.23C70.9835 68.3904 61.9965 68.3904 53.72 71.23C49.7 65.83 43.65 59.8 35.67 57.1C35.2446 56.9607 34.784 56.9745 34.3677 57.1388C33.9514 57.3031 33.6056 57.6077 33.39 58C33.03 58.64 25.96 71.48 30.39 91.6C27.3862 97.3797 25.6541 103.735 25.31 110.24C23.1906 113.203 22.0349 116.747 22 120.39C22 135.06 41.98 147 66.53 147C91.08 147 111.06 135.06 111.06 120.39C111.025 116.747 109.869 113.203 107.75 110.24ZM97.03 61.33C98.47 64.72 101.47 73.82 99.6 86.62C98.95 85.7 98.28 84.81 97.6 83.95C98.4771 78.1529 97.8998 72.2287 95.92 66.71C95.778 66.3778 95.5155 66.1117 95.1853 65.9652C94.855 65.8186 94.4816 65.8025 94.14 65.92C90.14 67.25 86.98 70.36 84.59 73.47C84.09 73.21 83.59 72.96 83.05 72.72C86.43 68.39 91.13 63.79 97.03 61.33ZM36.03 61.33C41.93 63.79 46.63 68.39 50.03 72.72C49.51 72.96 49.03 73.21 48.49 73.47C46.1 70.36 42.89 67.25 38.94 65.92C38.5984 65.8025 38.2249 65.8186 37.8947 65.9652C37.5645 66.1117 37.302 66.3778 37.16 66.71C35.182 72.2469 34.6216 78.1909 35.53 84C34.82 84.85 34.15 85.74 33.53 86.65C31.59 73.82 34.6 64.72 36.03 61.33ZM66.53 143.17C44.09 143.17 25.83 133 25.83 120.39C25.8824 117.353 26.9057 114.413 28.75 112C28.9622 111.707 29.087 111.361 29.11 111C30.05 89.67 46.48 73 66.53 73C86.58 73 103.01 89.64 103.95 111C103.973 111.361 104.098 111.707 104.31 112C106.154 114.413 107.178 117.353 107.23 120.39C107.23 133 88.97 143.17 66.53 143.17Z" fill="black"/>
<path d="M68.6808 128V131.5C68.6808 132.536 67.9535 133.5 66.5824 133.5C65.2112 133.5 64.3185 132.534 64.3185 131.5V128H62V131.773C62 133.82 63.8811 135.5 66.5824 135.5C69.2843 135.5 71 133.82 71 131.773V128H68.6808Z" fill="black"/>
<path d="M38.1194 158.896C35.5481 156.259 34.1054 152.654 33.9182 149.393C33.7326 146.158 34.7714 143.641 36.6566 142.484C40.2818 141.359 42.507 141.115 44.4212 141.636C46.3828 142.171 48.2848 143.58 51.098 146.465C53.8371 149.274 54.9404 151.287 55.2651 153.237C55.5952 155.219 55.1696 157.366 54.2568 160.616C53.1428 162.722 50.6948 163.737 47.5139 163.455C44.2953 163.171 40.7072 161.55 38.1194 158.896Z" fill="white" stroke="black" stroke-width="3"/>
<path d="M44.0859 155.232C44.7448 154.73 44.8718 153.789 44.3697 153.13C43.8676 152.471 42.9263 152.344 42.2674 152.846L44.0859 155.232ZM47.5058 159.283C47.9942 158.614 47.8476 157.675 47.1784 157.187C46.5092 156.699 45.5708 156.845 45.0825 157.514L47.5058 159.283ZM40.6066 151.073C41.3778 150.771 41.7576 149.9 41.4549 149.129C41.1523 148.358 40.2818 147.978 39.5107 148.281L40.6066 151.073ZM38.1666 159.743L44.0859 155.232L42.2674 152.846L36.3481 157.357L38.1666 159.743ZM44.2459 163.75L47.5058 159.283L45.0825 157.514L41.8226 161.982L44.2459 163.75ZM34.7258 153.381L40.6066 151.073L39.5107 148.281L33.6299 150.588L34.7258 153.381Z" fill="black"/>
<path d="M94.8806 158.896C97.4519 156.259 98.8946 152.654 99.0818 149.393C99.2674 146.158 98.2286 143.641 96.3434 142.484C92.7182 141.359 90.493 141.115 88.5788 141.636C86.6172 142.171 84.7152 143.58 81.902 146.465C79.1629 149.274 78.0596 151.287 77.7349 153.237C77.4048 155.219 77.8304 157.366 78.7432 160.616C79.8572 162.722 82.3052 163.737 85.4861 163.455C88.7047 163.171 92.2928 161.55 94.8806 158.896Z" fill="white" stroke="black" stroke-width="3"/>
<path d="M88.9146 155.23C88.2557 154.728 88.1286 153.787 88.6308 153.128C89.1329 152.469 90.0741 152.342 90.733 152.844L88.9146 155.23ZM85.4947 159.281C85.0063 158.612 85.1529 157.673 85.8221 157.185C86.4913 156.697 87.4297 156.843 87.918 157.512L85.4947 159.281ZM92.3939 151.071C91.6227 150.769 91.2429 149.898 91.5455 149.127C91.8482 148.356 92.7187 147.976 93.4898 148.279L92.3939 151.071ZM94.8339 159.741L88.9146 155.23L90.733 152.844L96.6523 157.355L94.8339 159.741ZM88.7546 163.748L85.4947 159.281L87.918 157.512L91.1779 161.98L88.7546 163.748ZM98.2747 153.379L92.3939 151.071L93.4898 148.279L99.3706 150.586L98.2747 153.379Z" fill="black"/>
<path d="M31.1527 142.765C32.558 138.375 34.6181 137.362 36 137" stroke="black" stroke-width="3"/>
<path d="M52.4389 101.4C48.2309 105.229 45.5756 105.401 44.0001 105.197" stroke="black" stroke-width="3"/>
<path d="M88.0023 105.196C82.3164 104.985 80.3004 103.248 79.3179 102" stroke="black" stroke-width="3"/>
<path d="M102.25 142.385C100.531 138.111 98.4038 137.251 97.0001 136.99" stroke="black" stroke-width="3"/>
<path fill-rule="evenodd" clip-rule="evenodd" d="M66.6179 170.633C68.2177 170.019 70.304 170.767 71.7329 172.183C72.6055 173.049 72.8979 174.052 72.8062 174.813C72.7151 175.568 71.6307 175.931 70.7168 175.69C70.0197 175.505 69.2976 175.454 68.64 175.678C68.0083 175.971 67.5221 176.505 67.1459 177.121C66.6524 177.928 65.6172 178.414 65.0293 177.93C64.4387 177.442 63.9563 176.515 63.9891 175.286C64.0447 173.276 65.0371 171.294 66.6179 170.633ZM60.126 170.965C59.5681 171.571 59.8048 172.701 60.6545 173.488C61.5041 174.275 62.6446 174.424 63.2024 173.818C63.7603 173.212 63.5236 172.082 62.6739 171.295C61.8243 170.509 60.6831 170.361 60.126 170.965ZM62.111 166.176C62.9694 165.68 64.2219 166.246 64.9085 167.438C65.5943 168.633 65.4548 170.002 64.5957 170.499C63.7374 170.994 62.4849 170.429 61.7983 169.236C61.1125 168.042 61.2527 166.671 62.111 166.176ZM71.5427 166.39C70.7206 166.337 69.9991 167.232 69.928 168.388C69.8573 169.545 70.4664 170.526 71.288 170.578C72.11 170.631 72.8316 169.735 72.9027 168.579C72.9738 167.424 72.3647 166.443 71.5427 166.39ZM66.7991 164.297C67.762 164.062 68.8103 164.957 69.1391 166.294C69.4678 167.632 68.9527 168.906 67.9881 169.14C67.0253 169.374 65.9769 168.479 65.6482 167.142C65.3194 165.805 65.8345 164.531 66.7991 164.297Z" fill="black"/>
</svg>
