<svg width="68" height="68" viewBox="0 0 68 68" fill="none" xmlns="http://www.w3.org/2000/svg">
<g filter="url(#filter0_d_142_1103)">
<rect x="4" y="2" width="60" height="60" rx="20" fill="#F7F7F7"/>
</g>
<path d="M49.8873 28.8013C47.8488 28.554 44.6601 27.3674 43.4456 26.8938C42.743 22.5196 39.4187 21.7107 36.0024 21.6848L34.925 13.7973C34.8798 13.4714 34.665 13.1952 34.3597 13.0699C34.0528 12.9447 33.7039 12.9897 33.4406 13.1888C29.9177 15.8767 28.2312 21.2702 27.7643 23.0205C21.9541 26.2641 16.3589 36.0475 16.1199 36.4717C15.8679 36.9149 16.0262 37.4769 16.472 37.7274C16.9194 37.9763 17.4848 37.8189 17.7368 37.3757C17.7901 37.2778 23.5259 27.2439 28.976 24.4692V24.4676C29.2167 24.344 29.3911 24.1192 29.4509 23.8558C29.4509 23.798 30.6333 18.8734 33.3259 15.8192L34.2773 22.7365V22.7381C34.3387 23.2134 34.7587 23.5602 35.24 23.5345C39.6803 23.4238 41.3637 24.5012 41.6916 27.6452C41.7255 27.984 41.942 28.2746 42.2569 28.4063C42.4475 28.4802 46.88 30.301 49.679 30.6382C49.9569 30.6703 50.2169 31.1842 50.1507 31.9533C49.9811 33.9107 47.5711 37.4977 39.6723 37.0916C39.3121 37.0707 38.9729 37.2602 38.8049 37.5765C38.6595 37.8479 35.2448 44.2435 34.2563 48.8856C34.1368 49.3786 34.4421 49.8747 34.9379 49.9952C35.0042 50.0016 35.0704 50.0016 35.1366 49.9952C35.5727 49.9936 35.9491 49.6917 36.0428 49.2678C36.8278 45.6052 39.3509 40.557 40.1779 38.9543C49.0022 39.2096 51.7806 34.6254 51.9823 32.1093C52.1358 30.3301 51.2764 28.9699 49.8873 28.8013Z" fill="#48484A"/>
<defs>
<filter id="filter0_d_142_1103" x="0" y="0" width="68" height="68" filterUnits="userSpaceOnUse" color-interpolation-filters="sRGB">
<feFlood flood-opacity="0" result="BackgroundImageFix"/>
<feColorMatrix in="SourceAlpha" type="matrix" values="0 0 0 0 0 0 0 0 0 0 0 0 0 0 0 0 0 0 127 0" result="hardAlpha"/>
<feOffset dy="2"/>
<feGaussianBlur stdDeviation="2"/>
<feComposite in2="hardAlpha" operator="out"/>
<feColorMatrix type="matrix" values="0 0 0 0 0 0 0 0 0 0 0 0 0 0 0 0 0 0 0.1 0"/>
<feBlend mode="normal" in2="BackgroundImageFix" result="effect1_dropShadow_142_1103"/>
<feBlend mode="normal" in="SourceGraphic" in2="effect1_dropShadow_142_1103" result="shape"/>
</filter>
</defs>
</svg>
