<svg width="64" height="64" viewBox="0 0 64 64" fill="none" xmlns="http://www.w3.org/2000/svg">
<path d="M60.2441 27.332C56.6201 26.9043 50.9513 24.8518 48.7922 24.0324C47.5431 16.4664 41.6333 15.0671 35.5599 15.0223L33.6445 1.37914C33.5641 0.815321 33.1822 0.337632 32.6395 0.120982C32.0939 -0.0956604 31.4736 -0.0178882 31.0055 0.326511C24.7426 4.97598 21.7443 14.3053 20.9144 17.3328C10.5851 22.9433 0.638054 39.866 0.21315 40.5997C-0.234823 41.3663 0.046599 42.3384 0.839156 42.7717C1.63457 43.2022 2.63963 42.93 3.08762 42.1635C3.18239 41.994 13.3794 24.6381 23.0684 19.8387V19.8359C23.4963 19.622 23.8064 19.2332 23.9126 18.7777C23.9126 18.6777 26.0147 10.1593 30.8016 4.87638L32.493 16.8415V16.8443C32.6021 17.6664 33.3488 18.2664 34.2044 18.2219C42.0983 18.0303 45.091 19.894 45.6739 25.3322C45.7342 25.9182 46.119 26.4209 46.679 26.6487C47.0178 26.7765 54.8977 29.9261 59.8738 30.5094C60.3677 30.5649 48.91 39.2693 48.7922 40.5997C48.4907 43.9854 56.1264 42.3744 42.0841 41.6719C41.4438 41.6358 40.8407 41.9636 40.5421 42.5107C40.2836 42.9801 34.2131 54.0429 32.4557 62.0725C32.2432 62.9251 32.7859 63.7833 33.6674 63.9917C33.7852 64.0028 33.9029 64.0028 34.0206 63.9917C34.796 63.9889 35.465 63.4667 35.6316 62.7335C37.0272 56.3981 41.5126 47.6662 42.9829 44.8939C58.6705 45.3355 63.6099 37.406 63.9686 33.0539C64.2414 29.9765 62.7137 27.6237 60.2441 27.332Z" fill="#111111"/>
</svg>
