<svg width="26" height="38" viewBox="0 0 26 38" fill="none" xmlns="http://www.w3.org/2000/svg">
<path d="M13 0.00282888C9.62198 -0.071636 6.35517 1.32699 3.91752 3.89132C1.47987 6.45565 0.0708192 9.97589 0 13.6784C0.00398799 15.9588 0.542253 18.1998 1.56323 20.1867L1.99711 20.9597L5.82886 27.7868L10.8761 36.778C11.0928 37.1498 11.3909 37.4564 11.7433 37.6699C12.0957 37.8833 12.4911 37.9967 12.8937 37.9999C13.2963 38.0031 13.6932 37.8959 14.0484 37.6881C14.4035 37.4803 14.7056 37.1784 14.9272 36.81L20.1711 27.785L24.0029 20.9579C24.154 20.705 24.3002 20.4485 24.4367 20.1849C25.4576 18.1979 25.9959 15.957 26 13.6766C25.9288 9.9744 24.5195 6.45464 22.0819 3.89069C19.6443 1.32675 16.3777 -0.0716398 13 0.00282888Z" fill="#F1729B"/>
<path d="M13 21C17.4183 21 21 17.4183 21 13C21 8.58172 17.4183 5 13 5C8.58172 5 5 8.58172 5 13C5 17.4183 8.58172 21 13 21Z" fill="white"/>
</svg>
