<svg width="44" height="44" viewBox="0 0 44 44" fill="none" xmlns="http://www.w3.org/2000/svg">
<g filter="url(#filter0_f_581_4868)">
<path d="M22.0002 43C17.8468 43 13.7867 41.7684 10.3332 39.4609C6.87981 37.1534 4.18819 33.8736 2.59875 30.0364C1.00931 26.1991 0.593443 21.9767 1.40373 17.9031C2.21402 13.8295 4.21408 10.0877 7.15098 7.15077C10.0879 4.21386 13.8297 2.21381 17.9033 1.40352C21.9769 0.593229 26.1993 1.0091 30.0366 2.59854C33.8738 4.18798 37.1536 6.8796 39.4611 10.333C41.7686 13.7865 43.0002 17.8466 43.0002 22C42.9941 27.5677 40.7796 32.9055 36.8427 36.8425C32.9058 40.7794 27.5679 42.9939 22.0002 43Z" fill="#007AFF" fill-opacity="0.18"/>
<path d="M22 36C19.2311 36 16.5243 35.1789 14.222 33.6406C11.9197 32.1022 10.1253 29.9157 9.06569 27.3576C8.00607 24.7994 7.72882 21.9845 8.26901 19.2687C8.80921 16.553 10.1426 14.0584 12.1005 12.1005C14.0584 10.1426 16.553 8.80921 19.2687 8.26901C21.9845 7.72882 24.7994 8.00607 27.3576 9.06569C29.9157 10.1253 32.1022 11.9197 33.6406 14.222C35.1789 16.5243 36 19.2311 36 22C35.9959 25.7118 34.5196 29.2704 31.895 31.895C29.2704 34.5196 25.7118 35.9959 22 36Z" fill="white"/>
</g>
<path d="M22 32C27.5228 32 32 27.5228 32 22C32 16.4772 27.5228 12 22 12C16.4772 12 12 16.4772 12 22C12 27.5228 16.4772 32 22 32Z" fill="#007AFF"/>
<defs>
<filter id="filter0_f_581_4868" x="0" y="0" width="44" height="44" filterUnits="userSpaceOnUse" color-interpolation-filters="sRGB">
<feFlood flood-opacity="0" result="BackgroundImageFix"/>
<feBlend mode="normal" in="SourceGraphic" in2="BackgroundImageFix" result="shape"/>
<feGaussianBlur stdDeviation="0.5" result="effect1_foregroundBlur_581_4868"/>
</filter>
</defs>
</svg>
