<svg width="40" height="40" viewBox="0 0 40 40" fill="none" xmlns="http://www.w3.org/2000/svg">
<path d="M20 40C31.0457 40 40 31.0457 40 20C40 8.9543 31.0457 0 20 0C8.9543 0 0 8.9543 0 20C0 31.0457 8.9543 40 20 40Z" fill="white"/>
<path d="M20 35C28.2843 35 35 28.2843 35 20C35 11.7157 28.2843 5 20 5C11.7157 5 5 11.7157 5 20C5 28.2843 11.7157 35 20 35Z" fill="#F1729B"/>
<path d="M26.6667 16.6664L21.6667 12.2831C21.2084 11.8731 20.615 11.6465 20.0001 11.6465C19.3851 11.6465 18.7918 11.8731 18.3334 12.2831L13.3334 16.6664C13.0687 16.9032 12.8575 17.1936 12.7138 17.5183C12.5701 17.843 12.4973 18.1947 12.5001 18.5498V25.8331C12.5001 26.4961 12.7635 27.132 13.2323 27.6009C13.7012 28.0697 14.337 28.3331 15.0001 28.3331H25.0001C25.6631 28.3331 26.299 28.0697 26.7678 27.6009C27.2367 27.132 27.5001 26.4961 27.5001 25.8331V18.5414C27.5017 18.1877 27.4283 17.8377 27.2846 17.5145C27.141 17.1913 26.9304 16.9022 26.6667 16.6664V16.6664ZM21.6667 26.6664H18.3334V22.4998C18.3334 22.2787 18.4212 22.0668 18.5775 21.9105C18.7338 21.7542 18.9457 21.6664 19.1667 21.6664H20.8334C21.0544 21.6664 21.2664 21.7542 21.4227 21.9105C21.5789 22.0668 21.6667 22.2787 21.6667 22.4998V26.6664ZM25.8334 25.8331C25.8334 26.0541 25.7456 26.2661 25.5893 26.4223C25.4331 26.5786 25.2211 26.6664 25.0001 26.6664H23.3334V22.4998C23.3334 21.8367 23.07 21.2008 22.6012 20.732C22.1323 20.2632 21.4965 19.9998 20.8334 19.9998H19.1667C18.5037 19.9998 17.8678 20.2632 17.399 20.732C16.9301 21.2008 16.6667 21.8367 16.6667 22.4998V26.6664H15.0001C14.7791 26.6664 14.5671 26.5786 14.4108 26.4223C14.2545 26.2661 14.1667 26.0541 14.1667 25.8331V18.5414C14.1669 18.4231 14.1922 18.3062 14.2411 18.1984C14.2899 18.0906 14.3612 17.9945 14.4501 17.9164L19.4501 13.5414C19.6022 13.4078 19.7977 13.3341 20.0001 13.3341C20.2025 13.3341 20.398 13.4078 20.5501 13.5414L25.5501 17.9164C25.639 17.9945 25.7102 18.0906 25.7591 18.1984C25.8079 18.3062 25.8333 18.4231 25.8334 18.5414V25.8331Z" fill="white"/>
<path d="M17.5 21.5V27H22.5L22 21.5H17.5Z" fill="white"/>
</svg>
