<svg width="134" height="237" viewBox="0 0 134 237" fill="none" xmlns="http://www.w3.org/2000/svg">
<path d="M31 118L33 127L29 139.5L27.5 148.5L25 153L23.5 165L27.5 177L32.5 184L33.5 188.5L37 196L46.5 210.5L54.5 224.5L63 234H71.5L83.5 214L88.5 203L96.5 197L100 188V184L108 170L109 164V160.5L108 155L105.5 151V145L102 135.5L100 131.5L101 129L102 125V121V115.5V111L100 105L98 100H96L91.5 102.5L86 106.5L80 113.5L74.5 112.5L69.5 111H63.5L57.5 112L54.5 113.5L52 112.5L48.5 107.5L42 102.5L35 99L33 103.5L31 118Z" fill="white" stroke="white"/>
<path d="M64 174L63.5 168.5L67 166L69.5 169V173.5L67 174H64Z" fill="#F1729B"/>
<path d="M101 130.5L111 166L123.5 145.5L131 124.5L128.5 84.5L104.5 53.5L95 48L74 42H56L39 48L24.5 58L10 75L3.5 92.5L1 113L6.5 135L22.5 165L30.5 134L32 124.5L30.5 115L32 103L35 98.5L45 103L53 113L61.5 109.5H74L80 113L87.5 104L96 98.5H98L102 109.5V119.5V127L101 130.5Z" fill="#F1729B" stroke="#F1729B"/>
<path d="M30.6667 180L29 175L32.3333 176.667L34 177.083L33.4444 178.333L30.6667 180Z" fill="#F1729B"/>
<path d="M104.5 177L105.5 173L103.5 174.5L99.5 177.5L100.5 179.5L102.5 180.5L104.5 177Z" fill="#F1729B"/>
<path d="M66.9557 42.0142L67 42.0152L67.0443 42.0142C83.856 41.6413 100.156 48.6394 112.353 61.544C124.552 74.4502 131.637 92.2049 132 110.92C131.976 122.425 129.274 133.723 124.163 143.73C123.484 145.049 122.753 146.341 121.988 147.629L121.974 147.652L121.961 147.676L102.227 183.043L102.212 183.069L75.2161 229.805C75.2137 229.809 75.2113 229.813 75.2089 229.817C74.231 231.448 72.9127 232.762 71.3887 233.659C69.8626 234.558 68.172 235.013 66.4682 235C64.7644 234.986 63.0791 234.504 61.5638 233.58C60.0508 232.659 58.7491 231.322 57.7921 229.675L31.7876 183.078L31.7875 183.078L12.0393 147.685L9.82117 143.71C4.7196 133.71 2.02324 122.423 2.00004 110.929C2.36092 92.2126 9.44515 74.4554 21.6439 61.5471C33.8409 48.6406 50.1427 41.6414 66.9557 42.0142Z" stroke="black" stroke-width="4"/>
<path d="M54.3605 150.082C54.9189 146.85 53.5539 143.915 51.3117 143.528C49.0695 143.141 46.7992 145.447 46.2408 148.68C45.6824 151.913 47.0474 154.847 49.2896 155.234C51.5318 155.622 53.8022 153.315 54.3605 150.082Z" fill="black"/>
<path d="M84.0637 155.547C86.3164 155.16 87.6904 152.214 87.1327 148.966C86.575 145.718 84.2968 143.399 82.0441 143.786C79.7915 144.173 78.4174 147.119 78.9751 150.367C79.5328 153.615 81.8111 155.934 84.0637 155.547Z" fill="black"/>
<path d="M66.5299 152.05C63.7432 151.991 60.974 152.504 58.3938 153.558C55.8136 154.613 53.4774 156.186 51.5299 158.18C51.3016 158.464 51.1896 158.825 51.2166 159.188C51.2436 159.552 51.4075 159.892 51.6753 160.139C51.9431 160.387 52.2948 160.523 52.6595 160.522C53.0241 160.52 53.3745 160.38 53.6399 160.13C55.5628 158.118 57.9747 156.64 60.6399 155.84C61.0559 156.76 61.6768 157.572 62.455 158.215C63.2332 158.858 64.1482 159.315 65.1299 159.55V164.55C63.5199 166.55 61.8399 167.64 60.1299 167.71H59.9399C58.2409 167.579 56.6527 166.816 55.4899 165.57C55.3685 165.419 55.2178 165.294 55.0468 165.202C54.8758 165.11 54.6881 165.054 54.4949 165.037C54.3017 165.02 54.107 165.042 53.9225 165.102C53.7379 165.162 53.5674 165.258 53.4212 165.385C53.2749 165.513 53.1559 165.668 53.0712 165.843C52.9866 166.018 52.9381 166.207 52.9286 166.401C52.9192 166.595 52.949 166.789 53.0162 166.971C53.0835 167.152 53.1868 167.319 53.3199 167.46C53.4399 167.59 56.2299 170.72 60.2099 170.58C61.431 170.478 62.6192 170.133 63.7046 169.564C64.7901 168.996 65.7507 168.216 66.5299 167.27C67.3153 168.214 68.2819 168.99 69.3726 169.553C70.4633 170.117 71.656 170.456 72.8799 170.55H73.1499C75.6801 170.417 78.0572 169.297 79.7699 167.43C80.0027 167.14 80.1143 166.771 80.0812 166.401C80.0482 166.03 79.8731 165.687 79.5927 165.443C79.3123 165.198 78.9482 165.072 78.5768 165.09C78.2053 165.108 77.8553 165.27 77.5999 165.54C76.3933 166.822 74.7382 167.589 72.9799 167.68C71.2699 167.61 69.5799 166.54 67.9799 164.52V159.52C68.9617 159.285 69.8767 158.828 70.6549 158.185C71.4331 157.542 72.0539 156.73 72.4699 155.81C75.1352 156.61 77.5471 158.088 79.4699 160.1C79.7279 160.37 80.0806 160.529 80.4538 160.544C80.8269 160.559 81.1913 160.429 81.4699 160.18C81.74 159.922 81.8993 159.569 81.9142 159.196C81.9292 158.823 81.7985 158.459 81.5499 158.18C79.6001 156.183 77.2607 154.609 74.6769 153.554C72.093 152.5 69.32 151.988 66.5299 152.05Z" fill="black"/>
<path d="M107.75 150.24C107.398 143.722 105.652 137.356 102.63 131.57C107.1 111.45 100.03 98.57 99.63 97.97C99.4097 97.5831 99.0619 97.2849 98.646 97.1262C98.2301 96.9675 97.772 96.9582 97.35 97.1C89.35 99.8 83.35 105.83 79.26 111.23C70.9835 108.39 61.9965 108.39 53.72 111.23C49.7 105.83 43.65 99.8 35.67 97.1C35.2446 96.9607 34.784 96.9745 34.3677 97.1388C33.9514 97.3031 33.6056 97.6077 33.39 98C33.03 98.64 25.96 111.48 30.39 131.6C27.3862 137.38 25.6541 143.735 25.31 150.24C23.1906 153.203 22.0349 156.747 22 160.39C22 175.06 41.98 187 66.53 187C91.08 187 111.06 175.06 111.06 160.39C111.025 156.747 109.869 153.203 107.75 150.24ZM97.03 101.33C98.47 104.72 101.47 113.82 99.6 126.62C98.95 125.7 98.28 124.81 97.6 123.95C98.4771 118.153 97.8998 112.229 95.92 106.71C95.778 106.378 95.5155 106.112 95.1853 105.965C94.855 105.819 94.4816 105.802 94.14 105.92C90.14 107.25 86.98 110.36 84.59 113.47C84.09 113.21 83.59 112.96 83.05 112.72C86.43 108.39 91.13 103.79 97.03 101.33ZM36.03 101.33C41.93 103.79 46.63 108.39 50.03 112.72C49.51 112.96 49.03 113.21 48.49 113.47C46.1 110.36 42.89 107.25 38.94 105.92C38.5984 105.802 38.2249 105.819 37.8947 105.965C37.5645 106.112 37.302 106.378 37.16 106.71C35.182 112.247 34.6216 118.191 35.53 124C34.82 124.85 34.15 125.74 33.53 126.65C31.59 113.82 34.6 104.72 36.03 101.33ZM66.53 183.17C44.09 183.17 25.83 173 25.83 160.39C25.8824 157.353 26.9057 154.413 28.75 152C28.9622 151.707 29.087 151.361 29.11 151C30.05 129.67 46.48 113 66.53 113C86.58 113 103.01 129.64 103.95 151C103.973 151.361 104.098 151.707 104.31 152C106.154 154.413 107.178 157.353 107.23 160.39C107.23 173 88.97 183.17 66.53 183.17Z" fill="black"/>
<path d="M68.6808 168V171.5C68.6808 172.536 67.9535 173.5 66.5824 173.5C65.2112 173.5 64.3185 172.534 64.3185 171.5V168H62V171.773C62 173.82 63.8811 175.5 66.5824 175.5C69.2843 175.5 71 173.82 71 171.773V168H68.6808Z" fill="black"/>
<path d="M38.1194 198.895C35.5481 196.258 34.1054 192.653 33.9182 189.392C33.7326 186.157 34.7714 183.64 36.6566 182.484C40.2818 181.358 42.507 181.114 44.4212 181.636C46.3828 182.17 48.2848 183.579 51.098 186.464C53.8371 189.273 54.9404 191.287 55.2651 193.236C55.5952 195.218 55.1696 197.366 54.2568 200.616C53.1428 202.722 50.6948 203.736 47.5139 203.455C44.2953 203.17 40.7072 201.549 38.1194 198.895Z" fill="white" stroke="black" stroke-width="3"/>
<path d="M44.0859 195.231C44.7448 194.729 44.8718 193.788 44.3697 193.129C43.8676 192.47 42.9263 192.343 42.2674 192.845L44.0859 195.231ZM47.5058 199.282C47.9942 198.613 47.8476 197.675 47.1784 197.186C46.5092 196.698 45.5708 196.845 45.0825 197.514L47.5058 199.282ZM40.6066 191.073C41.3778 190.77 41.7576 189.9 41.4549 189.128C41.1523 188.357 40.2818 187.977 39.5107 188.28L40.6066 191.073ZM38.1666 199.742L44.0859 195.231L42.2674 192.845L36.3481 197.356L38.1666 199.742ZM44.2459 203.749L47.5058 199.282L45.0825 197.514L41.8226 201.981L44.2459 203.749ZM34.7258 193.38L40.6066 191.073L39.5107 188.28L33.6299 190.588L34.7258 193.38Z" fill="black"/>
<path d="M94.8806 198.895C97.4519 196.258 98.8946 192.653 99.0818 189.392C99.2674 186.157 98.2286 183.64 96.3434 182.484C92.7182 181.358 90.493 181.114 88.5788 181.636C86.6172 182.17 84.7152 183.579 81.902 186.464C79.1629 189.273 78.0596 191.287 77.7349 193.236C77.4048 195.218 77.8304 197.366 78.7432 200.616C79.8572 202.722 82.3052 203.736 85.4861 203.455C88.7047 203.17 92.2928 201.549 94.8806 198.895Z" fill="white" stroke="black" stroke-width="3"/>
<path d="M88.9143 195.229C88.2555 194.727 88.1284 193.786 88.6305 193.127C89.1327 192.468 90.0739 192.341 90.7328 192.843L88.9143 195.229ZM85.4944 199.28C85.0061 198.611 85.1527 197.673 85.8219 197.184C86.4911 196.696 87.4294 196.843 87.9178 197.512L85.4944 199.28ZM92.3937 191.071C91.6225 190.768 91.2427 189.898 91.5453 189.126C91.8479 188.355 92.7184 187.975 93.4896 188.278L92.3937 191.071ZM94.8337 199.74L88.9143 195.229L90.7328 192.843L96.6521 197.354L94.8337 199.74ZM88.7543 203.747L85.4944 199.28L87.9178 197.512L91.1777 201.979L88.7543 203.747ZM98.2744 193.378L92.3937 191.071L93.4896 188.278L99.3704 190.586L98.2744 193.378Z" fill="black"/>
<path d="M31.1527 182.765C32.558 178.375 34.6181 177.362 36 177" stroke="black" stroke-width="3"/>
<path d="M102.249 182.385C100.53 178.111 98.4036 177.251 96.9999 176.99" stroke="black" stroke-width="3"/>
<path fill-rule="evenodd" clip-rule="evenodd" d="M66.6181 210.633C68.218 210.019 70.3043 210.767 71.7331 212.183C72.6058 213.049 72.8981 214.052 72.8065 214.813C72.7154 215.568 71.631 215.931 70.717 215.69C70.0199 215.505 69.2979 215.454 68.6403 215.678C68.0085 215.971 67.5223 216.505 67.1461 217.121C66.6526 217.928 65.6174 218.414 65.0296 217.93C64.4389 217.442 63.9565 216.515 63.9894 215.286C64.045 213.276 65.0373 211.294 66.6181 210.633ZM60.1262 210.965C59.5684 211.571 59.8051 212.701 60.6547 213.488C61.5044 214.275 62.6448 214.424 63.2027 213.818C63.7605 213.212 63.5238 212.082 62.6742 211.295C61.8245 210.509 60.6833 210.361 60.1262 210.965ZM62.1113 206.176C62.9696 205.68 64.2221 206.246 64.9087 207.438C65.5946 208.633 65.4551 210.002 64.596 210.499C63.7376 210.994 62.4851 210.429 61.7985 209.236C61.1127 208.042 61.2529 206.671 62.1113 206.176ZM71.5429 206.39C70.7209 206.337 69.9993 207.232 69.9282 208.388C69.8576 209.545 70.4667 210.526 71.2882 210.578C72.1103 210.631 72.8318 209.735 72.903 208.579C72.9741 207.424 72.365 206.443 71.5429 206.39ZM66.7994 204.297C67.7622 204.062 68.8106 204.957 69.1393 206.294C69.4681 207.632 68.9529 208.906 67.9883 209.14C67.0255 209.374 65.9772 208.479 65.6484 207.142C65.3197 205.805 65.8348 204.531 66.7994 204.297Z" fill="black"/>
<path d="M34.1539 27.7077C34.5912 28.3096 34.8089 28.8338 34.8069 29.2802C34.8049 29.7266 34.6697 30.2551 34.4012 30.8654C34.2422 31.2183 34.0153 31.6205 33.7204 32.0721C33.4114 32.5042 33.0495 32.9452 32.6346 33.3949C32.2338 33.8641 31.7828 34.3253 31.2814 34.7785C30.7995 35.2177 30.2964 35.6277 29.7722 36.0086C28.3742 37.0243 26.9296 37.792 25.4383 38.3118C23.9329 38.8122 22.4489 39.0153 20.9861 38.9211C19.5287 38.7934 18.1217 38.3472 16.7652 37.5825C15.4086 36.8178 14.1802 35.6782 13.0799 34.1637C11.9231 32.5716 11.196 30.9788 10.8985 29.3853C10.6205 27.7777 10.6654 26.247 11.0331 24.7932C11.4061 23.3059 12.0535 21.9307 12.9751 20.6678C13.9162 19.3907 15.0275 18.2867 16.309 17.3556C18.1536 16.0155 19.8285 15.2584 21.3337 15.0844C22.8442 14.8769 23.9451 15.2489 24.6363 16.2003C25.0031 16.7051 25.1943 17.2337 25.2099 17.786C25.2255 18.3383 25.1459 18.8411 24.971 19.2945C24.274 19.356 23.4578 19.5188 22.5225 19.783C21.5925 20.0137 20.6712 20.4606 19.7586 21.1236C18.1276 22.3086 17.1653 23.7197 16.8716 25.3571C16.5973 26.9803 17.0597 28.6171 18.2588 30.2675C18.9077 31.1607 19.5982 31.8456 20.3302 32.3224C21.0676 32.7656 21.8147 33.0386 22.5717 33.1413C23.3145 33.2246 24.0547 33.1614 24.7924 32.9518C25.516 32.7228 26.2078 32.3684 26.868 31.8888C27.2951 31.5784 27.6455 31.2645 27.9192 30.947C28.1929 30.6296 28.3818 30.3588 28.486 30.1348L26.4969 27.397L23.3806 29.6612C23.1089 29.5323 22.7879 29.3354 22.4175 29.0705C22.0664 28.7915 21.7499 28.4579 21.4677 28.0696C20.9599 27.3706 20.7484 26.7529 20.8334 26.2165C20.9378 25.666 21.2424 25.2074 21.7472 24.8406L26.6693 21.2646C27.2517 20.8414 27.8182 20.6819 28.3687 20.7863C28.9245 20.8571 29.414 21.1838 29.8372 21.7663L34.1539 27.7077Z" fill="black"/>
<path d="M43.6742 7.8867C44.0234 7.56712 44.5746 7.21686 45.3279 6.83592C46.1046 6.45 46.9038 6.16971 47.7254 5.99506C48.8992 5.74557 49.9696 5.70208 50.9365 5.8646C51.9219 5.99865 52.6211 6.40211 53.034 7.07496C53.716 8.20587 54.4757 9.52884 55.313 11.0439C56.1502 12.5589 57 14.1326 57.8622 15.765C58.7195 17.3739 59.5625 18.9736 60.3913 20.5641C61.2151 22.131 61.9403 23.5227 62.5668 24.739C62.355 25.1275 61.9873 25.4756 61.4638 25.7831C60.9453 26.1142 60.2987 26.362 59.524 26.5267C58.9606 26.6464 58.4694 26.7018 58.0503 26.6927C57.6548 26.6786 57.3079 26.6051 57.0098 26.4722C56.7351 26.3343 56.4832 26.1302 56.254 25.86C56.0482 25.5847 55.8443 25.2601 55.6421 24.8859L54.4918 22.5909L48.1182 23.9457C48.0801 24.6899 48.0469 25.4575 48.0188 26.2487C47.9907 27.0398 47.9576 27.8075 47.9195 28.5516C47.6158 28.7389 47.2836 28.9076 46.9229 29.0579C46.5908 29.2266 46.1664 29.3659 45.65 29.4757C44.4527 29.7302 43.5182 29.7202 42.8465 29.4459C42.1933 29.1431 41.7893 28.6278 41.6347 27.9001C41.5648 27.5714 41.5419 27.2328 41.5659 26.8842C41.59 26.5356 41.6133 26.1258 41.6359 25.6548C41.6655 24.986 41.7213 24.1522 41.8034 23.1533C41.909 22.1494 42.0231 21.0701 42.1457 19.9154C42.2633 18.7372 42.3994 17.5305 42.554 16.2954C42.7086 15.0602 42.8546 13.9005 42.9922 12.8162C43.1248 11.7084 43.2471 10.7255 43.3592 9.86749C43.4947 9.00445 43.5997 8.34419 43.6742 7.8867ZM48.8653 11.531C48.7463 12.5869 48.6052 13.7701 48.4421 15.0806C48.2975 16.3627 48.1931 17.6608 48.1289 18.9748L52.4954 18.0467C51.8972 16.8489 51.2949 15.6888 50.6883 14.5664C50.1001 13.4155 49.5629 12.3888 49.0766 11.4861L48.8653 11.531Z" fill="black"/>
<path d="M70.6916 9.06327C70.5822 8.77011 70.5044 8.38554 70.4584 7.90957C70.4123 7.43359 70.4417 6.94911 70.5465 6.45613C70.7411 5.54058 71.0804 4.92568 71.5643 4.61142C72.0717 4.30216 72.654 4.21738 73.3113 4.3571L88.6643 7.62048C88.7738 7.91364 88.8515 8.29821 88.8976 8.77418C88.9436 9.25016 88.9142 9.73464 88.8095 10.2276C88.6149 11.1432 88.2639 11.7556 87.7565 12.0648C87.2726 12.3791 86.7019 12.4664 86.0446 12.3267L82.136 11.4958L78.678 27.7644C78.4048 27.7799 77.979 27.763 77.4006 27.7137C76.8457 27.6694 76.2983 27.5898 75.7583 27.475C75.2184 27.3603 74.7471 27.211 74.3445 27.0273C73.9604 26.8721 73.6499 26.6588 73.4131 26.3877C73.1763 26.1165 73.0274 25.7782 72.9664 25.3726C72.9054 24.9671 72.9398 24.4591 73.0695 23.8488L75.9736 10.186L70.6916 9.06327Z" fill="black"/>
<path d="M101.318 14.423C101.924 13.5881 102.647 13.1042 103.485 12.9715C104.323 12.8388 105.159 13.0757 105.994 13.6823L115.605 20.6652C115.586 20.9775 115.498 21.3437 115.341 21.7637C115.204 22.1978 114.994 22.6091 114.712 22.9974C114.176 23.7352 113.63 24.1396 113.074 24.2104C112.538 24.2954 112.007 24.1474 111.483 23.7665L105.338 19.3017L103.37 22.0103L109.923 26.7713C109.904 27.0837 109.816 27.4499 109.659 27.8699C109.535 28.2846 109.333 28.6861 109.051 29.0745C108.515 29.8123 107.978 30.2237 107.442 30.3086C106.906 30.3936 106.375 30.2456 105.851 29.8647L100.492 25.9712L98.2702 29.0293L105.755 34.4675C105.736 34.7798 105.648 35.146 105.491 35.566C105.354 36.0002 105.144 36.4114 104.862 36.7997C104.326 37.5376 103.773 37.9516 103.203 38.0419C102.666 38.1268 102.136 37.9789 101.612 37.598L93.1075 31.4192C92.2726 30.8126 91.7888 30.0902 91.6561 29.2522C91.5233 28.4141 91.7603 27.5776 92.3668 26.7427L101.318 14.423Z" fill="black"/>
</svg>
