<svg width="68" height="68" viewBox="0 0 68 68" fill="none" xmlns="http://www.w3.org/2000/svg">
<g filter="url(#filter0_d_142_1102)">
<rect x="4" y="2" width="60" height="60" rx="20" fill="#F7F7F7"/>
</g>
<path d="M49.4608 22.2109C47.2338 22.2471 44.2914 21.716 43.1875 21.4992C41.0245 17.3681 34.6606 15.7515 29.1946 18.0518C23.5974 20.4166 16.401 34.7167 16.1011 35.3245C15.8653 35.7975 16.0558 36.3726 16.5275 36.6082C16.9976 36.8455 17.5692 36.6538 17.805 36.1808C19.0559 33.6794 21.9265 28.4972 24.9094 24.5882C23.9974 28.8037 23.9974 33.989 24.1332 36.1652C24.1332 37.474 24.989 38.6289 26.2368 39.0044C26.6632 39.1364 27.1083 39.1993 27.5549 39.193C30.0584 39.193 33.1757 37.4473 34.7513 35.4597C37.5499 31.9118 33.0084 22.3916 32.4806 21.3168V21.3184C32.2135 20.9177 31.6919 20.7795 31.264 20.9963C30.8361 21.2131 30.6346 21.716 30.7939 22.1701C32.5852 25.7902 34.8403 32.2985 33.2849 34.2655C31.5701 36.4024 28.303 37.6484 26.7961 37.1786C26.4401 37.0655 26.0684 36.8408 26.02 36.052C25.7357 31.3132 26.2964 23.2241 28.3906 20.7873C28.8607 20.3992 29.3823 20.0787 29.9383 19.8335C35.0234 17.6904 40.3331 19.5963 41.6404 22.7294C41.7654 23.0153 42.0168 23.2243 42.3198 23.2934C42.4884 23.3296 46.4741 24.1828 49.4882 24.1388C49.724 24.1388 49.888 24.1671 50.016 24.6007C50.3752 25.9928 49.2648 29.0254 47.8328 29.7985C45.929 30.8277 40.7443 31.7296 38.906 31.9904V31.9888C38.5859 32.036 38.311 32.2418 38.1752 32.5356C38.0549 32.7965 35.2329 39.0154 34.0365 44.8559V44.8575C33.988 45.1073 34.0396 45.3666 34.1817 45.5771C34.3238 45.7877 34.544 45.9322 34.7923 45.9794C34.8548 45.9935 34.9204 46.0014 34.9844 45.9998C35.4373 45.9998 35.8277 45.6808 35.9198 45.2346C36.8881 40.5083 39.0386 35.3559 39.7133 33.7989C41.389 33.5412 46.5506 32.6644 48.7495 31.4781C51.0249 30.2714 52.4399 26.29 51.8761 24.1135C51.6449 22.968 50.622 22.162 49.4616 22.2107L49.4608 22.2109Z" fill="#48484A"/>
<defs>
<filter id="filter0_d_142_1102" x="0" y="0" width="68" height="68" filterUnits="userSpaceOnUse" color-interpolation-filters="sRGB">
<feFlood flood-opacity="0" result="BackgroundImageFix"/>
<feColorMatrix in="SourceAlpha" type="matrix" values="0 0 0 0 0 0 0 0 0 0 0 0 0 0 0 0 0 0 127 0" result="hardAlpha"/>
<feOffset dy="2"/>
<feGaussianBlur stdDeviation="2"/>
<feComposite in2="hardAlpha" operator="out"/>
<feColorMatrix type="matrix" values="0 0 0 0 0 0 0 0 0 0 0 0 0 0 0 0 0 0 0.1 0"/>
<feBlend mode="normal" in2="BackgroundImageFix" result="effect1_dropShadow_142_1102"/>
<feBlend mode="normal" in="SourceGraphic" in2="effect1_dropShadow_142_1102" result="shape"/>
</filter>
</defs>
</svg>
