<svg width="55" height="55" viewBox="0 0 55 55" fill="none" xmlns="http://www.w3.org/2000/svg">
<path d="M51.1206 9.8828C47.7183 9.95134 43.2229 8.94408 41.5365 8.53289C38.2319 0.698187 28.5093 -2.3678 20.1584 1.99484C11.6071 6.4797 0.612619 33.6007 0.154516 34.7534C-0.205761 35.6504 0.0853238 36.741 0.805878 37.188C1.52406 37.638 2.39733 37.2744 2.75758 36.3775C4.66873 31.6333 9.05436 21.8051 13.6116 14.3915C12.2182 22.3864 12.2182 32.2206 12.4258 36.3477C12.4258 38.83 13.7332 41.0203 15.6396 41.7325C16.291 41.9828 16.971 42.102 17.6534 42.0901C21.4781 42.0901 26.2407 38.7794 28.6479 35.0097C32.9235 28.281 25.9851 10.2255 25.1787 8.18712V8.1901C24.7707 7.43021 23.9738 7.168 23.32 7.57921C22.6663 7.99044 22.3585 8.94407 22.6018 9.80527C25.3385 16.6711 28.7838 29.0144 26.4074 32.7449C23.7876 36.7976 18.7962 39.1608 16.4941 38.2697C15.9501 38.0552 15.3822 37.6291 15.3083 36.1331C14.874 27.1457 15.7306 11.8043 18.9302 7.18282C19.6483 6.44677 20.4453 5.83887 21.2946 5.37397C29.0635 1.30931 37.1756 4.924 39.1729 10.866C39.3638 11.4084 39.7479 11.8048 40.2108 11.9358C40.4684 12.0044 46.5576 13.6225 51.1625 13.5391C51.5228 13.5391 51.7733 13.5927 51.9689 14.4152C52.5177 17.0554 50.8213 22.8068 48.6334 24.273C45.7249 26.2249 37.8038 27.9354 34.9954 28.4301V28.4271C34.5062 28.5165 34.0863 28.9069 33.8787 29.4641C33.695 29.9588 29.3836 41.7533 27.5557 52.8302V52.8332C27.4817 53.307 27.5605 53.7986 27.7776 54.198C27.9947 54.5973 28.3311 54.8715 28.7105 54.9609C28.8059 54.9877 28.9061 55.0026 29.0039 54.9996C29.6959 54.9996 30.2924 54.3947 30.4331 53.5484C31.9124 44.5846 35.1979 34.813 36.2286 31.8599C38.7887 31.3712 46.6746 29.7084 50.034 27.4585C53.5103 25.1699 55.672 17.619 54.8107 13.4911C54.4575 11.3186 52.8948 9.78992 51.122 9.88231L51.1206 9.8828Z" fill="#111111"/>
</svg>
