<svg width="20" height="20" viewBox="0 0 20 20" fill="none" xmlns="http://www.w3.org/2000/svg">
<ellipse cx="10" cy="9.80558" rx="10" ry="9.80558" fill="#F1729B"/>
<path d="M10.604 8.07389H11.4985C11.6225 8.07398 11.7446 8.10422 11.8538 8.16192C11.963 8.21962 12.0558 8.30296 12.1241 8.40449C12.1924 8.50603 12.2339 8.62257 12.245 8.7437C12.256 8.86483 12.2363 8.98676 12.1875 9.09857L10.2075 13.6302C10.1597 13.7387 10.0752 13.8278 9.96834 13.8824C9.86144 13.937 9.73861 13.9538 9.62053 13.9301C9.50245 13.9063 9.39633 13.8434 9.32001 13.7519C9.24369 13.6604 9.20184 13.5459 9.2015 13.4277V10.035L8.475 10.0129C8.28045 10.0066 8.09605 9.9263 7.96076 9.78907C7.82547 9.65183 7.74989 9.4684 7.75 9.27752V6.3736C7.75 6.17856 7.82902 5.9915 7.96967 5.85358C8.11032 5.71566 8.30109 5.63818 8.5 5.63818H9.854C10.0529 5.63818 10.2437 5.71566 10.3843 5.85358C10.525 5.9915 10.604 6.17856 10.604 6.3736V8.07389Z" fill="white"/>
</svg>
