<svg width="25" height="24" viewBox="0 0 25 24" fill="none" xmlns="http://www.w3.org/2000/svg">
<path fill-rule="evenodd" clip-rule="evenodd" d="M16.75 9C16.75 10.0609 16.3286 11.0783 15.5784 11.8284C14.8283 12.5786 13.8109 13 12.75 13C11.6891 13 10.6717 12.5786 9.92157 11.8284C9.17143 11.0783 8.75 10.0609 8.75 9C8.75 7.93913 9.17143 6.92172 9.92157 6.17157C10.6717 5.42143 11.6891 5 12.75 5C13.8109 5 14.8283 5.42143 15.5784 6.17157C16.3286 6.92172 16.75 7.93913 16.75 9ZM14.75 9C14.75 9.53043 14.5393 10.0391 14.1642 10.4142C13.7891 10.7893 13.2804 11 12.75 11C12.2196 11 11.7109 10.7893 11.3358 10.4142C10.9607 10.0391 10.75 9.53043 10.75 9C10.75 8.46957 10.9607 7.96086 11.3358 7.58579C11.7109 7.21071 12.2196 7 12.75 7C13.2804 7 13.7891 7.21071 14.1642 7.58579C14.5393 7.96086 14.75 8.46957 14.75 9Z" fill="#9A9EA6"/>
<path fill-rule="evenodd" clip-rule="evenodd" d="M12.75 1C6.675 1 1.75 5.925 1.75 12C1.75 18.075 6.675 23 12.75 23C18.825 23 23.75 18.075 23.75 12C23.75 5.925 18.825 1 12.75 1ZM3.75 12C3.75 14.09 4.463 16.014 5.658 17.542C6.49744 16.4401 7.58015 15.5471 8.82164 14.9327C10.0631 14.3183 11.4298 13.9991 12.815 14C14.1824 13.9984 15.5321 14.3091 16.7611 14.9084C17.9902 15.5077 19.0662 16.3797 19.907 17.458C20.7734 16.3216 21.3568 14.9952 21.6089 13.5886C21.861 12.182 21.7744 10.7355 21.3565 9.36898C20.9386 8.00243 20.2012 6.75505 19.2055 5.73004C18.2098 4.70503 16.9843 3.93186 15.6304 3.47451C14.2765 3.01716 12.8332 2.88877 11.4199 3.09997C10.0065 3.31117 8.66379 3.85589 7.50277 4.68905C6.34175 5.52222 5.39581 6.61987 4.74323 7.8912C4.09065 9.16252 3.75018 10.571 3.75 12ZM12.75 21C10.6839 21.0033 8.68014 20.2926 7.078 18.988C7.72281 18.0646 8.58119 17.3107 9.58008 16.7905C10.579 16.2702 11.6888 15.999 12.815 16C13.9272 15.999 15.0235 16.2635 16.013 16.7713C17.0024 17.2792 17.8564 18.0158 18.504 18.92C16.8895 20.267 14.8526 21.0033 12.75 21Z" fill="#9A9EA6"/>
</svg>
