<svg width="134" height="207" viewBox="0 0 134 207" fill="none" xmlns="http://www.w3.org/2000/svg">
<ellipse cx="65.5" cy="193" rx="47.5" ry="14" fill="#D9D9D9"/>
<path d="M31 78L33 87L29 99.5L27.5 108.5L25 113L23.5 125L27.5 137L32.5 144L33.5 148.5L37 156L46.5 170.5L54.5 184.5L63 194H71.5L83.5 174L88.5 163L96.5 157L100 148V144L108 130L109 124V120.5L108 115L105.5 111V105L102 95.5L100 91.5L101 89L102 85V81V75.5V71L100 65L98 60H96L91.5 62.5L86 66.5L80 73.5L74.5 72.5L69.5 71H63.5L57.5 72L54.5 73.5L52 72.5L48.5 67.5L42 62.5L35 59L33 63.5L31 78Z" fill="white" stroke="white"/>
<path d="M64 134L63.5 128.5L67 126L69.5 129V133.5L67 134H64Z" fill="#F1729B"/>
<path d="M101 90.5L111 126L123.5 105.5L131 84.5L128.5 44.5L104.5 13.5L95 8L74 2H56L39 8L24.5 18L10 35L3.5 52.5L1 73L6.5 95L22.5 125L30.5 94L32 84.5L30.5 75L32 63L35 58.5L45 63L53 73L61.5 69.5H74L80 73L87.5 64L96 58.5H98L102 69.5V79.5V87L101 90.5Z" fill="#F1729B" stroke="#F1729B"/>
<path d="M30.6667 140L29 135L32.3333 136.667L34 137.083L33.4444 138.333L30.6667 140Z" fill="#F1729B"/>
<path d="M104.5 137L105.5 133L103.5 134.5L99.5 137.5L100.5 139.5L102.5 140.5L104.5 137Z" fill="#F1729B"/>
<path d="M66.9557 2.01417L67 2.01516L67.0443 2.01417C83.856 1.64135 100.156 8.63943 112.353 21.544C124.552 34.4502 131.637 52.2049 132 70.9196C131.976 82.4253 129.274 93.7231 124.163 103.73C123.484 105.049 122.753 106.341 121.988 107.629L121.974 107.652L121.961 107.676L102.227 143.043L102.212 143.069L75.2161 189.805C75.2137 189.809 75.2113 189.813 75.2089 189.817C74.231 191.448 72.9127 192.762 71.3887 193.659C69.8626 194.558 68.172 195.013 66.4682 195C64.7644 194.986 63.0791 194.504 61.5638 193.58C60.0508 192.659 58.7491 191.322 57.7921 189.675L31.7876 143.078L31.7875 143.078L12.0393 107.685L9.82117 103.71C4.7196 93.7102 2.02324 82.4234 2.00004 70.929C2.36092 52.2126 9.44515 34.4554 21.6439 21.5471C33.8409 8.64065 50.1427 1.64136 66.9557 2.01417Z" stroke="black" stroke-width="4"/>
<path d="M54.3605 110.082C54.9189 106.85 53.5539 103.915 51.3117 103.528C49.0695 103.141 46.7992 105.447 46.2408 108.68C45.6824 111.913 47.0474 114.847 49.2896 115.234C51.5318 115.622 53.8022 113.315 54.3605 110.082Z" fill="black"/>
<path d="M84.0637 115.547C86.3164 115.16 87.6904 112.214 87.1327 108.966C86.575 105.718 84.2968 103.399 82.0441 103.786C79.7915 104.173 78.4174 107.119 78.9751 110.367C79.5328 113.615 81.8111 115.934 84.0637 115.547Z" fill="black"/>
<path d="M66.5299 112.05C63.7432 111.991 60.974 112.504 58.3938 113.558C55.8136 114.613 53.4774 116.186 51.5299 118.18C51.3016 118.464 51.1896 118.825 51.2166 119.188C51.2436 119.552 51.4075 119.892 51.6753 120.139C51.9431 120.387 52.2948 120.523 52.6595 120.522C53.0241 120.52 53.3745 120.38 53.6399 120.13C55.5628 118.118 57.9747 116.64 60.6399 115.84C61.0559 116.76 61.6768 117.572 62.455 118.215C63.2332 118.858 64.1482 119.315 65.1299 119.55V124.55C63.5199 126.55 61.8399 127.64 60.1299 127.71H59.9399C58.2409 127.579 56.6527 126.816 55.4899 125.57C55.3685 125.419 55.2178 125.294 55.0468 125.202C54.8758 125.11 54.6881 125.054 54.4949 125.037C54.3017 125.02 54.107 125.042 53.9225 125.102C53.7379 125.162 53.5674 125.258 53.4212 125.385C53.2749 125.513 53.1559 125.668 53.0712 125.843C52.9866 126.018 52.9381 126.207 52.9286 126.401C52.9192 126.595 52.949 126.789 53.0162 126.971C53.0835 127.152 53.1868 127.319 53.3199 127.46C53.4399 127.59 56.2299 130.72 60.2099 130.58C61.431 130.478 62.6192 130.133 63.7046 129.564C64.7901 128.996 65.7507 128.216 66.5299 127.27C67.3153 128.214 68.2819 128.99 69.3726 129.553C70.4633 130.117 71.656 130.456 72.8799 130.55H73.1499C75.6801 130.417 78.0572 129.297 79.7699 127.43C80.0027 127.14 80.1143 126.771 80.0812 126.401C80.0482 126.03 79.8731 125.687 79.5927 125.443C79.3123 125.198 78.9482 125.072 78.5768 125.09C78.2053 125.108 77.8553 125.27 77.5999 125.54C76.3933 126.822 74.7382 127.589 72.9799 127.68C71.2699 127.61 69.5799 126.54 67.9799 124.52V119.52C68.9617 119.285 69.8767 118.828 70.6549 118.185C71.4331 117.542 72.0539 116.73 72.4699 115.81C75.1352 116.61 77.5471 118.088 79.4699 120.1C79.7279 120.37 80.0806 120.529 80.4538 120.544C80.8269 120.559 81.1913 120.429 81.4699 120.18C81.74 119.922 81.8993 119.569 81.9142 119.196C81.9292 118.823 81.7985 118.459 81.5499 118.18C79.6001 116.183 77.2607 114.609 74.6769 113.554C72.093 112.5 69.32 111.988 66.5299 112.05Z" fill="black"/>
<path d="M107.75 110.24C107.398 103.722 105.652 97.3557 102.63 91.57C107.1 71.45 100.03 58.57 99.63 57.97C99.4097 57.5831 99.0619 57.2849 98.646 57.1262C98.2301 56.9675 97.772 56.9582 97.35 57.1C89.35 59.8 83.35 65.83 79.26 71.23C70.9835 68.3904 61.9965 68.3904 53.72 71.23C49.7 65.83 43.65 59.8 35.67 57.1C35.2446 56.9607 34.784 56.9745 34.3677 57.1388C33.9514 57.3031 33.6056 57.6077 33.39 58C33.03 58.64 25.96 71.48 30.39 91.6C27.3862 97.3797 25.6541 103.735 25.31 110.24C23.1906 113.203 22.0349 116.747 22 120.39C22 135.06 41.98 147 66.53 147C91.08 147 111.06 135.06 111.06 120.39C111.025 116.747 109.869 113.203 107.75 110.24ZM97.03 61.33C98.47 64.72 101.47 73.82 99.6 86.62C98.95 85.7 98.28 84.81 97.6 83.95C98.4771 78.1529 97.8998 72.2287 95.92 66.71C95.778 66.3778 95.5155 66.1117 95.1853 65.9652C94.855 65.8186 94.4816 65.8025 94.14 65.92C90.14 67.25 86.98 70.36 84.59 73.47C84.09 73.21 83.59 72.96 83.05 72.72C86.43 68.39 91.13 63.79 97.03 61.33ZM36.03 61.33C41.93 63.79 46.63 68.39 50.03 72.72C49.51 72.96 49.03 73.21 48.49 73.47C46.1 70.36 42.89 67.25 38.94 65.92C38.5984 65.8025 38.2249 65.8186 37.8947 65.9652C37.5645 66.1117 37.302 66.3778 37.16 66.71C35.182 72.2469 34.6216 78.1909 35.53 84C34.82 84.85 34.15 85.74 33.53 86.65C31.59 73.82 34.6 64.72 36.03 61.33ZM66.53 143.17C44.09 143.17 25.83 133 25.83 120.39C25.8824 117.353 26.9057 114.413 28.75 112C28.9622 111.707 29.087 111.361 29.11 111C30.05 89.67 46.48 73 66.53 73C86.58 73 103.01 89.64 103.95 111C103.973 111.361 104.098 111.707 104.31 112C106.154 114.413 107.178 117.353 107.23 120.39C107.23 133 88.97 143.17 66.53 143.17Z" fill="black"/>
<path d="M68.6808 128V131.5C68.6808 132.536 67.9535 133.5 66.5824 133.5C65.2112 133.5 64.3185 132.534 64.3185 131.5V128H62V131.773C62 133.82 63.8811 135.5 66.5824 135.5C69.2843 135.5 71 133.82 71 131.773V128H68.6808Z" fill="black"/>
<path d="M38.1194 158.895C35.5481 156.258 34.1054 152.653 33.9182 149.392C33.7326 146.157 34.7714 143.64 36.6566 142.484C40.2818 141.359 42.507 141.114 44.4212 141.636C46.3828 142.17 48.2848 143.579 51.098 146.464C53.8371 149.273 54.9404 151.287 55.2651 153.236C55.5952 155.219 55.1696 157.366 54.2568 160.616C53.1428 162.722 50.6948 163.736 47.5139 163.455C44.2953 163.17 40.7072 161.549 38.1194 158.895Z" fill="white" stroke="black" stroke-width="3"/>
<path d="M44.0859 155.231C44.7448 154.729 44.8718 153.788 44.3697 153.129C43.8676 152.47 42.9263 152.343 42.2674 152.845L44.0859 155.231ZM47.5058 159.282C47.9942 158.613 47.8476 157.675 47.1784 157.187C46.5092 156.698 45.5708 156.845 45.0825 157.514L47.5058 159.282ZM40.6066 151.073C41.3778 150.77 41.7576 149.9 41.4549 149.129C41.1523 148.357 40.2818 147.978 39.5107 148.28L40.6066 151.073ZM38.1666 159.743L44.0859 155.231L42.2674 152.845L36.3481 157.357L38.1666 159.743ZM44.2459 163.75L47.5058 159.282L45.0825 157.514L41.8226 161.981L44.2459 163.75ZM34.7258 153.381L40.6066 151.073L39.5107 148.28L33.6299 150.588L34.7258 153.381Z" fill="black"/>
<path d="M94.8806 158.895C97.4519 156.258 98.8946 152.653 99.0818 149.392C99.2674 146.157 98.2286 143.64 96.3434 142.484C92.7182 141.359 90.493 141.114 88.5788 141.636C86.6172 142.17 84.7152 143.579 81.902 146.464C79.1629 149.273 78.0596 151.287 77.7349 153.236C77.4048 155.219 77.8304 157.366 78.7432 160.616C79.8572 162.722 82.3052 163.736 85.4861 163.455C88.7047 163.17 92.2928 161.549 94.8806 158.895Z" fill="white" stroke="black" stroke-width="3"/>
<path d="M88.9143 155.229C88.2555 154.727 88.1284 153.786 88.6305 153.127C89.1327 152.468 90.0739 152.341 90.7328 152.843L88.9143 155.229ZM85.4944 159.28C85.0061 158.611 85.1527 157.673 85.8219 157.185C86.4911 156.696 87.4294 156.843 87.9178 157.512L85.4944 159.28ZM92.3937 151.071C91.6225 150.768 91.2427 149.898 91.5453 149.127C91.8479 148.355 92.7184 147.976 93.4896 148.278L92.3937 151.071ZM94.8337 159.741L88.9143 155.229L90.7328 152.843L96.6521 157.355L94.8337 159.741ZM88.7543 163.748L85.4944 159.28L87.9178 157.512L91.1777 161.979L88.7543 163.748ZM98.2744 153.379L92.3937 151.071L93.4896 148.278L99.3704 150.586L98.2744 153.379Z" fill="black"/>
<path d="M31.1527 142.765C32.558 138.375 34.6181 137.362 36 137" stroke="black" stroke-width="3"/>
<path d="M52.4389 101.399C48.2309 105.228 45.5756 105.4 44.0001 105.196" stroke="black" stroke-width="3"/>
<path d="M88.0022 105.196C82.3163 104.985 80.3002 103.248 79.3178 102" stroke="black" stroke-width="3"/>
<path d="M102.249 142.385C100.53 138.111 98.4036 137.251 96.9999 136.99" stroke="black" stroke-width="3"/>
<path fill-rule="evenodd" clip-rule="evenodd" d="M66.6181 170.633C68.218 170.019 70.3043 170.767 71.7331 172.183C72.6058 173.049 72.8981 174.052 72.8065 174.813C72.7154 175.568 71.631 175.931 70.717 175.69C70.0199 175.505 69.2979 175.454 68.6403 175.678C68.0085 175.971 67.5223 176.505 67.1461 177.121C66.6526 177.928 65.6174 178.414 65.0296 177.93C64.4389 177.442 63.9565 176.515 63.9894 175.286C64.045 173.276 65.0373 171.294 66.6181 170.633ZM60.1262 170.965C59.5684 171.571 59.8051 172.701 60.6547 173.488C61.5044 174.275 62.6448 174.424 63.2027 173.818C63.7605 173.212 63.5238 172.082 62.6742 171.295C61.8245 170.509 60.6833 170.361 60.1262 170.965ZM62.1113 166.176C62.9696 165.68 64.2221 166.246 64.9087 167.438C65.5946 168.633 65.4551 170.002 64.596 170.499C63.7376 170.994 62.4851 170.429 61.7985 169.236C61.1127 168.042 61.2529 166.671 62.1113 166.176ZM71.5429 166.39C70.7209 166.337 69.9993 167.232 69.9282 168.388C69.8576 169.545 70.4667 170.526 71.2882 170.578C72.1103 170.631 72.8318 169.735 72.903 168.579C72.9741 167.424 72.365 166.443 71.5429 166.39ZM66.7994 164.297C67.7622 164.062 68.8106 164.957 69.1393 166.294C69.4681 167.632 68.9529 168.906 67.9883 169.14C67.0255 169.374 65.9772 168.479 65.6484 167.142C65.3197 165.805 65.8348 164.531 66.7994 164.297Z" fill="black"/>
</svg>
