<svg width="15" height="15" viewBox="0 0 15 15" fill="none" xmlns="http://www.w3.org/2000/svg">
<path d="M7.5 15C11.6421 15 15 11.6421 15 7.5C15 3.35786 11.6421 0 7.5 0C3.35786 0 0 3.35786 0 7.5C0 11.6421 3.35786 15 7.5 15Z" fill="#9A9EA6"/>
<path d="M6.75458 11.6656H8.45792V5.96557H6.75458V11.6656ZM7.61792 4.91557C7.74678 4.92424 7.87605 4.90654 7.99784 4.86356C8.11963 4.82057 8.23138 4.75321 8.32625 4.66557C8.42121 4.57821 8.49737 4.47241 8.5501 4.35464C8.60282 4.23687 8.631 4.10959 8.63292 3.98057C8.63315 3.85134 8.60661 3.72347 8.55498 3.605C8.50335 3.48653 8.42774 3.38004 8.33292 3.29224C8.23748 3.20455 8.12487 3.13765 8.00222 3.09576C7.87957 3.05387 7.74955 3.03792 7.62042 3.04891C7.49039 3.0369 7.35929 3.05211 7.23547 3.09357C7.11165 3.13504 6.99782 3.20185 6.90125 3.28974C6.80475 3.37751 6.72757 3.48441 6.67463 3.60363C6.6217 3.72286 6.59415 3.85179 6.59375 3.98224C6.59605 4.11216 6.62488 4.24023 6.67848 4.3586C6.73207 4.47697 6.8093 4.58314 6.90542 4.67057C7.0016 4.75799 7.11464 4.82482 7.2376 4.86696C7.36056 4.90909 7.49083 4.92563 7.62042 4.91557H7.61792Z" fill="white"/>
</svg>
