<svg width="40" height="40" viewBox="0 0 40 40" fill="none" xmlns="http://www.w3.org/2000/svg">
<path d="M20 40C31.0457 40 40 31.0457 40 20C40 8.9543 31.0457 0 20 0C8.9543 0 0 8.9543 0 20C0 31.0457 8.9543 40 20 40Z" fill="white"/>
<path d="M20 35C28.2843 35 35 28.2843 35 20C35 11.7157 28.2843 5 20 5C11.7157 5 5 11.7157 5 20C5 28.2843 11.7157 35 20 35Z" fill="#F1729B"/>
<path d="M16.1834 22.9506C16.0282 23.1068 15.9411 23.318 15.9411 23.5381C15.9411 23.7583 16.0282 23.9695 16.1834 24.1256C16.2609 24.2038 16.353 24.2657 16.4546 24.3081C16.5561 24.3504 16.6651 24.3721 16.7751 24.3721C16.8851 24.3721 16.994 24.3504 17.0956 24.3081C17.1971 24.2657 17.2893 24.2038 17.3667 24.1256C17.522 23.9695 17.6091 23.7583 17.6091 23.5381C17.6091 23.318 17.522 23.1068 17.3667 22.9506C17.2893 22.8725 17.1971 22.8105 17.0956 22.7682C16.994 22.7259 16.8851 22.7041 16.7751 22.7041C16.6651 22.7041 16.5561 22.7259 16.4546 22.7682C16.353 22.8105 16.2609 22.8725 16.1834 22.9506V22.9506ZM16.1834 15.8756C16.0282 16.0318 15.9411 16.243 15.9411 16.4631C15.9411 16.6833 16.0282 16.8945 16.1834 17.0506C16.2609 17.1288 16.353 17.1907 16.4546 17.2331C16.5561 17.2754 16.6651 17.2971 16.7751 17.2971C16.8851 17.2971 16.994 17.2754 17.0956 17.2331C17.1971 17.1907 17.2893 17.1288 17.3667 17.0506C17.522 16.8945 17.6091 16.6833 17.6091 16.4631C17.6091 16.243 17.522 16.0318 17.3667 15.8756C17.2893 15.7975 17.1971 15.7355 17.0956 15.6932C16.994 15.6509 16.8851 15.6291 16.7751 15.6291C16.6651 15.6291 16.5561 15.6509 16.4546 15.6932C16.353 15.7355 16.2609 15.7975 16.1834 15.8756ZM20.3084 24.209C20.1436 24.209 19.9825 24.2579 19.8454 24.3494C19.7084 24.441 19.6016 24.5711 19.5385 24.7234C19.4754 24.8757 19.4589 25.0432 19.4911 25.2049C19.5232 25.3665 19.6026 25.515 19.7192 25.6316C19.8357 25.7481 19.9842 25.8275 20.1458 25.8596C20.3075 25.8918 20.475 25.8753 20.6273 25.8122C20.7796 25.7491 20.9097 25.6423 21.0013 25.5053C21.0929 25.3682 21.1417 25.2071 21.1417 25.0423C21.1474 24.9294 21.13 24.8166 21.0907 24.7106C21.0513 24.6046 20.9909 24.5078 20.9129 24.4259C20.8349 24.3441 20.7412 24.2789 20.6372 24.2345C20.5333 24.19 20.4214 24.1672 20.3084 24.1673V24.209ZM15.3084 19.209C15.1436 19.209 14.9825 19.2579 14.8454 19.3494C14.7084 19.441 14.6016 19.5711 14.5385 19.7234C14.4754 19.8757 14.4589 20.0432 14.4911 20.2049C14.5232 20.3665 14.6026 20.515 14.7192 20.6316C14.8357 20.7481 14.9842 20.8275 15.1458 20.8596C15.3075 20.8918 15.475 20.8753 15.6273 20.8122C15.7796 20.7491 15.9097 20.6423 16.0013 20.5053C16.0929 20.3682 16.1417 20.2071 16.1417 20.0423C16.1474 19.9294 16.13 19.8166 16.0907 19.7106C16.0513 19.6046 15.9909 19.5078 15.9129 19.4259C15.8349 19.3441 15.7412 19.2789 15.6372 19.2345C15.5333 19.19 15.4214 19.1672 15.3084 19.1673V19.209ZM20.3084 14.209C20.1436 14.209 19.9825 14.2579 19.8454 14.3494C19.7084 14.441 19.6016 14.5711 19.5385 14.7234C19.4754 14.8757 19.4589 15.0432 19.4911 15.2049C19.5232 15.3665 19.6026 15.515 19.7192 15.6316C19.8357 15.7481 19.9842 15.8275 20.1458 15.8596C20.3075 15.8918 20.475 15.8753 20.6273 15.8122C20.7796 15.7491 20.9097 15.6423 21.0013 15.5053C21.0929 15.3682 21.1417 15.2071 21.1417 15.0423C21.1474 14.9294 21.13 14.8166 21.0907 14.7106C21.0513 14.6046 20.9909 14.5078 20.9129 14.4259C20.8349 14.3441 20.7412 14.2789 20.6372 14.2345C20.5333 14.19 20.4214 14.1672 20.3084 14.1673V14.209ZM23.2584 15.9173C23.1414 16.0337 23.0615 16.1821 23.029 16.3439C22.9964 16.5057 23.0126 16.6735 23.0755 16.8261C23.1385 16.9786 23.2453 17.1091 23.3824 17.2009C23.5196 17.2927 23.6809 17.3417 23.8459 17.3417C24.0109 17.3417 24.1723 17.2927 24.3094 17.2009C24.4466 17.1091 24.5534 16.9786 24.6163 16.8261C24.6792 16.6735 24.6954 16.5057 24.6629 16.3439C24.6303 16.1821 24.5505 16.0337 24.4334 15.9173C24.2829 15.7564 24.0747 15.6617 23.8545 15.6539C23.6343 15.6461 23.42 15.7258 23.2584 15.8756V15.9173ZM28.5084 15.9173C27.7465 14.3942 26.5754 13.1135 25.1264 12.2187C23.6774 11.324 22.0078 10.8505 20.3047 10.8516C18.6017 10.8526 16.9327 11.328 15.4847 12.2245C14.0368 13.121 12.8672 14.4031 12.1071 15.9271C11.3471 17.4511 11.0266 19.1567 11.1816 20.8526C11.3366 22.5486 11.961 24.1678 12.9848 25.5288C14.0086 26.8897 15.3912 27.9385 16.9777 28.5577C18.5642 29.1768 20.2918 29.3417 21.9667 29.034C22.3879 28.9547 22.7891 28.7923 23.1468 28.5562C23.5045 28.3201 23.8116 28.0151 24.0501 27.659C24.307 27.2718 24.4843 26.8373 24.5716 26.3809C24.6589 25.9245 24.6544 25.4553 24.5584 25.0006C24.5059 24.7259 24.478 24.447 24.4751 24.1673C24.4787 23.3598 24.717 22.5707 25.1608 21.8961C25.6046 21.2214 26.235 20.6903 26.9751 20.3673C27.3741 20.1886 27.7323 19.9301 28.0276 19.6076C28.3228 19.2851 28.5489 18.9055 28.6917 18.4923C28.8362 18.07 28.8945 17.6231 28.863 17.1779C28.8315 16.7327 28.7109 16.2984 28.5084 15.9006V15.9173ZM27.0917 17.9506C27.0206 18.1501 26.9102 18.3332 26.7671 18.4892C26.624 18.6453 26.451 18.771 26.2584 18.859C25.2334 19.3178 24.3626 20.0628 23.7506 21.0044C23.1386 21.946 22.8115 23.0443 22.8084 24.1673C22.8096 24.559 22.8487 24.9498 22.9251 25.334C22.976 25.5688 22.9793 25.8115 22.935 26.0476C22.8906 26.2838 22.7994 26.5086 22.6667 26.709C22.5545 26.8843 22.4068 27.0342 22.2331 27.149C22.0595 27.2638 21.8637 27.341 21.6584 27.3756C21.2133 27.4593 20.7613 27.5011 20.3084 27.5006C19.3036 27.5011 18.3088 27.2997 17.3833 26.9083C16.4579 26.5168 15.6205 25.9434 14.9209 25.2221C14.2213 24.5008 13.6738 23.6462 13.3109 22.7091C12.948 21.7721 12.7771 20.7717 12.8084 19.7673C12.8731 17.8946 13.6326 16.1131 14.9389 14.7698C16.2453 13.4265 18.0049 12.6175 19.8751 12.5006H20.3001C21.6965 12.501 23.0652 12.8912 24.2518 13.6274C25.4385 14.3635 26.3961 15.4164 27.0167 16.6673C27.2078 17.0631 27.2347 17.5184 27.0917 17.934V17.9506ZM20.3084 19.1673C20.1436 19.1673 19.9825 19.2162 19.8454 19.3078C19.7084 19.3993 19.6016 19.5295 19.5385 19.6817C19.4754 19.834 19.4589 20.0016 19.4911 20.1632C19.5232 20.3249 19.6026 20.4734 19.7192 20.5899C19.8357 20.7064 19.9842 20.7858 20.1458 20.818C20.3075 20.8501 20.475 20.8336 20.6273 20.7705C20.7796 20.7075 20.9097 20.6007 21.0013 20.4636C21.0929 20.3266 21.1417 20.1655 21.1417 20.0006C21.1417 19.7796 21.0539 19.5677 20.8977 19.4114C20.7414 19.2551 20.5294 19.1673 20.3084 19.1673Z" fill="white"/>
<path d="M27.5 18.5L24.5 21L23.125 26.5L21.5 28H18.5L15 26.5L12.5 23.5V19L13 16L18.5 12L19.5 12.2778L21.5 12L24 13L27.5 14.5V18.5Z" fill="white"/>
<path d="M16.7083 22.7833C16.5531 22.9395 16.466 23.1507 16.466 23.3708C16.466 23.591 16.5531 23.8022 16.7083 23.9583C16.7858 24.0364 16.878 24.0984 16.9795 24.1407C17.0811 24.1831 17.19 24.2048 17.3 24.2048C17.41 24.2048 17.5189 24.1831 17.6205 24.1407C17.722 24.0984 17.8142 24.0364 17.8917 23.9583C18.0469 23.8022 18.134 23.591 18.134 23.3708C18.134 23.1507 18.0469 22.9395 17.8917 22.7833C17.8142 22.7052 17.722 22.6432 17.6205 22.6009C17.5189 22.5586 17.41 22.5368 17.3 22.5368C17.19 22.5368 17.0811 22.5586 16.9795 22.6009C16.878 22.6432 16.7858 22.7052 16.7083 22.7833ZM16.7083 15.7083C16.5531 15.8645 16.466 16.0757 16.466 16.2958C16.466 16.516 16.5531 16.7272 16.7083 16.8833C16.7858 16.9614 16.878 17.0234 16.9795 17.0657C17.0811 17.1081 17.19 17.1298 17.3 17.1298C17.41 17.1298 17.5189 17.1081 17.6205 17.0657C17.722 17.0234 17.8142 16.9614 17.8917 16.8833C18.0469 16.7272 18.134 16.516 18.134 16.2958C18.134 16.0757 18.0469 15.8645 17.8917 15.7083C17.8142 15.6302 17.722 15.5682 17.6205 15.5259C17.5189 15.4836 17.41 15.4618 17.3 15.4618C17.19 15.4618 17.0811 15.4836 16.9795 15.5259C16.878 15.5682 16.7858 15.6302 16.7083 15.7083ZM20.8333 24.0417C20.6685 24.0417 20.5074 24.0905 20.3704 24.1821C20.2333 24.2737 20.1265 24.4038 20.0634 24.5561C20.0004 24.7084 19.9839 24.8759 20.016 25.0376C20.0482 25.1992 20.1275 25.3477 20.2441 25.4643C20.3606 25.5808 20.5091 25.6602 20.6708 25.6923C20.8324 25.7245 21 25.708 21.1522 25.6449C21.3045 25.5818 21.4347 25.475 21.5262 25.338C21.6178 25.2009 21.6667 25.0398 21.6667 24.875C21.6723 24.7621 21.6549 24.6493 21.6156 24.5433C21.5763 24.4373 21.5158 24.3405 21.4378 24.2586C21.3599 24.1768 21.2661 24.1116 21.1622 24.0672C21.0582 24.0227 20.9464 23.9999 20.8333 24V24.0417ZM15.8333 19.0417C15.6685 19.0417 15.5074 19.0905 15.3704 19.1821C15.2333 19.2737 15.1265 19.4038 15.0634 19.5561C15.0004 19.7084 14.9839 19.8759 15.016 20.0376C15.0482 20.1992 15.1275 20.3477 15.2441 20.4643C15.3606 20.5808 15.5091 20.6602 15.6708 20.6923C15.8324 20.7245 16 20.708 16.1522 20.6449C16.3045 20.5818 16.4347 20.475 16.5262 20.338C16.6178 20.2009 16.6667 20.0398 16.6667 19.875C16.6723 19.7621 16.6549 19.6493 16.6156 19.5433C16.5763 19.4373 16.5158 19.3405 16.4378 19.2586C16.3599 19.1768 16.2661 19.1116 16.1622 19.0672C16.0582 19.0227 15.9464 18.9999 15.8333 19V19.0417ZM20.8333 14.0417C20.6685 14.0417 20.5074 14.0905 20.3704 14.1821C20.2333 14.2737 20.1265 14.4038 20.0634 14.5561C20.0004 14.7084 19.9839 14.8759 20.016 15.0376C20.0482 15.1992 20.1275 15.3477 20.2441 15.4643C20.3606 15.5808 20.5091 15.6602 20.6708 15.6923C20.8324 15.7245 21 15.708 21.1522 15.6449C21.3045 15.5818 21.4347 15.475 21.5262 15.338C21.6178 15.2009 21.6667 15.0398 21.6667 14.875C21.6723 14.7621 21.6549 14.6493 21.6156 14.5433C21.5763 14.4373 21.5158 14.3405 21.4378 14.2586C21.3599 14.1768 21.2661 14.1116 21.1622 14.0672C21.0582 14.0227 20.9464 13.9999 20.8333 14V14.0417ZM23.7833 15.75C23.6663 15.8663 23.5864 16.0148 23.5539 16.1766C23.5213 16.3384 23.5375 16.5062 23.6005 16.6588C23.6634 16.8113 23.7702 16.9418 23.9073 17.0336C24.0445 17.1253 24.2058 17.1743 24.3708 17.1743C24.5359 17.1743 24.6972 17.1253 24.8343 17.0336C24.9715 16.9418 25.0783 16.8113 25.1412 16.6588C25.2041 16.5062 25.2203 16.3384 25.1878 16.1766C25.1552 16.0148 25.0754 15.8663 24.9583 15.75C24.8078 15.5891 24.5996 15.4944 24.3794 15.4866C24.1592 15.4788 23.9449 15.5585 23.7833 15.7083V15.75ZM20.8333 19C20.6685 19 20.5074 19.0489 20.3704 19.1404C20.2333 19.232 20.1265 19.3622 20.0634 19.5144C20.0004 19.6667 19.9839 19.8343 20.016 19.9959C20.0482 20.1576 20.1275 20.306 20.2441 20.4226C20.3606 20.5391 20.5091 20.6185 20.6708 20.6507C20.8324 20.6828 21 20.6663 21.1522 20.6032C21.3045 20.5402 21.4347 20.4334 21.5262 20.2963C21.6178 20.1593 21.6667 19.9982 21.6667 19.8333C21.6667 19.6123 21.5789 19.4004 21.4226 19.2441C21.2663 19.0878 21.0543 19 20.8333 19Z" fill="#F1729B"/>
</svg>
