<svg width="40" height="40" viewBox="0 0 40 40" fill="none" xmlns="http://www.w3.org/2000/svg">
<path d="M20 40C31.0457 40 40 31.0457 40 20C40 8.9543 31.0457 0 20 0C8.9543 0 0 8.9543 0 20C0 31.0457 8.9543 40 20 40Z" fill="white"/>
<path d="M20 35C28.2843 35 35 28.2843 35 20C35 11.7157 28.2843 5 20 5C11.7157 5 5 11.7157 5 20C5 28.2843 11.7157 35 20 35Z" fill="#F1729B"/>
<path d="M26.2502 13.7494C25.45 12.9494 24.3649 12.5 23.2335 12.5C22.1021 12.5 21.0169 12.9494 20.2168 13.7494L13.7502 20.216C13.3444 20.61 13.0211 21.0808 12.799 21.6009C12.5768 22.121 12.4603 22.6801 12.4562 23.2456C12.452 23.8111 12.5604 24.3719 12.7749 24.8952C12.9894 25.4184 13.3058 25.8939 13.7057 26.2938C14.1056 26.6937 14.5811 27.0101 15.1044 27.2246C15.6276 27.4391 16.1884 27.5475 16.7539 27.5433C17.3194 27.5392 17.8785 27.4227 18.3986 27.2005C18.9187 26.9784 19.3895 26.6551 19.7835 26.2494L26.2502 19.7827C27.0501 18.9826 27.4995 17.8975 27.4995 16.766C27.4995 15.6346 27.0501 14.5495 26.2502 13.7494V13.7494ZM18.6002 25.0744C18.1035 25.5438 17.446 25.8053 16.7627 25.8053C16.0793 25.8053 15.4218 25.5438 14.9252 25.0744C14.4402 24.5858 14.168 23.9253 14.168 23.2369C14.168 22.5484 14.4402 21.8879 14.9252 21.3994L17.5752 18.7494L21.2502 22.4244L18.6002 25.0744ZM25.0752 18.5994L22.4252 21.2494L18.7502 17.5744L21.4002 14.9244C21.8927 14.463 22.5453 14.2111 23.2201 14.2221C23.8949 14.2332 24.539 14.5061 25.0162 14.9833C25.4934 15.4605 25.7664 16.1046 25.7774 16.7794C25.7884 17.4542 25.5366 18.1068 25.0752 18.5994V18.5994Z" fill="white"/>
<path d="M16.5 27L13 23.5L17.5 18L20 20.5L22.5 22.5L16.5 27Z" fill="white"/>
</svg>
