<svg width="137" height="164" viewBox="0 0 137 164" fill="none" xmlns="http://www.w3.org/2000/svg">
<g filter="url(#filter0_d_278_1138)">
<rect x="16" width="102" height="156" fill="white"/>
</g>
<path d="M93.9524 142.795L95.1674 139.91H93.6774V139.365H95.9374V139.775L94.7324 142.795H93.9524ZM97.6704 142.855C96.9004 142.855 96.2954 142.375 96.2954 141.19V141.01C96.2954 139.765 96.9604 139.31 97.6804 139.31C98.4154 139.31 99.0504 139.775 99.0504 140.995V141.17C99.0504 142.405 98.4054 142.855 97.6704 142.855ZM97.6704 142.325C98.1054 142.325 98.3154 142.01 98.3154 141.21V140.995C98.3154 140.2 98.1004 139.84 97.6754 139.84C97.2454 139.84 97.0404 140.18 97.0404 140.96V141.175C97.0404 141.95 97.2354 142.325 97.6704 142.325ZM99.2566 143.5L99.4616 142.46H100.147L99.7766 143.5H99.2566ZM101.546 142.845C101.151 142.845 100.786 142.745 100.556 142.615L100.676 142.085C100.871 142.185 101.101 142.275 101.356 142.275C101.811 142.275 102.086 142.075 102.086 141.69C102.086 141.285 101.841 141.115 101.386 141.115C101.181 141.115 100.856 141.225 100.696 141.305L100.826 139.365H102.646V139.9H101.351L101.301 140.665C101.396 140.63 101.581 140.605 101.701 140.605C102.396 140.605 102.816 140.965 102.816 141.7C102.816 142.35 102.341 142.845 101.546 142.845ZM104.599 142.855C103.829 142.855 103.224 142.375 103.224 141.19V141.01C103.224 139.765 103.889 139.31 104.609 139.31C105.344 139.31 105.979 139.775 105.979 140.995V141.17C105.979 142.405 105.334 142.855 104.599 142.855ZM104.599 142.325C105.034 142.325 105.244 142.01 105.244 141.21V140.995C105.244 140.2 105.029 139.84 104.604 139.84C104.174 139.84 103.969 140.18 103.969 140.96V141.175C103.969 141.95 104.164 142.325 104.599 142.325ZM107.861 142.855C107.091 142.855 106.486 142.375 106.486 141.19V141.01C106.486 139.765 107.151 139.31 107.871 139.31C108.606 139.31 109.241 139.775 109.241 140.995V141.17C109.241 142.405 108.596 142.855 107.861 142.855ZM107.861 142.325C108.296 142.325 108.506 142.01 108.506 141.21V140.995C108.506 140.2 108.291 139.84 107.866 139.84C107.436 139.84 107.231 140.18 107.231 140.96V141.175C107.231 141.95 107.426 142.325 107.861 142.325Z" fill="#666666"/>
<path d="M35.5977 140.74H34.9977V141.65H34.3427V138.94H34.9977V140.2H35.5977V140.74ZM34.9977 143.36H32.0427V141.81H32.7077V142.11H34.3427V141.81H34.9977V143.36ZM34.3427 142.855V142.605H32.7077V142.855H34.3427ZM34.0727 140.165H31.4827V139.68H34.0727V140.165ZM32.1377 139.535V139.04H33.4527V139.535H32.1377ZM33.8677 140.96C33.8677 141.355 33.4227 141.67 32.7927 141.67C32.1527 141.67 31.7127 141.355 31.7127 140.96C31.7127 140.56 32.1477 140.245 32.7927 140.245C33.4227 140.245 33.8677 140.56 33.8677 140.96ZM32.3777 140.96C32.3777 141.115 32.5477 141.21 32.7927 141.21C33.0327 141.21 33.2077 141.115 33.2077 140.96C33.2077 140.805 33.0327 140.7 32.7927 140.7C32.5477 140.7 32.3777 140.805 32.3777 140.96ZM38.7438 143.195H38.1338V141.715H37.6388V141.16H38.1338V140.635H37.6788V140.055H38.1338V139.02H38.7438V143.195ZM39.6238 143.395H39.0038V138.94H39.6238V143.395ZM37.6838 139.46C37.7138 140.8 37.2088 141.815 36.1088 142.485L35.7138 141.99C36.5838 141.49 36.9488 140.795 37.0338 139.98H35.9738V139.46H37.6838ZM43.66 143.345H40.665V141.675H43.66V143.345ZM43.685 139.1C43.695 139.64 43.63 140.26 43.52 140.69H44.175V141.21H40.15V140.69H42.905C42.97 140.475 43.03 139.935 43.025 139.625H40.69V139.1H43.685ZM43 142.835V142.17H41.32V142.835H43ZM46.5812 140.325C46.5812 140.855 46.2462 141.385 45.5412 141.385C44.8462 141.385 44.4912 140.855 44.4912 140.325C44.4912 139.79 44.8462 139.265 45.5362 139.265C46.2462 139.265 46.5812 139.79 46.5812 140.325ZM48.2762 141.56H47.6562V140.53H47.3412V141.535H46.7262V139.02H47.3412V140H47.6562V138.94H48.2762V141.56ZM45.1012 141.765H48.2762V143.4H47.6162V142.285H45.1012V141.765ZM45.9562 140.325C45.9562 140.035 45.7662 139.82 45.5362 139.82C45.3112 139.82 45.1262 140.035 45.1262 140.325C45.1262 140.605 45.3112 140.83 45.5362 140.83C45.7662 140.83 45.9562 140.605 45.9562 140.325Z" fill="#666666"/>
<rect width="72" height="0.5" transform="matrix(1 0 0 -1 31 133)" fill="#DDDDDD"/>
<path d="M93.8822 112.815V109.995L93.3072 110.11V109.75L94.1772 109.36H94.5022V112.815H93.8822ZM96.1722 112.845C95.7622 112.845 95.3622 112.73 95.1672 112.605L95.2672 112.16C95.4422 112.27 95.8122 112.355 96.0672 112.355C96.5272 112.355 96.7972 112.165 96.7972 111.78C96.7972 111.415 96.5222 111.265 96.0872 111.26L95.7322 111.25V110.805L96.0472 110.8C96.4422 110.79 96.7072 110.61 96.7072 110.29C96.7072 109.945 96.4722 109.82 96.0972 109.82C95.8422 109.82 95.5722 109.905 95.3672 110L95.2972 109.545C95.5072 109.425 95.9222 109.33 96.2572 109.33C96.8922 109.33 97.3222 109.63 97.3222 110.18C97.3222 110.59 97.0822 110.85 96.7072 110.98C97.1372 111.065 97.4372 111.31 97.4372 111.82C97.4372 112.45 96.9522 112.845 96.1722 112.845ZM97.7446 113.47L97.9446 112.46H98.5746L98.2146 113.47H97.7446ZM99.9845 112.845C99.5945 112.845 99.2295 112.745 99.0095 112.61L99.1195 112.14C99.3045 112.25 99.5645 112.345 99.8295 112.345C100.304 112.345 100.594 112.115 100.594 111.7C100.594 111.265 100.324 111.085 99.8545 111.085C99.6395 111.085 99.3195 111.19 99.1595 111.27L99.2845 109.385H101.074V109.865H99.7545L99.6895 110.7C99.8045 110.67 99.9895 110.64 100.119 110.64C100.804 110.64 101.229 110.99 101.229 111.715C101.229 112.35 100.764 112.845 99.9845 112.845ZM103.018 112.855C102.268 112.855 101.688 112.375 101.688 111.21V110.995C101.688 109.77 102.318 109.33 103.023 109.33C103.733 109.33 104.343 109.775 104.343 110.98V111.195C104.343 112.4 103.733 112.855 103.018 112.855ZM103.018 112.385C103.478 112.385 103.708 112.055 103.708 111.235V110.98C103.708 110.165 103.473 109.805 103.023 109.805C102.558 109.805 102.328 110.145 102.328 110.945V111.21C102.328 112.005 102.553 112.385 103.018 112.385ZM106.25 112.855C105.5 112.855 104.92 112.375 104.92 111.21V110.995C104.92 109.77 105.55 109.33 106.255 109.33C106.965 109.33 107.575 109.775 107.575 110.98V111.195C107.575 112.4 106.965 112.855 106.25 112.855ZM106.25 112.385C106.71 112.385 106.94 112.055 106.94 111.235V110.98C106.94 110.165 106.705 109.805 106.255 109.805C105.79 109.805 105.56 110.145 105.56 110.945V111.21C105.56 112.005 105.785 112.385 106.25 112.385Z" fill="#8E8E93"/>
<path d="M80.8397 122.845C80.4297 122.845 80.0297 122.73 79.8347 122.605L79.9347 122.16C80.1097 122.27 80.4797 122.355 80.7347 122.355C81.1947 122.355 81.4647 122.165 81.4647 121.78C81.4647 121.415 81.1897 121.265 80.7547 121.26L80.3997 121.25V120.805L80.7147 120.8C81.1097 120.79 81.3747 120.61 81.3747 120.29C81.3747 119.945 81.1397 119.82 80.7647 119.82C80.5097 119.82 80.2397 119.905 80.0347 120L79.9647 119.545C80.1747 119.425 80.5897 119.33 80.9247 119.33C81.5597 119.33 81.9897 119.63 81.9897 120.18C81.9897 120.59 81.7497 120.85 81.3747 120.98C81.8047 121.065 82.1047 121.31 82.1047 121.82C82.1047 122.45 81.6197 122.845 80.8397 122.845Z" fill="#8E8E93"/>
<path d="M79.9221 112.795V112.435L80.5771 111.745C81.0521 111.245 81.4321 110.82 81.4321 110.39C81.4321 109.975 81.2071 109.815 80.7721 109.815C80.5321 109.815 80.2521 109.93 80.0621 110.045L79.9621 109.59C80.1921 109.455 80.5421 109.33 80.9371 109.33C81.6871 109.33 82.0721 109.69 82.0721 110.31C82.0721 110.92 81.5521 111.465 81.1321 111.9L80.7271 112.315H82.1021V112.795H79.9221Z" fill="#8E8E93"/>
<path d="M92.7009 102.795V102.435L93.3559 101.745C93.8309 101.245 94.2109 100.82 94.2109 100.39C94.2109 99.975 93.9859 99.815 93.5509 99.815C93.3109 99.815 93.0309 99.93 92.8409 100.045L92.7409 99.59C92.9709 99.455 93.3209 99.33 93.7159 99.33C94.4659 99.33 94.8509 99.69 94.8509 100.31C94.8509 100.92 94.3309 101.465 93.9109 101.9L93.5059 102.315H94.8809V102.795H92.7009ZM95.3767 102.795V102.435L96.0317 101.745C96.5067 101.245 96.8867 100.82 96.8867 100.39C96.8867 99.975 96.6617 99.815 96.2267 99.815C95.9867 99.815 95.7067 99.93 95.5167 100.045L95.4167 99.59C95.6467 99.455 95.9967 99.33 96.3917 99.33C97.1417 99.33 97.5267 99.69 97.5267 100.31C97.5267 100.92 97.0067 101.465 96.5867 101.9L96.1817 102.315H97.5567V102.795H95.3767ZM97.9375 103.47L98.1375 102.46H98.7675L98.4075 103.47H97.9375ZM100.462 102.855C99.7118 102.855 99.1318 102.375 99.1318 101.21V100.995C99.1318 99.77 99.7618 99.33 100.467 99.33C101.177 99.33 101.787 99.775 101.787 100.98V101.195C101.787 102.4 101.177 102.855 100.462 102.855ZM100.462 102.385C100.922 102.385 101.152 102.055 101.152 101.235V100.98C101.152 100.165 100.917 99.805 100.467 99.805C100.002 99.805 99.7718 100.145 99.7718 100.945V101.21C99.7718 102.005 99.9968 102.385 100.462 102.385ZM103.694 102.855C102.944 102.855 102.364 102.375 102.364 101.21V100.995C102.364 99.77 102.994 99.33 103.699 99.33C104.409 99.33 105.019 99.775 105.019 100.98V101.195C105.019 102.4 104.409 102.855 103.694 102.855ZM103.694 102.385C104.154 102.385 104.384 102.055 104.384 101.235V100.98C104.384 100.165 104.149 99.805 103.699 99.805C103.234 99.805 103.004 100.145 103.004 100.945V101.21C103.004 102.005 103.229 102.385 103.694 102.385ZM106.927 102.855C106.177 102.855 105.597 102.375 105.597 101.21V100.995C105.597 99.77 106.227 99.33 106.932 99.33C107.642 99.33 108.252 99.775 108.252 100.98V101.195C108.252 102.4 107.642 102.855 106.927 102.855ZM106.927 102.385C107.387 102.385 107.617 102.055 107.617 101.235V100.98C107.617 100.165 107.382 99.805 106.932 99.805C106.467 99.805 106.237 100.145 106.237 100.945V101.21C106.237 102.005 106.462 102.385 106.927 102.385Z" fill="#8E8E93"/>
<path d="M93.7283 122.845C93.3183 122.845 92.9183 122.73 92.7233 122.605L92.8233 122.16C92.9983 122.27 93.3683 122.355 93.6233 122.355C94.0833 122.355 94.3533 122.165 94.3533 121.78C94.3533 121.415 94.0783 121.265 93.6433 121.26L93.2883 121.25V120.805L93.6033 120.8C93.9983 120.79 94.2633 120.61 94.2633 120.29C94.2633 119.945 94.0283 119.82 93.6533 119.82C93.3983 119.82 93.1283 119.905 92.9233 120L92.8533 119.545C93.0633 119.425 93.4783 119.33 93.8133 119.33C94.4483 119.33 94.8783 119.63 94.8783 120.18C94.8783 120.59 94.6383 120.85 94.2633 120.98C94.6933 121.065 94.9933 121.31 94.9933 121.82C94.9933 122.45 94.5083 122.845 93.7283 122.845ZM96.359 122.845C95.969 122.845 95.604 122.745 95.384 122.61L95.494 122.14C95.679 122.25 95.939 122.345 96.204 122.345C96.679 122.345 96.969 122.115 96.969 121.7C96.969 121.265 96.699 121.085 96.229 121.085C96.014 121.085 95.694 121.19 95.534 121.27L95.659 119.385H97.449V119.865H96.129L96.064 120.7C96.179 120.67 96.364 120.64 96.494 120.64C97.179 120.64 97.604 120.99 97.604 121.715C97.604 122.35 97.139 122.845 96.359 122.845ZM97.8301 123.47L98.0301 122.46H98.6601L98.3001 123.47H97.8301ZM100.354 122.855C99.6044 122.855 99.0244 122.375 99.0244 121.21V120.995C99.0244 119.77 99.6544 119.33 100.359 119.33C101.069 119.33 101.679 119.775 101.679 120.98V121.195C101.679 122.4 101.069 122.855 100.354 122.855ZM100.354 122.385C100.814 122.385 101.044 122.055 101.044 121.235V120.98C101.044 120.165 100.809 119.805 100.359 119.805C99.8944 119.805 99.6644 120.145 99.6644 120.945V121.21C99.6644 122.005 99.8894 122.385 100.354 122.385ZM103.587 122.855C102.837 122.855 102.257 122.375 102.257 121.21V120.995C102.257 119.77 102.887 119.33 103.592 119.33C104.302 119.33 104.912 119.775 104.912 120.98V121.195C104.912 122.4 104.302 122.855 103.587 122.855ZM103.587 122.385C104.047 122.385 104.277 122.055 104.277 121.235V120.98C104.277 120.165 104.042 119.805 103.592 119.805C103.127 119.805 102.897 120.145 102.897 120.945V121.21C102.897 122.005 103.122 122.385 103.587 122.385ZM106.819 122.855C106.069 122.855 105.489 122.375 105.489 121.21V120.995C105.489 119.77 106.119 119.33 106.824 119.33C107.534 119.33 108.144 119.775 108.144 120.98V121.195C108.144 122.4 107.534 122.855 106.819 122.855ZM106.819 122.385C107.279 122.385 107.509 122.055 107.509 121.235V120.98C107.509 120.165 107.274 119.805 106.824 119.805C106.359 119.805 106.129 120.145 106.129 120.945V121.21C106.129 122.005 106.354 122.385 106.819 122.385Z" fill="#8E8E93"/>
<path d="M80.8275 102.815V99.995L80.2525 100.11V99.75L81.1225 99.36H81.4475V102.815H80.8275Z" fill="#8E8E93"/>
<path d="M33.8368 122.11L33.5318 122.565C33.1068 122.36 32.5868 121.855 32.4518 121.425C32.3418 121.875 31.8868 122.405 31.3668 122.66L31.0168 122.23C31.7318 121.89 32.1018 121.315 32.1368 120.46H31.2468V120H33.6218V120.46H32.7468C32.7918 121.32 33.2518 121.855 33.8368 122.11ZM34.7168 123.395H34.1318V118.94H34.7168V123.395ZM31.7618 119.675V119.21H33.1018V119.675H31.7618ZM39.243 121.165L38.958 121.625C38.358 121.49 37.633 121.095 37.368 120.515C37.128 121.1 36.383 121.51 35.788 121.625L35.503 121.155C36.208 121.06 37.003 120.575 37.048 119.82H35.723V119.35H39.008V119.82H37.698C37.748 120.565 38.583 121.065 39.243 121.165ZM39.383 122.81H35.358V122.345H39.383V122.81ZM44.6777 123.395H44.0977V120.99H43.4177V120.495H44.0977V118.94H44.6777V123.395ZM42.6277 121.75V119.82H41.7177V121.75H42.6277ZM43.2177 119.35V122.22H41.1327V119.35H43.2177ZM49.0338 118.94V123.395H48.4488V118.94H49.0338ZM47.0688 123.265H46.4738V121.725C46.0488 121.745 45.6838 121.75 45.3638 121.75L45.2788 121.27C46.4238 121.27 47.5938 121.215 48.2138 121.14L48.2638 121.59C47.8838 121.64 47.4588 121.675 47.0688 121.7V123.265ZM48.1288 120.345C48.0338 120.505 47.9438 120.655 47.8538 120.815C47.4788 120.755 46.9588 120.41 46.7938 120.065C46.6488 120.44 46.1688 120.815 45.6938 120.94C45.5938 120.785 45.4838 120.635 45.3788 120.485C46.0538 120.325 46.4738 119.89 46.4738 119.345V119.145H47.0888V119.34C47.0888 119.87 47.5738 120.26 48.1288 120.345ZM53.165 123.34H50.16V121.97H51.36V121.66H49.65V121.2H53.675V121.66H51.945V121.97H53.165V123.34ZM53.255 120.935H50.18V119.78H52.55V119.505H50.16V119.06H53.14V120.205H50.765V120.495H53.255V120.935ZM52.575 122.895V122.415H50.74V122.895H52.575ZM59.3146 122.84H55.2896V122.375H57.0046V121.665C56.1896 121.57 55.6696 121.095 55.6696 120.445C55.6696 119.725 56.3196 119.22 57.3046 119.22C58.2946 119.22 58.9396 119.725 58.9396 120.445C58.9396 121.1 58.4146 121.58 57.5896 121.665V122.375H59.3146V122.84ZM58.3496 120.45C58.3496 120.005 57.9396 119.7 57.3046 119.7C56.6746 119.7 56.2646 120.005 56.2646 120.45C56.2646 120.9 56.6746 121.2 57.3046 121.2C57.9346 121.2 58.3496 120.9 58.3496 120.45ZM63.6408 121.23H59.6158V120.76H63.6408V121.23ZM63.1058 120.475H60.1508V119.055H63.1058V120.475ZM62.5108 120.02V119.505H60.7358V120.02H62.5108ZM63.2708 123.355H60.1158V122.22H62.5258V121.965H60.1008V121.5H63.1058V122.635H60.6958V122.875H63.2708V123.355ZM66.072 121.425C65.607 121.54 64.617 121.56 64.127 121.56V120.15H65.187V119.73H64.112V119.265H65.772V120.605H64.712V121.095C65.082 121.095 65.712 121.055 66.012 120.98C66.027 121.13 66.052 121.275 66.072 121.425ZM67.922 122.985C67.832 123.14 67.737 123.29 67.647 123.44C67.047 123.335 66.417 122.955 66.197 122.55C66.002 122.96 65.377 123.335 64.747 123.44L64.467 122.97C65.247 122.88 65.907 122.455 65.907 121.845V121.74H66.507V121.845C66.507 122.46 67.177 122.86 67.922 122.985ZM67.727 121.935H67.172V118.94H67.727V121.935ZM66.337 120.6H65.927V120.13H66.337V119.02H66.887V121.56H66.337V120.6Z" fill="#8E8E93"/>
<path d="M32.9547 99.475V102.235H31.1497V99.475H32.9547ZM34.8047 103.395H34.2447V101.16H33.8847V103.19H33.3347V99.02H33.8847V100.69H34.2447V98.94H34.8047V103.395ZM32.4047 101.785V99.925H31.6997V101.785H32.4047ZM38.8559 103.335H35.8509V101.785H38.8559V103.335ZM38.8809 99.075C38.8809 99.85 38.8559 100.405 38.7509 100.84L38.1859 100.77C38.2259 100.62 38.2559 100.445 38.2709 100.255L35.7709 100.37L35.6959 99.93L38.2909 99.825V99.535H35.8509V99.075H38.8809ZM39.3659 101.475H35.3409V101.01H36.8459V100.51H37.4259V101.01H39.3659V101.475ZM38.2709 102.88V102.235H36.4359V102.88H38.2709ZM43.2606 99.39C43.2606 100.89 42.6106 101.96 41.2806 102.65L40.9206 102.235C41.5406 101.95 42.0506 101.49 42.3556 100.905L41.1206 101.04C41.0956 100.87 41.0706 100.705 41.0406 100.535L42.5506 100.425C42.5956 100.25 42.6306 100.065 42.6456 99.875H41.2606V99.39H43.2606ZM44.4606 98.94V100.65H45.0856V101.135H44.4606V103.395H43.8806V98.94H44.4606ZM49.0967 103.395H48.5367V98.94H49.0967V103.395ZM48.2367 103.19H47.6917V101.035H47.2067V100.565H47.6917V99.025H48.2367V103.19ZM47.2717 101.775L47.3317 102.225C46.9517 102.32 46.3217 102.355 45.8117 102.355H45.4517V100.575H46.4467V99.875H45.4517V99.405H47.0267V101.04H46.0417V101.875C46.5567 101.875 46.8917 101.85 47.2717 101.775ZM52.1729 101.165C51.7379 101.27 51.0479 101.32 50.2879 101.32H49.8529V99.185H51.8329V99.65H50.4379V100.845C51.0629 100.845 51.6379 100.815 52.0979 100.715C52.1179 100.865 52.1429 101.015 52.1729 101.165ZM53.3129 101.35H52.7329V100.405H51.6329V99.935H52.7329V98.94H53.3129V101.35ZM53.3879 103.335H50.2679V102.87H50.8879L50.7629 102.25L51.3379 102.175L51.4479 102.87H52.2079L52.3179 102.175L52.8979 102.25L52.7529 102.87H53.3879V103.335ZM53.3579 102.05H50.3029V101.585H53.3579V102.05ZM58.0741 100.42H57.4441V101.365H56.8491V98.94H57.4441V99.94H58.0741V100.42ZM57.4441 103.34H54.5541V101.6H55.1391V102.015H56.8541V101.59H57.4441V103.34ZM56.8541 102.875V102.475H55.1391V102.875H56.8541ZM56.1791 101.16H54.0691V99.165H54.6491V99.745H55.5891V99.155H56.1791V101.16ZM55.5891 100.7V100.205H54.6491V100.7H55.5891Z" fill="#8E8E93"/>
<path d="M34.8938 112.84H30.8688V112.375H32.5838V111.665C31.7688 111.57 31.2488 111.095 31.2488 110.445C31.2488 109.725 31.8988 109.22 32.8838 109.22C33.8738 109.22 34.5188 109.725 34.5188 110.445C34.5188 111.1 33.9938 111.58 33.1688 111.665V112.375H34.8938V112.84ZM33.9288 110.45C33.9288 110.005 33.5188 109.7 32.8838 109.7C32.2538 109.7 31.8438 110.005 31.8438 110.45C31.8438 110.9 32.2538 111.2 32.8838 111.2C33.5138 111.2 33.9288 110.9 33.9288 110.45ZM38.2949 108.94H38.8749V113.395H38.2949V108.94ZM37.9049 111.765L37.9699 112.23C37.4999 112.325 36.6699 112.375 35.9149 112.375H35.4449V110.525H36.8899V109.785H35.4249V109.32H37.4799V110.99H36.0249V111.895C36.4499 111.895 37.3349 111.87 37.9049 111.765ZM42.4311 112.11H41.8861V110.575H41.5661C41.4761 111.02 41.1411 111.4 40.5811 111.4C39.9161 111.4 39.5661 110.87 39.5661 110.325C39.5661 109.775 39.9161 109.24 40.5761 109.24C41.1461 109.24 41.4861 109.64 41.5711 110.105H41.8861V109.02H42.4311V112.11ZM43.4161 113.285H40.2461V111.885H40.8311V112.825H43.4161V113.285ZM43.3111 112.21H42.7511V108.94H43.3111V112.21ZM41.0461 110.33C41.0461 109.995 40.8461 109.725 40.5761 109.725C40.3111 109.725 40.1161 109.995 40.1161 110.33C40.1161 110.655 40.3111 110.92 40.5761 110.92C40.8461 110.92 41.0461 110.655 41.0461 110.33ZM47.4523 113.36H44.3873V112.185H46.7373V111.91H44.3873V111.445H47.3273V112.61H44.9723V112.89H47.4523V113.36ZM44.5723 110.725C44.9123 110.745 45.8023 110.725 46.3123 110.615L46.3623 111.04C45.9323 111.15 45.0723 111.18 44.4223 111.18H43.9923V109.175H46.0023V109.62H44.5723V109.94H45.9123V110.39H44.5723V110.725ZM47.9573 110.345H47.3273V111.23H46.7373V108.94H47.3273V109.865H47.9573V110.345ZM53.2769 113.395H52.7219V111.16H52.3519V113.19H51.8069V109.02H52.3519V110.69H52.7219V108.94H53.2769V113.395ZM51.7019 111.895L51.3669 112.31C51.0819 112.13 50.7019 111.69 50.5819 111.25C50.4619 111.715 50.1269 112.175 49.7069 112.425L49.3719 112.025C49.9319 111.66 50.2969 110.99 50.2969 110.04V109.37H50.8619V110.035C50.8619 110.895 51.1619 111.575 51.7019 111.895ZM57.4031 110.12C57.4031 110.71 56.7881 111.105 55.8181 111.105C54.8581 111.105 54.2381 110.71 54.2381 110.12C54.2381 109.535 54.8581 109.135 55.8181 109.135C56.7881 109.135 57.4031 109.535 57.4031 110.12ZM56.1081 113.4H55.5231V111.92H53.8131V111.45H57.8381V111.92H56.1081V113.4ZM56.7931 110.12C56.7931 109.825 56.4181 109.6 55.8181 109.6C55.2131 109.6 54.8431 109.825 54.8431 110.12C54.8431 110.415 55.2131 110.64 55.8181 110.64C56.4181 110.64 56.7931 110.415 56.7931 110.12ZM63.3777 113.36H60.2327V112.175H62.6477V111.885H60.2027V111.425H63.2427V112.605H60.8227V112.89H63.3777V113.36ZM63.2427 111.2H62.6827V110.37H62.3277V111.175H61.7827V109.02H62.3277V109.905H62.6827V108.94H63.2427V111.2ZM61.6927 110.73L61.4027 111.15C61.1077 111.025 60.7077 110.68 60.5927 110.39C60.4727 110.735 60.1177 111.115 59.7327 111.295L59.4127 110.89C59.9527 110.595 60.2927 110.13 60.2927 109.5V109.13H60.8577V109.485C60.8577 110.105 61.2327 110.515 61.6927 110.73ZM66.2789 112.255C65.8089 112.345 65.1639 112.395 64.4089 112.395H63.9389V110.525H65.3139V109.785H63.9339V109.32H65.9089V110.99H64.5239V111.915C64.9389 111.915 65.6389 111.895 66.2189 111.785L66.2789 112.255ZM67.4589 113.395H66.8789V111.08H66.2039V110.59H66.8789V108.94H67.4589V113.395ZM72.1301 112.345V112.81H68.1051V112.345H72.1301ZM71.6651 111.405H68.6201V109.315H71.6251V109.785H69.2001V110.94H71.6651V111.405Z" fill="#8E8E93"/>
<path d="M78.6488 92.4H77.9938V90.85H76.3238V90.325H80.3488V90.85H78.6488V92.4ZM80.1738 89.455L79.9188 89.995C79.2388 89.895 78.5688 89.505 78.3388 89.015C78.0988 89.505 77.4388 89.905 76.7638 90L76.5038 89.47C77.2638 89.39 77.9938 88.93 77.9938 88.24V88.035H78.6838V88.24C78.6838 88.93 79.4088 89.37 80.1738 89.455ZM84.22 91.53C84.22 92.055 83.63 92.385 82.65 92.385C81.665 92.385 81.075 92.055 81.075 91.53C81.075 91.01 81.665 90.675 82.65 90.675C83.63 90.675 84.22 91.005 84.22 91.53ZM83.165 89.87L83.22 90.37C82.92 90.45 82.13 90.515 81.585 90.515C81.32 90.515 81.06 90.505 80.795 90.5V89.095H82.115V88.715H80.8V88.195H82.79V89.575H81.46V89.99C81.555 89.995 81.655 89.995 81.77 89.995C82.235 89.995 82.81 89.95 83.165 89.87ZM84.705 89.49V90.025H84.145V90.66H83.48V87.94H84.145V88.525H84.705V89.06H84.145V89.49H84.705ZM82.65 91.175C82.09 91.175 81.765 91.325 81.765 91.53C81.765 91.73 82.09 91.875 82.65 91.875C83.215 91.875 83.53 91.725 83.53 91.53C83.53 91.335 83.215 91.175 82.65 91.175Z" fill="#666666"/>
<path d="M97.8338 92.345H94.8388V90.675H97.8338V92.345ZM97.8588 88.1C97.8688 88.64 97.8038 89.26 97.6938 89.69H98.3488V90.21H94.3238V89.69H97.0788C97.1438 89.475 97.2038 88.935 97.1988 88.625H94.8638V88.1H97.8588ZM97.1738 91.835V91.17H95.4938V91.835H97.1738ZM100.755 89.325C100.755 89.855 100.42 90.385 99.715 90.385C99.02 90.385 98.665 89.855 98.665 89.325C98.665 88.79 99.02 88.265 99.71 88.265C100.42 88.265 100.755 88.79 100.755 89.325ZM102.45 90.56H101.83V89.53H101.515V90.535H100.9V88.02H101.515V89H101.83V87.94H102.45V90.56ZM99.275 90.765H102.45V92.4H101.79V91.285H99.275V90.765ZM100.13 89.325C100.13 89.035 99.94 88.82 99.71 88.82C99.485 88.82 99.3 89.035 99.3 89.325C99.3 89.605 99.485 89.83 99.71 89.83C99.94 89.83 100.13 89.605 100.13 89.325Z" fill="#666666"/>
<path d="M35.2807 89.55H34.6607V90.545H34.0007V87.94H34.6607V89.01H35.2807V89.55ZM33.7857 89.875L33.4257 90.39C33.0857 90.28 32.6207 89.92 32.4607 89.545C32.3307 89.965 31.8207 90.385 31.3957 90.525L31.0607 90.005C31.7307 89.775 32.1157 89.26 32.1157 88.605V88.205H32.7907V88.575C32.7907 89.29 33.2257 89.68 33.7857 89.875ZM34.7057 91.48C34.7057 92.03 34.1107 92.375 33.1257 92.375C32.1457 92.375 31.5557 92.03 31.5557 91.48C31.5557 90.92 32.1457 90.57 33.1257 90.57C34.1107 90.57 34.7057 90.92 34.7057 91.48ZM33.1257 91.1C32.5607 91.1 32.2257 91.25 32.2257 91.48C32.2257 91.71 32.5607 91.855 33.1257 91.855C33.7107 91.855 34.0307 91.71 34.0307 91.48C34.0307 91.25 33.7107 91.1 33.1257 91.1ZM39.0119 92.325H35.9769V90.9H37.1569V90.545H35.4869V90.025H39.5119V90.545H37.8119V90.9H39.0119V92.325ZM39.0819 89.81H35.9019V89.295H36.4719C36.4419 89.135 36.4119 88.975 36.3869 88.81C36.5919 88.785 36.7969 88.76 37.0119 88.74C37.0369 88.93 37.0619 89.115 37.0919 89.295H37.8869C37.9219 89.115 37.9569 88.935 37.9869 88.745L38.6219 88.815C38.5819 88.975 38.5369 89.135 38.5019 89.295H39.0819V89.81ZM39.1219 88.595H35.8719V88.08H39.1219V88.595ZM38.3519 91.815V91.4H36.6369V91.815H38.3519ZM42.8431 89.115H42.3231V88.605H42.8431V87.94H43.5131V90.54H42.8431V90.01H42.3181V89.5H42.8431V89.115ZM42.0581 90.325H39.9731V88.29H42.0581V90.325ZM41.4081 89.805V88.805H40.6281V89.805H41.4081ZM43.5481 91.48C43.5481 92.03 42.9581 92.375 41.9731 92.375C40.9881 92.375 40.4031 92.03 40.4031 91.48C40.4031 90.92 40.9881 90.57 41.9731 90.57C42.9581 90.57 43.5481 90.92 43.5481 91.48ZM41.9731 91.1C41.4031 91.1 41.0731 91.25 41.0731 91.48C41.0731 91.71 41.4031 91.855 41.9731 91.855C42.5531 91.855 42.8781 91.71 42.8781 91.48C42.8781 91.25 42.5531 91.1 41.9731 91.1Z" fill="#666666"/>
<path d="M48.2347 14.6L47.7627 15.488C46.8827 15.32 45.5707 14.624 45.1707 13.584C44.7947 14.624 43.5067 15.312 42.5947 15.488L42.1227 14.608C43.2907 14.472 44.6107 13.584 44.6107 12.28V11.904H45.7467V12.28C45.7467 13.592 47.0507 14.464 48.2347 14.6ZM48.4027 17.752H41.9627V16.92H44.6347V15.304H45.6827V16.92H48.4027V17.752ZM55.1565 14.6L54.6845 15.488C53.8045 15.32 52.4925 14.624 52.0925 13.584C51.7165 14.624 50.4285 15.312 49.5165 15.488L49.0445 14.608C50.2125 14.472 51.5325 13.584 51.5325 12.28V11.904H52.6685V12.28C52.6685 13.592 53.9725 14.464 55.1565 14.6ZM55.3245 17.752H48.8845V16.92H51.5565V15.304H52.6045V16.92H55.3245V17.752ZM61.7344 15.696H60.6544V11.504H61.7344V15.696ZM56.8464 15.976H61.7424V18.64H60.6784V16.808H56.8464V15.976ZM60.1904 14.536L59.6224 15.376C59.0704 15.184 58.3264 14.6 58.0624 14C57.8624 14.664 57.0304 15.336 56.3664 15.56L55.8224 14.728C56.8864 14.368 57.5104 13.536 57.5104 12.496V11.912H58.5904V12.44C58.5904 13.584 59.2864 14.232 60.1904 14.536ZM63.9923 14.496C64.9363 14.496 66.0403 14.432 66.7283 14.288C66.7603 14.56 66.7923 14.832 66.8163 15.096C66.1923 15.224 64.9043 15.352 63.5523 15.352C63.3523 15.352 63.1603 15.336 62.9443 15.336V12.024H66.1363V12.848H63.9923V14.496ZM69.2643 14.048H68.3203V15.728H67.2563V11.504H68.3203V13.184H69.2643V14.048ZM68.3923 17.176C68.3923 18.024 67.4563 18.552 65.9043 18.552C64.3443 18.552 63.4083 18.024 63.4083 17.176C63.4083 16.296 64.3443 15.776 65.9043 15.776C67.4563 15.776 68.3923 16.296 68.3923 17.176ZM67.2883 17.176C67.2883 16.816 66.7923 16.608 65.9043 16.608C65.0163 16.608 64.5123 16.816 64.5123 17.176C64.5123 17.512 65.0163 17.72 65.9043 17.72C66.7923 17.72 67.2883 17.512 67.2883 17.176ZM77.7117 17.176C77.7117 18.048 76.7677 18.6 75.1917 18.6C73.6237 18.6 72.6797 18.048 72.6797 17.176C72.6797 16.272 73.6237 15.712 75.1917 15.712C76.7677 15.712 77.7117 16.272 77.7117 17.176ZM75.5197 13.672C75.5197 14.672 74.7037 15.36 73.6397 15.36C72.5757 15.36 71.7677 14.672 71.7677 13.672C71.7677 12.664 72.5757 12.008 73.6397 12.008C74.7037 12.008 75.5197 12.672 75.5197 13.672ZM75.7037 14.864L75.7277 13.968H76.5997V13.256H75.7277L75.7037 12.36H76.5997V11.504H77.6717V15.752H76.5997V14.864H75.7037ZM76.6397 17.176C76.6397 16.8 76.1197 16.56 75.1917 16.56C74.2877 16.56 73.7517 16.8 73.7517 17.176C73.7517 17.528 74.2877 17.768 75.1917 17.768C76.1197 17.768 76.6397 17.528 76.6397 17.176ZM74.4957 13.68C74.4957 13.184 74.1117 12.864 73.6397 12.864C73.1597 12.864 72.7917 13.176 72.7917 13.68C72.7917 14.176 73.1597 14.496 73.6397 14.496C74.1197 14.496 74.4957 14.176 74.4957 13.68ZM82.3936 18.64H81.3456V16.16H78.6736V15.32H85.1136V16.16H82.3936V18.64ZM84.8336 13.928L84.4256 14.792C83.3376 14.632 82.2656 14.008 81.8976 13.224C81.5136 14.008 80.4576 14.648 79.3776 14.8L78.9616 13.952C80.1776 13.824 81.3456 13.088 81.3456 11.984V11.656H82.4496V11.984C82.4496 13.088 83.6096 13.792 84.8336 13.928ZM91.3795 17.272C91.3795 18.048 90.4275 18.576 88.8195 18.576C87.1955 18.576 86.2515 18.048 86.2515 17.272C86.2515 16.464 87.1955 15.96 88.8035 15.96C90.4275 15.96 91.3795 16.464 91.3795 17.272ZM91.7395 13.76L91.3155 14.584C90.3875 14.536 89.2595 14.04 88.8115 13.296C88.4435 14.056 87.3235 14.536 86.2915 14.584L85.8755 13.776C86.9795 13.728 87.8675 13.24 88.1235 12.648H86.2195V11.816H91.4595V12.648H89.4915C89.8035 13.248 90.8435 13.744 91.7395 13.76ZM92.0355 14.84V15.672H85.5955V14.84H92.0355ZM90.2835 17.288C90.2835 16.992 89.6915 16.776 88.8035 16.776C87.9315 16.776 87.3395 16.992 87.3395 17.288C87.3395 17.552 87.9315 17.776 88.8035 17.776C89.6915 17.776 90.2835 17.552 90.2835 17.288Z" fill="black"/>
<rect x="31" y="23" width="72" height="1" fill="#111111"/>
<path d="M34.9607 34.395H34.3357V32.185H34.0507V34.195H33.4257V30.01H34.0507V31.665H34.3357V29.94H34.9607V34.395ZM33.1507 30.45V33.23H31.3157V30.45H33.1507ZM32.5257 32.73V30.95H31.9257V32.73H32.5257ZM39.0319 33.47C39.0319 34.02 38.4369 34.365 37.4519 34.365C36.4719 34.365 35.8819 34.02 35.8819 33.47C35.8819 32.91 36.4719 32.555 37.4519 32.555C38.4369 32.555 39.0319 32.91 39.0319 33.47ZM35.5669 30.75V30.215H37.9169V30.75H37.0969C37.1669 31.37 37.5869 31.755 38.1069 31.93L37.7519 32.45C37.4119 32.34 36.9369 31.95 36.7719 31.58C36.6569 31.975 36.1369 32.405 35.7069 32.54L35.3719 32.015C35.9969 31.805 36.3719 31.375 36.4169 30.75H35.5669ZM39.6069 31.56H38.9869V32.5H38.3319V29.94H38.9869V31.025H39.6069V31.56ZM37.4519 33.09C36.8869 33.09 36.5519 33.235 36.5519 33.47C36.5519 33.695 36.8869 33.845 37.4519 33.845C38.0369 33.845 38.3569 33.695 38.3569 33.47C38.3569 33.245 38.0369 33.09 37.4519 33.09ZM42.8431 31.115H42.3231V30.605H42.8431V29.94H43.5131V32.54H42.8431V32.01H42.3181V31.5H42.8431V31.115ZM42.0581 32.325H39.9731V30.29H42.0581V32.325ZM41.4081 31.805V30.805H40.6281V31.805H41.4081ZM43.5481 33.48C43.5481 34.03 42.9581 34.375 41.9731 34.375C40.9881 34.375 40.4031 34.03 40.4031 33.48C40.4031 32.92 40.9881 32.57 41.9731 32.57C42.9581 32.57 43.5481 32.92 43.5481 33.48ZM41.9731 33.1C41.4031 33.1 41.0731 33.25 41.0731 33.48C41.0731 33.71 41.4031 33.855 41.9731 33.855C42.5531 33.855 42.8781 33.71 42.8781 33.48C42.8781 33.25 42.5531 33.1 41.9731 33.1Z" fill="#666666"/>
<path d="M89.9077 31.915L89.6327 32.375C89.0227 32.235 88.2627 31.77 88.0077 31.185C87.7777 31.785 86.9977 32.24 86.3877 32.375L86.1227 31.9C86.8477 31.795 87.7077 31.235 87.7077 30.44V30.17H88.3177V30.44C88.3177 31.225 89.2327 31.805 89.9077 31.915ZM90.0227 33.84H85.9977V33.38H87.7027V32.32H88.2927V33.38H90.0227V33.84ZM94.2338 31.915L93.9588 32.375C93.3488 32.235 92.5888 31.77 92.3338 31.185C92.1038 31.785 91.3238 32.24 90.7138 32.375L90.4488 31.9C91.1738 31.795 92.0338 31.235 92.0338 30.44V30.17H92.6438V30.44C92.6438 31.225 93.5588 31.805 94.2338 31.915ZM94.3488 33.84H90.3238V33.38H92.0288V32.32H92.6188V33.38H94.3488V33.84ZM98.335 32.565H97.75V29.945H98.335V32.565ZM95.32 32.78H98.34V34.4H97.75V33.245H95.32V32.78ZM97.37 31.87L97.035 32.32C96.695 32.195 96.23 31.835 96.035 31.425C95.905 31.88 95.42 32.295 95.005 32.44L94.65 31.975C95.3 31.74 95.73 31.215 95.73 30.54V30.155H96.335V30.51C96.335 31.205 96.845 31.7 97.37 31.87ZM99.7012 31.84C100.351 31.84 101.006 31.805 101.461 31.705L101.526 32.155C101.106 32.25 100.376 32.31 99.5562 32.31H99.1212V30.275H101.106V30.74H99.7012V31.84ZM103.086 31.5H102.456V32.545H101.866V29.94H102.456V31.025H103.086V31.5ZM102.511 33.495C102.511 34.035 101.951 34.385 100.981 34.385C100.021 34.385 99.4612 34.035 99.4612 33.495C99.4612 32.94 100.021 32.595 100.981 32.595C101.951 32.595 102.511 32.94 102.511 33.495ZM101.906 33.495C101.906 33.23 101.571 33.065 100.981 33.065C100.401 33.065 100.061 33.23 100.061 33.495C100.061 33.76 100.401 33.92 100.981 33.92C101.571 33.92 101.906 33.76 101.906 33.495Z" fill="#8E8E93"/>
<rect x="0.5" y="39.5" width="134" height="45" fill="white" stroke="#F1729B"/>
<path d="M9.4544 59.316V61.633H10.3224V62.389H9.4544V65.553H8.5444V59.316H9.4544ZM8.3484 63.313L7.8164 64.048C7.2914 63.761 6.5844 63.075 6.3954 62.473C6.2414 63.117 5.5134 63.922 4.9604 64.202L4.3864 63.509C5.4644 62.865 5.9054 61.948 5.9054 60.639V59.827H6.8644V60.604C6.8644 61.906 7.3684 62.767 8.3484 63.313ZM15.812 62.732H14.867V61.444H14.174V60.702H14.867V59.316H15.812V62.732ZM15.805 65.476H11.612V62.977H12.543V63.53H14.874V62.977H15.805V65.476ZM14.874 64.748V64.258H12.543V64.748H14.874ZM10.674 61.122C10.674 60.254 11.381 59.673 12.312 59.673C13.236 59.673 13.957 60.254 13.957 61.122C13.957 61.99 13.236 62.585 12.312 62.585C11.381 62.585 10.674 61.99 10.674 61.122ZM11.563 61.136C11.563 61.556 11.878 61.85 12.312 61.85C12.746 61.85 13.068 61.556 13.068 61.136C13.068 60.723 12.739 60.422 12.312 60.422C11.885 60.422 11.563 60.716 11.563 61.136ZM20.4617 63.404L19.9437 64.146C19.4537 63.852 18.7187 63.117 18.5157 62.508C18.3337 63.18 17.6407 63.992 17.0667 64.3L16.5207 63.593C17.5847 62.963 18.0257 62.046 18.0257 60.688V60.66H16.8287V59.89H20.1817V60.66H18.9777C18.9777 62.011 19.4887 62.879 20.4617 63.404ZM21.5817 59.316V61.668H22.4217V62.424H21.5817V65.553H20.6717V59.316H21.5817ZM26.9733 61.682H26.1963V60.933H26.9733V59.316H27.9183V63.838H26.9733V61.682ZM28.0443 65.399H23.7113V63.411H24.6353V64.678H28.0443V65.399ZM25.8813 62.851H22.9693V59.673H23.9003V60.632H24.9503V59.673H25.8813V62.851ZM24.9503 62.123V61.339H23.9003V62.123H24.9503ZM34.43 64.86H28.795V64.139H31.154V63.6C30.16 63.495 29.537 63.047 29.537 62.431C29.537 61.731 30.363 61.234 31.616 61.234C32.876 61.234 33.681 61.731 33.681 62.431C33.681 63.054 33.065 63.502 32.071 63.607V64.139H34.43V64.86ZM34.122 61.122H29.103V60.401H34.122V61.122ZM32.715 62.431C32.715 62.109 32.239 61.948 31.616 61.948C30.993 61.948 30.51 62.109 30.51 62.431C30.51 62.753 30.993 62.928 31.616 62.928C32.239 62.928 32.715 62.753 32.715 62.431ZM30.51 60.114V59.407H32.701V60.114H30.51Z" fill="#666666"/>
<path d="M87.3725 64.79C86.3645 64.79 85.5735 64.132 85.5735 62.515V62.179C85.5735 60.485 86.4205 59.89 87.3865 59.89C88.3455 59.89 89.1505 60.492 89.1505 62.151V62.508C89.1505 64.153 88.3595 64.79 87.3725 64.79ZM87.3725 64.216C88.0515 64.216 88.4015 63.747 88.4015 62.578V62.144C88.4015 60.989 88.0515 60.464 87.3795 60.464C86.7005 60.464 86.3435 60.968 86.3435 62.102V62.536C86.3435 63.677 86.6935 64.216 87.3725 64.216ZM91.8432 64.79C90.8352 64.79 90.0442 64.132 90.0442 62.515V62.179C90.0442 60.485 90.8912 59.89 91.8572 59.89C92.8162 59.89 93.6212 60.492 93.6212 62.151V62.508C93.6212 64.153 92.8302 64.79 91.8432 64.79ZM91.8432 64.216C92.5222 64.216 92.8722 63.747 92.8722 62.578V62.144C92.8722 60.989 92.5222 60.464 91.8502 60.464C91.1712 60.464 90.8142 60.968 90.8142 62.102V62.536C90.8142 63.677 91.1642 64.216 91.8432 64.216ZM96.3139 64.79C95.3059 64.79 94.5149 64.132 94.5149 62.515V62.179C94.5149 60.485 95.3619 59.89 96.3279 59.89C97.2869 59.89 98.0919 60.492 98.0919 62.151V62.508C98.0919 64.153 97.3009 64.79 96.3139 64.79ZM96.3139 64.216C96.9929 64.216 97.3429 63.747 97.3429 62.578V62.144C97.3429 60.989 96.9929 60.464 96.3209 60.464C95.6419 60.464 95.2849 60.968 95.2849 62.102V62.536C95.2849 63.677 95.6349 64.216 96.3139 64.216ZM98.8456 62.69V62.095H100.932V62.69H98.8456ZM103.492 64.79C102.484 64.79 101.693 64.132 101.693 62.515V62.179C101.693 60.485 102.54 59.89 103.506 59.89C104.465 59.89 105.27 60.492 105.27 62.151V62.508C105.27 64.153 104.479 64.79 103.492 64.79ZM103.492 64.216C104.171 64.216 104.521 63.747 104.521 62.578V62.144C104.521 60.989 104.171 60.464 103.499 60.464C102.82 60.464 102.463 60.968 102.463 62.102V62.536C102.463 63.677 102.813 64.216 103.492 64.216ZM107.962 64.79C106.954 64.79 106.163 64.132 106.163 62.515V62.179C106.163 60.485 107.01 59.89 107.976 59.89C108.935 59.89 109.74 60.492 109.74 62.151V62.508C109.74 64.153 108.949 64.79 107.962 64.79ZM107.962 64.216C108.641 64.216 108.991 63.747 108.991 62.578V62.144C108.991 60.989 108.641 60.464 107.969 60.464C107.29 60.464 106.933 60.968 106.933 62.102V62.536C106.933 63.677 107.283 64.216 107.962 64.216ZM110.494 62.69V62.095H112.58V62.69H110.494ZM112.727 64.706L114.274 62.263L112.818 59.911H113.616L114.764 61.745H114.799L115.856 59.911H116.591L115.184 62.263L116.675 64.706H115.877L114.68 62.774H114.666L113.476 64.706H112.727ZM117.054 64.706L118.601 62.263L117.145 59.911H117.943L119.091 61.745H119.126L120.183 59.911H120.918L119.511 62.263L121.002 64.706H120.204L119.007 62.774H118.993L117.803 64.706H117.054ZM121.381 64.706L122.928 62.263L121.472 59.911H122.27L123.418 61.745H123.453L124.51 59.911H125.245L123.838 62.263L125.329 64.706H124.531L123.334 62.774H123.32L122.13 64.706H121.381ZM125.708 64.706L127.255 62.263L125.799 59.911H126.597L127.745 61.745H127.78L128.837 59.911H129.572L128.165 62.263L129.656 64.706H128.858L127.661 62.774H127.647L126.457 64.706H125.708Z" fill="#8E8E93"/>
<path d="M5.24836 75.326C5.12936 75.081 5.00336 74.857 4.88436 74.612C5.89236 74.521 6.81636 74.038 6.91436 73.296H5.12936V72.568H9.80536V73.296H8.00636C8.11136 74.031 9.06336 74.507 10.0644 74.598C9.94536 74.843 9.81936 75.081 9.70036 75.319C8.86736 75.228 7.83136 74.815 7.46036 74.143C7.09636 74.808 6.06736 75.242 5.24836 75.326ZM7.90836 78.56H6.99136V76.46H4.65336V75.718H10.2884V76.46H7.90836V78.56ZM16.198 75.025L15.785 75.802C15.015 75.655 13.867 75.046 13.517 74.136C13.188 75.046 12.061 75.648 11.263 75.802L10.85 75.032C11.872 74.913 13.027 74.136 13.027 72.995V72.666H14.021V72.995C14.021 74.143 15.162 74.906 16.198 75.025ZM16.345 77.783H10.71V77.055H13.048V75.641H13.965V77.055H16.345V77.783Z" fill="#666666"/>
<path d="M66.3158 75.956H65.4968V74.262H64.4328V73.611H65.4968V72.316H66.3158V75.956ZM64.8878 75.081L64.4188 75.718C63.9498 75.529 63.3058 75.032 63.0328 74.451C62.8438 75.088 62.1648 75.676 61.5838 75.872L61.0938 75.221C61.9968 74.892 62.5988 74.164 62.5988 73.219V72.603H63.4458V73.177C63.4458 74.143 64.1598 74.843 64.8878 75.081ZM66.3578 77.293C66.3578 78.049 65.5738 78.546 64.2088 78.546C62.8648 78.546 62.0878 78.049 62.0878 77.293C62.0878 76.516 62.8648 76.026 64.2088 76.026C65.5738 76.026 66.3578 76.516 66.3578 77.293ZM64.2088 76.684C63.4038 76.684 62.9278 76.915 62.9278 77.293C62.9278 77.664 63.4038 77.888 64.2088 77.888C65.0488 77.888 65.5108 77.664 65.5108 77.293C65.5108 76.915 65.0488 76.684 64.2088 76.684ZM72.9744 74.318H72.0854V75.76H71.2594V72.316H72.0854V73.646H72.9744V74.318ZM72.0854 78.476H68.0464V76.096H72.0854V78.476ZM71.2594 77.832V76.726H68.8654V77.832H71.2594ZM70.7904 75.193C69.9924 75.389 68.8304 75.459 68.0674 75.459H67.4444V72.638H68.2634V74.766C69.1244 74.766 69.9084 74.703 70.6714 74.535C70.7064 74.752 70.7554 74.969 70.7904 75.193ZM78.4291 78.553H77.6101V72.316H78.4291V78.553ZM77.1411 76.523L76.6651 77.139C76.1541 76.824 75.5031 76.068 75.2931 75.417C75.0901 76.131 74.4461 76.922 73.8021 77.272L73.3051 76.67C74.3131 76.019 74.8521 75.032 74.8521 73.793V72.841H75.6991V73.751C75.6991 74.983 76.1961 75.914 77.1411 76.523ZM86.0796 75.046H81.8866V72.568H82.7056V73.212H85.2676V72.561H86.0796V75.046ZM84.4486 77.188H83.6296V76.166H81.1656V75.522H86.8006V76.166H84.4486V77.188ZM86.1426 78.385H81.8866V76.635H82.7056V77.741H86.1426V78.385ZM85.2676 74.395V73.849H82.7056V74.395H85.2676ZM88.2372 74.976C89.1472 74.976 90.0642 74.927 90.7012 74.787L90.7922 75.417C90.2042 75.55 89.1822 75.634 88.0342 75.634H87.4252V72.785H90.2042V73.436H88.2372V74.976ZM92.9762 74.5H92.0942V75.963H91.2682V72.316H92.0942V73.835H92.9762V74.5ZM92.1712 77.293C92.1712 78.049 91.3872 78.539 90.0292 78.539C88.6852 78.539 87.9012 78.049 87.9012 77.293C87.9012 76.516 88.6852 76.033 90.0292 76.033C91.3872 76.033 92.1712 76.516 92.1712 77.293ZM91.3242 77.293C91.3242 76.922 90.8552 76.691 90.0292 76.691C89.2172 76.691 88.7412 76.922 88.7412 77.293C88.7412 77.664 89.2172 77.888 90.0292 77.888C90.8552 77.888 91.3242 77.664 91.3242 77.293ZM98.1928 72.652C98.1928 73.66 98.1298 74.598 97.9898 75.312H98.9138V75.963H96.4918V78.553H95.6728V75.963H93.2788V75.312H97.2128C97.3248 74.773 97.3808 74.073 97.3808 73.31H93.9718V72.652H98.1928ZM106.235 78.525H101.874V76.929H105.255V76.607H101.853V75.963H103.568V75.543H101.174V74.92H106.809V75.543H104.387V75.963H106.067V77.503H102.686V77.853H106.235V78.525ZM106.088 74.528H101.895V72.414H102.714V72.876H105.276V72.407H106.088V74.528ZM105.276 73.898V73.499H102.714V73.898H105.276ZM112.432 77.307C112.432 78.063 111.627 78.539 110.248 78.539C108.869 78.539 108.064 78.063 108.064 77.307C108.064 76.53 108.869 76.054 110.248 76.054C111.627 76.054 112.432 76.53 112.432 77.307ZM107.448 73.429V72.757H110.731V73.429H109.548C109.611 74.297 110.241 74.878 110.92 75.102C110.78 75.319 110.626 75.529 110.479 75.746C110.003 75.564 109.394 75.095 109.128 74.528C108.939 75.13 108.281 75.718 107.679 75.928C107.511 75.711 107.357 75.501 107.189 75.291C108.064 74.976 108.638 74.318 108.687 73.429H107.448ZM110.633 74.465V73.807H111.571V72.316H112.39V76.026H111.571V74.465H110.633ZM110.248 76.712C109.401 76.712 108.904 76.929 108.904 77.307C108.904 77.671 109.401 77.888 110.248 77.888C111.109 77.888 111.599 77.671 111.599 77.307C111.599 76.929 111.109 76.712 110.248 76.712ZM118.391 76.152H116.501V77.125H118.923V77.776H113.288V77.125H115.682V76.152H114.009V74.087H117.397V73.366H113.974V72.715H118.209V74.738H114.821V75.494H118.391V76.152ZM123.073 77.797C121.911 77.797 121.309 76.985 121.309 75.669V75.326C121.309 73.534 122.226 72.869 123.367 72.869C123.85 72.869 124.284 73.016 124.487 73.135L124.319 73.765C124.137 73.667 123.731 73.555 123.416 73.555C122.702 73.555 122.233 73.905 122.163 75.137C122.408 74.927 122.786 74.717 123.283 74.717C124.109 74.717 124.711 75.235 124.711 76.152C124.711 77.069 124.137 77.797 123.073 77.797ZM123.052 77.16C123.563 77.16 123.878 76.817 123.878 76.215C123.878 75.571 123.521 75.333 123.031 75.333C122.681 75.333 122.338 75.578 122.17 75.802V75.844C122.17 76.656 122.422 77.16 123.052 77.16ZM127.113 77.797C125.951 77.797 125.349 76.985 125.349 75.669V75.326C125.349 73.534 126.266 72.869 127.407 72.869C127.89 72.869 128.324 73.016 128.527 73.135L128.359 73.765C128.177 73.667 127.771 73.555 127.456 73.555C126.742 73.555 126.273 73.905 126.203 75.137C126.448 74.927 126.826 74.717 127.323 74.717C128.149 74.717 128.751 75.235 128.751 76.152C128.751 77.069 128.177 77.797 127.113 77.797ZM127.092 77.16C127.603 77.16 127.918 76.817 127.918 76.215C127.918 75.571 127.561 75.333 127.071 75.333C126.721 75.333 126.378 75.578 126.21 75.802V75.844C126.21 76.656 126.462 77.16 127.092 77.16Z" fill="#8E8E93"/>
<path d="M4.84172 47.52V46.771H8.13172V47.52H6.96972C6.98372 48.5 7.60672 49.081 8.37672 49.347L7.87972 50.068C7.40372 49.907 6.73872 49.382 6.50772 48.864C6.34672 49.41 5.61872 50.005 5.00972 50.187L4.54772 49.466C5.47872 49.144 6.00372 48.493 6.00372 47.534V47.52H4.84172ZM9.78372 50.838H8.83872V48.703H7.95672V47.975H8.83872V46.316H9.78372V50.838ZM9.88172 52.399H5.51372V50.418H6.44472V51.678H9.88172V52.399ZM14.1254 49.487C14.1254 49.991 13.6984 50.404 13.0334 50.537V50.845C13.5654 50.824 14.0484 50.782 14.4194 50.733L14.4684 51.447C13.0754 51.622 11.7944 51.685 10.7024 51.685C10.6604 51.433 10.6184 51.153 10.5834 50.894C11.0454 50.901 11.5844 50.901 12.1164 50.88V50.537C11.4514 50.404 11.0314 49.991 11.0314 49.487C11.0314 48.871 11.6474 48.395 12.5784 48.395C13.4954 48.395 14.1254 48.871 14.1254 49.487ZM15.6444 46.316V48.808H16.3934V49.564H15.6444V52.553H14.7274V46.316H15.6444ZM14.3774 48.255H10.7794V47.562H14.3774V48.255ZM11.7174 47.324V46.631H13.4954V47.324H11.7174ZM13.1804 49.487C13.1804 49.249 12.9214 49.053 12.5784 49.053C12.2284 49.053 11.9764 49.249 11.9764 49.487C11.9764 49.725 12.2284 49.9 12.5784 49.9C12.9214 49.9 13.1804 49.725 13.1804 49.487ZM20.945 48.682H20.168V47.933H20.945V46.316H21.89V50.838H20.945V48.682ZM22.016 52.399H17.683V50.411H18.607V51.678H22.016V52.399ZM19.853 49.851H16.941V46.673H17.872V47.632H18.922V46.673H19.853V49.851ZM18.922 49.123V48.339H17.872V49.123H18.922ZM28.4016 51.86H22.7666V51.139H25.1256V50.6C24.1316 50.495 23.5086 50.047 23.5086 49.431C23.5086 48.731 24.3346 48.234 25.5876 48.234C26.8476 48.234 27.6526 48.731 27.6526 49.431C27.6526 50.054 27.0366 50.502 26.0426 50.607V51.139H28.4016V51.86ZM28.0936 48.122H23.0746V47.401H28.0936V48.122ZM26.6866 49.431C26.6866 49.109 26.2106 48.948 25.5876 48.948C24.9646 48.948 24.4816 49.109 24.4816 49.431C24.4816 49.753 24.9646 49.928 25.5876 49.928C26.2106 49.928 26.6866 49.753 26.6866 49.431ZM24.4816 47.114V46.407H26.6726V47.114H24.4816Z" fill="#666666"/>
<path d="M84.0193 51.797C82.9693 51.797 82.1573 51.125 82.1573 49.494V49.193C82.1573 47.478 83.0393 46.862 84.0263 46.862C85.0203 46.862 85.8743 47.485 85.8743 49.172V49.473C85.8743 51.16 85.0203 51.797 84.0193 51.797ZM84.0193 51.139C84.6633 51.139 84.9853 50.677 84.9853 49.529V49.172C84.9853 48.031 84.6563 47.527 84.0263 47.527C83.3753 47.527 83.0533 48.003 83.0533 49.123V49.494C83.0533 50.607 83.3683 51.139 84.0193 51.139ZM87.3073 51.741V47.793L86.5023 47.954V47.45L87.7203 46.904H88.1753V51.741H87.3073ZM91.1013 51.797C90.0513 51.797 89.2393 51.125 89.2393 49.494V49.193C89.2393 47.478 90.1213 46.862 91.1083 46.862C92.1023 46.862 92.9563 47.485 92.9563 49.172V49.473C92.9563 51.16 92.1023 51.797 91.1013 51.797ZM91.1013 51.139C91.7453 51.139 92.0673 50.677 92.0673 49.529V49.172C92.0673 48.031 91.7383 47.527 91.1083 47.527C90.4573 47.527 90.1353 48.003 90.1353 49.123V49.494C90.1353 50.607 90.4503 51.139 91.1013 51.139ZM93.7717 50.11V49.438H95.6967V50.11H93.7717ZM95.8524 51.713L97.3714 49.256L95.9504 46.911H96.9094L97.9804 48.675H98.0084L98.9954 46.911H99.8704L98.4774 49.249L99.9614 51.713H99.0024L97.8754 49.844H97.8544L96.7204 51.713H95.8524ZM100.378 51.713L101.897 49.256L100.476 46.911H101.435L102.506 48.675H102.534L103.521 46.911H104.396L103.003 49.249L104.487 51.713H103.528L102.401 49.844H102.38L101.246 51.713H100.378ZM104.903 51.713L106.422 49.256L105.001 46.911H105.96L107.031 48.675H107.059L108.046 46.911H108.921L107.528 49.249L109.012 51.713H108.053L106.926 49.844H106.905L105.771 51.713H104.903ZM109.241 50.11V49.438H111.166V50.11H109.241ZM111.322 51.713L112.841 49.256L111.42 46.911H112.379L113.45 48.675H113.478L114.465 46.911H115.34L113.947 49.249L115.431 51.713H114.472L113.345 49.844H113.324L112.19 51.713H111.322ZM115.848 51.713L117.367 49.256L115.946 46.911H116.905L117.976 48.675H118.004L118.991 46.911H119.866L118.473 49.249L119.957 51.713H118.998L117.871 49.844H117.85L116.716 51.713H115.848ZM120.373 51.713L121.892 49.256L120.471 46.911H121.43L122.501 48.675H122.529L123.516 46.911H124.391L122.998 49.249L124.482 51.713H123.523L122.396 49.844H122.375L121.241 51.713H120.373ZM124.898 51.713L126.417 49.256L124.996 46.911H125.955L127.026 48.675H127.054L128.041 46.911H128.916L127.523 49.249L129.007 51.713H128.048L126.921 49.844H126.9L125.766 51.713H124.898Z" fill="#8E8E93"/>
<defs>
<filter id="filter0_d_278_1138" x="12" y="0" width="110" height="164" filterUnits="userSpaceOnUse" color-interpolation-filters="sRGB">
<feFlood flood-opacity="0" result="BackgroundImageFix"/>
<feColorMatrix in="SourceAlpha" type="matrix" values="0 0 0 0 0 0 0 0 0 0 0 0 0 0 0 0 0 0 127 0" result="hardAlpha"/>
<feOffset dy="4"/>
<feGaussianBlur stdDeviation="2"/>
<feComposite in2="hardAlpha" operator="out"/>
<feColorMatrix type="matrix" values="0 0 0 0 0 0 0 0 0 0 0 0 0 0 0 0 0 0 0.25 0"/>
<feBlend mode="normal" in2="BackgroundImageFix" result="effect1_dropShadow_278_1138"/>
<feBlend mode="normal" in="SourceGraphic" in2="effect1_dropShadow_278_1138" result="shape"/>
</filter>
</defs>
</svg>
