<svg width="40" height="40" viewBox="0 0 40 40" fill="none" xmlns="http://www.w3.org/2000/svg">
<path d="M21.6666 23.3333H15C14.5579 23.3333 14.134 23.5088 13.8214 23.8214C13.5089 24.134 13.3333 24.5579 13.3333 24.9999C13.3333 25.4419 13.5089 25.8659 13.8214 26.1784C14.134 26.491 14.5579 26.6666 15 26.6666H21.6666C22.1087 26.6666 22.5326 26.491 22.8451 26.1784C23.1577 25.8659 23.3333 25.4419 23.3333 24.9999C23.3333 24.5579 23.1577 24.134 22.8451 23.8214C22.5326 23.5088 22.1087 23.3333 21.6666 23.3333ZM28.3333 6.66659H26.3666C26.0228 5.694 25.3865 4.85158 24.5451 4.25482C23.7036 3.65805 22.6982 3.33615 21.6666 3.33325H18.3333C17.3017 3.33615 16.2963 3.65805 15.4549 4.25482C14.6134 4.85158 13.9771 5.694 13.6333 6.66659H11.6666C10.3405 6.66659 9.06877 7.19337 8.13109 8.13105C7.19341 9.06873 6.66663 10.3405 6.66663 11.6666V31.6666C6.66663 32.9927 7.19341 34.2644 8.13109 35.2021C9.06877 36.1398 10.3405 36.6666 11.6666 36.6666H28.3333C29.6594 36.6666 30.9311 36.1398 31.8688 35.2021C32.8065 34.2644 33.3333 32.9927 33.3333 31.6666V11.6666C33.3333 10.3405 32.8065 9.06873 31.8688 8.13105C30.9311 7.19337 29.6594 6.66659 28.3333 6.66659ZM16.6666 8.33325C16.6666 7.89122 16.8422 7.4673 17.1548 7.15474C17.4673 6.84218 17.8913 6.66659 18.3333 6.66659H21.6666C22.1087 6.66659 22.5326 6.84218 22.8451 7.15474C23.1577 7.4673 23.3333 7.89122 23.3333 8.33325V9.99992H16.6666V8.33325ZM30 31.6666C30 32.1086 29.8244 32.5325 29.5118 32.8451C29.1992 33.1577 28.7753 33.3333 28.3333 33.3333H11.6666C11.2246 33.3333 10.8007 33.1577 10.4881 32.8451C10.1756 32.5325 9.99996 32.1086 9.99996 31.6666V11.6666C9.99996 11.2246 10.1756 10.8006 10.4881 10.4881C10.8007 10.1755 11.2246 9.99992 11.6666 9.99992H13.3333V11.6666C13.3333 12.1086 13.5089 12.5325 13.8214 12.8451C14.134 13.1577 14.5579 13.3333 15 13.3333H25C25.442 13.3333 25.8659 13.1577 26.1785 12.8451C26.491 12.5325 26.6666 12.1086 26.6666 11.6666V9.99992H28.3333C28.7753 9.99992 29.1992 10.1755 29.5118 10.4881C29.8244 10.8006 30 11.2246 30 11.6666V31.6666ZM25 16.6666H15C14.5579 16.6666 14.134 16.8422 13.8214 17.1547C13.5089 17.4673 13.3333 17.8912 13.3333 18.3333C13.3333 18.7753 13.5089 19.1992 13.8214 19.5118C14.134 19.8243 14.5579 19.9999 15 19.9999H25C25.442 19.9999 25.8659 19.8243 26.1785 19.5118C26.491 19.1992 26.6666 18.7753 26.6666 18.3333C26.6666 17.8912 26.491 17.4673 26.1785 17.1547C25.8659 16.8422 25.442 16.6666 25 16.6666Z" fill="black"/>
</svg>
