<svg width="40" height="39" viewBox="0 0 40 39" fill="none" xmlns="http://www.w3.org/2000/svg">
<path d="M20 39C31.0457 39 40 30.2696 40 19.5C40 8.73045 31.0457 0 20 0C8.9543 0 0 8.73045 0 19.5C0 30.2696 8.9543 39 20 39Z" fill="#F1729B"/>
<path d="M19.9997 37.2275C30.0412 37.2275 38.1815 29.2907 38.1815 19.5002C38.1815 9.70972 30.0412 1.77295 19.9997 1.77295C9.95815 1.77295 1.81787 9.70972 1.81787 19.5002C1.81787 29.2907 9.95815 37.2275 19.9997 37.2275Z" stroke="#F1729B" stroke-width="2" stroke-miterlimit="10"/>
<path d="M10.9092 19.688L16.5728 25.8925L28.0692 14.1819" stroke="white" stroke-width="6" stroke-miterlimit="10" stroke-linecap="round" stroke-linejoin="round"/>
</svg>
