<svg width="40" height="39" viewBox="0 0 40 39" fill="none" xmlns="http://www.w3.org/2000/svg">
<path d="M20 39C31.0457 39 40 30.2696 40 19.5C40 8.73045 31.0457 0 20 0C8.9543 0 0 8.73045 0 19.5C0 30.2696 8.9543 39 20 39Z" fill="#F1729B"/>
<path d="M19.9997 37.2275C30.0412 37.2275 38.1815 29.2907 38.1815 19.5002C38.1815 9.70972 30.0412 1.77295 19.9997 1.77295C9.95815 1.77295 1.81787 9.70972 1.81787 19.5002C1.81787 29.2907 9.95815 37.2275 19.9997 37.2275Z" stroke="#F1729B" stroke-width="2" stroke-miterlimit="10"/>
<path d="M27.3282 29.582L27.3285 29.5823L29.2177 27.6934L29.5716 27.3402L29.5714 27.34C29.5714 27.34 29.5713 27.3399 29.5713 27.3399L12.7038 10.4472C12.5597 10.2946 12.3867 10.1721 12.1948 10.0868C12.0002 10.0003 11.7901 9.95384 11.5771 9.95024C11.3641 9.94665 11.1526 9.98597 10.9551 10.0659C10.7576 10.1458 10.5783 10.2646 10.4277 10.4153C10.2772 10.566 10.1585 10.7455 10.0789 10.943C9.9992 11.1405 9.96013 11.3521 9.96399 11.565C9.96784 11.778 10.0146 11.988 10.1013 12.1825C10.1868 12.374 10.3093 12.5466 10.4618 12.6904L27.3282 29.582Z" fill="white" stroke="white"/>
<path d="M29.563 12.6851L29.5631 12.685C29.8601 12.3871 30.0269 11.9834 30.0266 11.5625C30.0263 11.1417 29.8591 10.7382 29.5617 10.4407C29.4146 10.2935 29.2399 10.1767 29.0476 10.0971C28.8554 10.0175 28.6493 9.97663 28.4412 9.97675C28.2332 9.97688 28.0272 10.018 27.835 10.0979C27.6429 10.1777 27.4684 10.2946 27.3215 10.4419C27.3214 10.442 27.3214 10.442 27.3213 10.4421L10.4566 27.3427L10.4565 27.3428C10.1597 27.6405 9.993 28.0438 9.993 28.4643C9.993 28.8848 10.1597 29.2881 10.4565 29.5858C10.6036 29.7332 10.7783 29.8503 10.9706 29.9301C11.163 30.01 11.3692 30.0511 11.5774 30.0511C11.7856 30.0511 11.9918 30.01 12.1842 29.9301C12.3764 29.8503 12.5511 29.7333 12.6981 29.5859C12.6982 29.5858 12.6982 29.5858 12.6983 29.5858L29.563 12.6851Z" fill="white" stroke="white"/>
</svg>
