<svg width="40" height="39" viewBox="0 0 40 39" fill="none" xmlns="http://www.w3.org/2000/svg">
<path d="M35.0002 19.4999C34.5581 19.4999 34.1342 19.6711 33.8217 19.9759C33.5091 20.2806 33.3335 20.6939 33.3335 21.1249V30.8749C33.3335 31.3059 33.1579 31.7192 32.8453 32.024C32.5328 32.3287 32.1089 32.4999 31.6668 32.4999H8.3335C7.89147 32.4999 7.46755 32.3287 7.15499 32.024C6.84242 31.7192 6.66683 31.3059 6.66683 30.8749V8.1249C6.66683 7.69392 6.84242 7.2806 7.15499 6.97585C7.46755 6.67111 7.89147 6.4999 8.3335 6.4999H18.3335C18.7755 6.4999 19.1994 6.3287 19.512 6.02395C19.8246 5.7192 20.0002 5.30588 20.0002 4.8749C20.0002 4.44392 19.8246 4.0306 19.512 3.72585C19.1994 3.42111 18.7755 3.2499 18.3335 3.2499H8.3335C7.00741 3.2499 5.73564 3.76352 4.79796 4.67776C3.86028 5.592 3.3335 6.83197 3.3335 8.1249V30.8749C3.3335 32.1678 3.86028 33.4078 4.79796 34.322C5.73564 35.2363 7.00741 35.7499 8.3335 35.7499H31.6668C32.9929 35.7499 34.2647 35.2363 35.2024 34.322C36.14 33.4078 36.6668 32.1678 36.6668 30.8749V21.1249C36.6668 20.6939 36.4912 20.2806 36.1787 19.9759C35.8661 19.6711 35.4422 19.4999 35.0002 19.4999ZM10.0002 20.7349V27.6249C10.0002 28.0559 10.1758 28.4692 10.4883 28.774C10.8009 29.0787 11.2248 29.2499 11.6668 29.2499H18.7335C18.9528 29.2511 19.1703 29.2101 19.3733 29.1293C19.5764 29.0484 19.7611 28.9293 19.9168 28.7786L31.4502 17.5174L36.1835 12.9999C36.3397 12.8488 36.4637 12.6691 36.5483 12.4711C36.6329 12.2731 36.6765 12.0607 36.6765 11.8462C36.6765 11.6316 36.6329 11.4192 36.5483 11.2212C36.4637 11.0232 36.3397 10.8435 36.1835 10.6924L29.1168 3.72115C28.9619 3.56884 28.7776 3.44795 28.5745 3.36545C28.3714 3.28295 28.1535 3.24048 27.9335 3.24048C27.7135 3.24048 27.4956 3.28295 27.2925 3.36545C27.0894 3.44795 26.9051 3.56884 26.7502 3.72115L22.0502 8.3199L10.4835 19.5812C10.329 19.733 10.2068 19.9131 10.1239 20.1111C10.0409 20.309 9.99889 20.521 10.0002 20.7349ZM27.9335 7.16615L32.6502 11.7649L30.2835 14.0724L25.5668 9.47365L27.9335 7.16615ZM13.3335 21.4012L23.2168 11.7649L27.9335 16.3637L18.0502 25.9999H13.3335V21.4012Z" fill="#F1729B"/>
</svg>
