<svg width="58" height="58" viewBox="0 0 58 58" fill="none" xmlns="http://www.w3.org/2000/svg">
<g filter="url(#filter0_d_481_4910)">
<circle cx="29" cy="27" r="25" fill="white"/>
</g>
<path fill-rule="evenodd" clip-rule="evenodd" d="M31.5791 29.5854L29.8559 31.5408C34.3102 31.8025 37.096 33.4865 37.096 34.6705C37.096 35.546 35.5666 36.7801 32.6553 37.413C32.5175 37.4394 32.3864 37.493 32.2695 37.5707C32.1527 37.6484 32.0526 37.7486 31.975 37.8655C31.8974 37.9824 31.8439 38.1136 31.8176 38.2514C31.7914 38.3893 31.7928 38.5309 31.822 38.6682C31.8508 38.8041 31.9062 38.9329 31.9849 39.0474C32.0637 39.1618 32.1642 39.2596 32.2809 39.3351C32.3975 39.4105 32.5279 39.4622 32.6646 39.4871C32.8012 39.5121 32.9415 39.5098 33.0772 39.4804C36.9272 38.6365 39.2056 36.8434 39.2056 34.6705C39.2056 32.175 36.0802 30.1884 31.5791 29.5854ZM27.4593 31.5408L25.7361 29.5854C21.235 30.1884 18.1096 32.175 18.1096 34.6705C18.1096 37.2547 21.4744 39.2905 26.2421 39.8179L25.7991 40.2504C25.7002 40.3484 25.6218 40.4651 25.5682 40.5936C25.5147 40.7222 25.4871 40.86 25.4871 40.9993C25.4871 41.1385 25.5147 41.2764 25.5682 41.4049C25.6218 41.5335 25.7002 41.6501 25.7991 41.7482C25.8972 41.847 26.0138 41.9255 26.1424 41.9791C26.2709 42.0326 26.4088 42.0602 26.548 42.0602C26.6873 42.0602 26.8251 42.0326 26.9537 41.9791C27.0822 41.9255 27.1989 41.847 27.2969 41.7482L29.4065 39.6386C29.5026 39.5383 29.5778 39.42 29.628 39.2905C29.7335 39.0337 29.7335 38.7457 29.628 38.4889C29.5778 38.3594 29.5026 38.2411 29.4065 38.1408L27.2969 36.0312C27.0983 35.8326 26.8289 35.721 26.548 35.721C26.2671 35.721 25.9977 35.8326 25.7991 36.0312C25.6005 36.2298 25.4889 36.4992 25.4889 36.7801C25.4889 37.061 25.6005 37.3304 25.7991 37.529L25.9257 37.645C22.3288 37.1387 20.2192 35.7253 20.2192 34.6705C20.2192 33.4865 23.005 31.8025 27.4593 31.5408Z" fill="black"/>
<path d="M28.6576 14.1094C26.4196 14.1094 24.2733 14.9984 22.6908 16.5809C21.1083 18.1634 20.2192 20.3098 20.2192 22.5478C20.2192 28.2437 27.6556 34.678 27.972 34.9522C28.1631 35.1156 28.4062 35.2054 28.6576 35.2054C28.909 35.2054 29.1522 35.1156 29.3433 34.9522C29.7124 34.678 37.096 28.2437 37.096 22.5478C37.096 20.3098 36.207 18.1634 34.6245 16.5809C33.042 14.9984 30.8956 14.1094 28.6576 14.1094V14.1094ZM28.6576 32.7266C26.4109 30.617 22.3288 26.0708 22.3288 22.5478C22.3288 20.8693 22.9956 19.2595 24.1825 18.0726C25.3694 16.8858 26.9791 16.219 28.6576 16.219C30.3361 16.219 31.9459 16.8858 33.1328 18.0726C34.3197 19.2595 34.9864 20.8693 34.9864 22.5478C34.9864 26.0708 30.9044 30.6275 28.6576 32.7266ZM28.6576 18.3286C27.8232 18.3286 27.0074 18.576 26.3136 19.0396C25.6197 19.5032 25.0789 20.1622 24.7596 20.9332C24.4403 21.7041 24.3567 22.5525 24.5195 23.3709C24.6823 24.1893 25.0841 24.9411 25.6742 25.5312C26.2643 26.1213 27.0161 26.5231 27.8345 26.6859C28.653 26.8487 29.5013 26.7651 30.2723 26.4458C31.0432 26.1265 31.7022 25.5857 32.1658 24.8918C32.6294 24.198 32.8768 23.3822 32.8768 22.5478C32.8768 21.4288 32.4323 20.3556 31.6411 19.5643C30.8498 18.7731 29.7766 18.3286 28.6576 18.3286ZM28.6576 24.6574C28.2404 24.6574 27.8325 24.5336 27.4856 24.3018C27.1387 24.07 26.8683 23.7406 26.7086 23.3551C26.5489 22.9696 26.5072 22.5454 26.5886 22.1362C26.67 21.727 26.8709 21.3511 27.1659 21.0561C27.461 20.761 27.8369 20.5601 28.2461 20.4787C28.6553 20.3973 29.0795 20.4391 29.4649 20.5988C29.8504 20.7584 30.1799 21.0288 30.4117 21.3757C30.6435 21.7227 30.7672 22.1305 30.7672 22.5478C30.7672 23.1073 30.545 23.6439 30.1493 24.0395C29.7537 24.4351 29.2171 24.6574 28.6576 24.6574Z" fill="black"/>
<defs>
<filter id="filter0_d_481_4910" x="0" y="0" width="58" height="58" filterUnits="userSpaceOnUse" color-interpolation-filters="sRGB">
<feFlood flood-opacity="0" result="BackgroundImageFix"/>
<feColorMatrix in="SourceAlpha" type="matrix" values="0 0 0 0 0 0 0 0 0 0 0 0 0 0 0 0 0 0 127 0" result="hardAlpha"/>
<feOffset dy="2"/>
<feGaussianBlur stdDeviation="2"/>
<feComposite in2="hardAlpha" operator="out"/>
<feColorMatrix type="matrix" values="0 0 0 0 0 0 0 0 0 0 0 0 0 0 0 0 0 0 0.2 0"/>
<feBlend mode="normal" in2="BackgroundImageFix" result="effect1_dropShadow_481_4910"/>
<feBlend mode="normal" in="SourceGraphic" in2="effect1_dropShadow_481_4910" result="shape"/>
</filter>
</defs>
</svg>
