<svg width="12" height="12" viewBox="0 0 12 12" fill="none" xmlns="http://www.w3.org/2000/svg">
<path d="M4.75 1C4.55109 1 4.36032 1.07902 4.21967 1.21967C4.07902 1.36032 4 1.55109 4 1.75V2.25C4 2.44891 4.07902 2.63968 4.21967 2.78033C4.36032 2.92098 4.55109 3 4.75 3H7.25C7.44891 3 7.63968 2.92098 7.78033 2.78033C7.92098 2.63968 8 2.44891 8 2.25V1.75C8 1.55109 7.92098 1.36032 7.78033 1.21967C7.63968 1.07902 7.44891 1 7.25 1H4.75Z" fill="#F1729B"/>
<path fill-rule="evenodd" clip-rule="evenodd" d="M3.25 2.01855C2.621 2.05355 2.224 2.15355 1.9395 2.43855C1.5 2.87805 1.5 3.58505 1.5 4.99905V7.99905C1.5 9.41355 1.5 10.1206 1.9395 10.5601C2.3785 10.9991 3.086 10.9991 4.5 10.9991H7.5C8.914 10.9991 9.6215 10.9991 10.0605 10.5601C10.5 10.1201 10.5 9.41355 10.5 7.99905V4.99905C10.5 3.58505 10.5 2.87805 10.0605 2.43855C9.776 2.15355 9.379 2.05355 8.75 2.01855V2.25005C8.75 2.64788 8.59196 3.02941 8.31066 3.31071C8.02936 3.59202 7.64782 3.75005 7.25 3.75005H4.75C4.35218 3.75005 3.97064 3.59202 3.68934 3.31071C3.40804 3.02941 3.25 2.64788 3.25 2.25005V2.01855ZM5.5215 7.68305C5.0825 7.36005 4.5 6.84005 4.5 6.34805C4.5 5.51205 5.325 5.19955 6 5.84555C6.675 5.19955 7.5 5.51155 7.5 6.34855C7.5 6.84055 6.9175 7.36055 6.4785 7.68305C6.2685 7.83705 6.1635 7.91405 6 7.91405C5.836 7.91405 5.7315 7.83705 5.5215 7.68305Z" fill="#F1729B"/>
</svg>
