<svg width="40" height="40" viewBox="0 0 40 40" fill="none" xmlns="http://www.w3.org/2000/svg">
<path d="M20 40C31.0457 40 40 31.0457 40 20C40 8.9543 31.0457 0 20 0C8.9543 0 0 8.9543 0 20C0 31.0457 8.9543 40 20 40Z" fill="white"/>
<path d="M20 35C28.2843 35 35 28.2843 35 20C35 11.7157 28.2843 5 20 5C11.7157 5 5 11.7157 5 20C5 28.2843 11.7157 35 20 35Z" fill="#F1729B"/>
<path d="M22.5824 17.0697L18.8 20M18.8 20L14 23.6M18.8 20L22.6599 22.8638M18.8 20L14 16.4M26 15.8C26 16.7941 25.1045 17.6 24 17.6C22.8955 17.6 22 16.7941 22 15.8C22 14.8059 22.8955 14 24 14C25.1045 14 26 14.8059 26 15.8ZM26 24.2C26 25.1941 25.1045 26 24 26C22.8955 26 22 25.1941 22 24.2C22 23.2059 22.8955 22.4 24 22.4C25.1045 22.4 26 23.2059 26 24.2Z" stroke="white" stroke-width="2" stroke-linecap="round" stroke-linejoin="round"/>
</svg>
