<svg width="45" height="45" viewBox="0 0 45 45" fill="none" xmlns="http://www.w3.org/2000/svg">
<path d="M42.3601 10.4552C39.815 9.94468 37.3071 9.18867 34.8554 8.18966C33.6258 -1.14464 26.4667 -0.374255 18.9015 0.474544C10.2631 1.43716 0.590349 22.6093 0.180136 23.5116C0.00838127 23.8519 -0.0423633 24.2651 0.0357071 24.6541C0.115731 25.043 0.320663 25.3735 0.601711 25.5705C0.882764 25.7674 1.21653 25.8111 1.52491 25.6945C1.83329 25.5778 2.08897 25.308 2.23342 24.9482C4.3374 20.3054 10.023 9.60263 15.3592 5.25845C13.7724 9.41271 13.792 14.243 15.4139 18.3775C16.7372 21.5643 18.9114 23.5746 21.0504 23.5746H21.2807C26.2167 23.2318 27.4464 9.5806 27.6413 6.84814V6.84571C27.6979 6.03867 27.2217 5.32889 26.5737 5.25596C25.9257 5.18303 25.3558 5.77858 25.2972 6.5856C24.8835 12.3855 23.2088 20.4993 21.1497 20.6431C19.8948 20.7233 18.4368 19.2794 17.5019 17.0333C16.848 15.4532 15.068 9.88446 18.9501 3.43073L19.1101 3.39913C28.2637 2.37335 32.0466 2.64068 32.6007 9.47856H32.6026C32.6475 10.0522 32.9578 10.5384 33.397 10.7231C33.6078 10.8106 38.5479 12.8525 42.0609 13.38C42.2658 13.38 42.7362 14.3328 42.6054 16.2167C42.3361 20.1182 39.2035 27.3258 29.1498 26.6643V26.6667C28.6931 26.6254 28.2618 26.9268 28.0491 27.4325C27.8988 27.7752 24.4169 35.87 23.1482 43.2522V43.2498C23.0135 44.0422 23.4175 44.8225 24.0519 44.9927C24.1338 45.0024 24.2158 45.0024 24.2978 44.9927C24.8521 44.9903 25.3322 44.509 25.4513 43.8356C26.4506 38.1597 28.8883 31.8081 29.7881 29.6033C41.0007 29.9704 44.6332 21.2584 44.969 16.46C45.1973 13.1687 44.1492 10.7282 42.3594 10.4559L42.3601 10.4552Z" fill="#111111"/>
</svg>
