<svg width="68" height="68" viewBox="0 0 68 68" fill="none" xmlns="http://www.w3.org/2000/svg">
<g filter="url(#filter0_d_142_1101)">
<rect x="4" y="2" width="60" height="60" rx="20" fill="#F7F7F7"/>
</g>
<path d="M48.2987 25.0408C46.6586 24.7458 45.0424 24.309 43.4623 23.7318C42.6699 18.3386 38.0563 18.7838 33.181 19.2742C27.614 19.8304 21.3804 32.0631 21.1161 32.5845C21.0054 32.7811 20.9727 33.0199 21.023 33.2446C21.0746 33.4693 21.2066 33.6603 21.3878 33.7741C21.5689 33.8878 21.784 33.9131 21.9827 33.8457C22.1815 33.7783 22.3462 33.6224 22.4393 33.4145C23.7952 30.732 27.4592 24.5482 30.8982 22.0382C29.8756 24.4385 29.8882 27.2293 30.9334 29.6181C31.7862 31.4594 33.1874 32.6209 34.5658 32.6209H34.7143C37.8952 32.4228 38.6877 24.5355 38.8133 22.9567V22.9553C38.8498 22.489 38.5429 22.0789 38.1253 22.0368C37.7077 21.9946 37.3404 22.3387 37.3027 22.805C37.036 26.1561 35.9568 30.844 34.6298 30.9271C33.8211 30.9734 32.8815 30.1392 32.279 28.8415C31.8576 27.9285 30.7105 24.711 33.2123 20.9822L33.3154 20.9639C39.2144 20.3713 41.6522 20.5257 42.0093 24.4765H42.0106C42.0395 24.808 42.2395 25.0888 42.5225 25.1956C42.6583 25.2461 45.842 26.4259 48.1059 26.7307C48.238 26.7307 48.5411 27.2812 48.4568 28.3697C48.2833 30.6238 46.2645 34.7882 39.7855 34.406V34.4075C39.4911 34.3836 39.2132 34.5577 39.0761 34.8499C38.9792 35.0479 36.7353 39.7249 35.9177 43.9902V43.9888C35.8309 44.4466 36.0913 44.8975 36.5001 44.9958C36.5529 45.0014 36.6057 45.0014 36.6586 44.9958C37.0158 44.9944 37.3252 44.7163 37.4019 44.3272C38.0459 41.0478 39.6169 37.378 40.1968 36.1041C47.4227 36.3162 49.7636 31.2827 49.98 28.5102C50.1272 26.6086 49.4517 25.1985 48.2983 25.0412L48.2987 25.0408Z" fill="#111111"/>
<defs>
<filter id="filter0_d_142_1101" x="0" y="0" width="68" height="68" filterUnits="userSpaceOnUse" color-interpolation-filters="sRGB">
<feFlood flood-opacity="0" result="BackgroundImageFix"/>
<feColorMatrix in="SourceAlpha" type="matrix" values="0 0 0 0 0 0 0 0 0 0 0 0 0 0 0 0 0 0 127 0" result="hardAlpha"/>
<feOffset dy="2"/>
<feGaussianBlur stdDeviation="2"/>
<feComposite in2="hardAlpha" operator="out"/>
<feColorMatrix type="matrix" values="0 0 0 0 0 0 0 0 0 0 0 0 0 0 0 0 0 0 0.1 0"/>
<feBlend mode="normal" in2="BackgroundImageFix" result="effect1_dropShadow_142_1101"/>
<feBlend mode="normal" in="SourceGraphic" in2="effect1_dropShadow_142_1101" result="shape"/>
</filter>
</defs>
</svg>
