<svg width="48" height="48" viewBox="0 0 48 48" fill="none" xmlns="http://www.w3.org/2000/svg">
<path d="M22.6257 44.3266C23.0195 44.5438 23.4629 44.655 23.9126 44.6492C24.3622 44.6434 24.8027 44.5209 25.1907 44.2936C30.5592 41.2261 39.8862 34.1641 43.5507 24.9901C48.9267 13.0456 36.3012 3.51009 27.5757 10.3681C26.6652 11.0836 25.5207 11.9011 24.7332 12.6781C24.3762 13.0276 23.7477 13.0636 23.3772 12.7276C22.3422 11.7856 20.7252 10.5766 19.6857 9.87459C12.2457 4.84059 -1.29028 11.4751 4.48322 25.6351C6.59822 31.9906 16.6782 41.0071 22.6257 44.3266Z" fill="url(#paint0_radial_1080_1272)"/>
<path d="M22.6257 44.3266C23.0195 44.5438 23.4629 44.655 23.9126 44.6492C24.3622 44.6434 24.8027 44.5209 25.1907 44.2936C30.5592 41.2261 39.8862 34.1641 43.5507 24.9901C48.9267 13.0456 36.3012 3.51009 27.5757 10.3681C26.6652 11.0836 25.5207 11.9011 24.7332 12.6781C24.3762 13.0276 23.7477 13.0636 23.3772 12.7276C22.3422 11.7856 20.7252 10.5766 19.6857 9.87459C12.2457 4.84059 -1.29028 11.4751 4.48322 25.6351C6.59822 31.9906 16.6782 41.0071 22.6257 44.3266Z" fill="url(#paint1_radial_1080_1272)"/>
<path d="M22.6257 44.3266C23.0195 44.5438 23.4629 44.655 23.9126 44.6492C24.3622 44.6434 24.8027 44.5209 25.1907 44.2936C30.5592 41.2261 39.8862 34.1641 43.5507 24.9901C48.9267 13.0456 36.3012 3.51009 27.5757 10.3681C26.6652 11.0836 25.5207 11.9011 24.7332 12.6781C24.3762 13.0276 23.7477 13.0636 23.3772 12.7276C22.3422 11.7856 20.7252 10.5766 19.6857 9.87459C12.2457 4.84059 -1.29028 11.4751 4.48322 25.6351C6.59822 31.9906 16.6782 41.0071 22.6257 44.3266Z" fill="url(#paint2_radial_1080_1272)"/>
<path d="M22.6257 44.3266C23.0195 44.5438 23.4629 44.655 23.9126 44.6492C24.3622 44.6434 24.8027 44.5209 25.1907 44.2936C30.5592 41.2261 39.8862 34.1641 43.5507 24.9901C48.9267 13.0456 36.3012 3.51009 27.5757 10.3681C26.6652 11.0836 25.5207 11.9011 24.7332 12.6781C24.3762 13.0276 23.7477 13.0636 23.3772 12.7276C22.3422 11.7856 20.7252 10.5766 19.6857 9.87459C12.2457 4.84059 -1.29028 11.4751 4.48322 25.6351C6.59822 31.9906 16.6782 41.0071 22.6257 44.3266Z" fill="url(#paint3_radial_1080_1272)"/>
<path d="M22.6257 44.3266C23.0195 44.5438 23.4629 44.655 23.9126 44.6492C24.3622 44.6434 24.8027 44.5209 25.1907 44.2936C30.5592 41.2261 39.8862 34.1641 43.5507 24.9901C48.9267 13.0456 36.3012 3.51009 27.5757 10.3681C26.6652 11.0836 25.5207 11.9011 24.7332 12.6781C24.3762 13.0276 23.7477 13.0636 23.3772 12.7276C22.3422 11.7856 20.7252 10.5766 19.6857 9.87459C12.2457 4.84059 -1.29028 11.4751 4.48322 25.6351C6.59822 31.9906 16.6782 41.0071 22.6257 44.3266Z" fill="url(#paint4_linear_1080_1272)"/>
<path d="M22.6257 44.3266C23.0195 44.5438 23.4629 44.655 23.9126 44.6492C24.3622 44.6434 24.8027 44.5209 25.1907 44.2936C30.5592 41.2261 39.8862 34.1641 43.5507 24.9901C48.9267 13.0456 36.3012 3.51009 27.5757 10.3681C26.6652 11.0836 25.5207 11.9011 24.7332 12.6781C24.3762 13.0276 23.7477 13.0636 23.3772 12.7276C22.3422 11.7856 20.7252 10.5766 19.6857 9.87459C12.2457 4.84059 -1.29028 11.4751 4.48322 25.6351C6.59822 31.9906 16.6782 41.0071 22.6257 44.3266Z" fill="url(#paint5_linear_1080_1272)"/>
<path d="M24.0188 13.344C25.3568 14.5545 27.4193 14.2035 28.5488 12.795C30.2648 10.6575 32.6978 8.45548 35.9213 8.24998C33.1838 7.72498 30.2033 8.30248 27.5738 10.368C27.3468 10.546 27.1098 10.729 26.8628 10.917C26.1353 11.4735 25.3628 12.066 24.7748 12.636C24.3938 13.005 23.7278 13.0425 23.3348 12.6885L23.1533 12.5265C23.3768 12.7515 23.6813 13.038 24.0188 13.344Z" fill="url(#paint6_linear_1080_1272)"/>
<g filter="url(#filter0_f_1080_1272)">
<path d="M24.8486 18.1787V27.4637C24.8486 31.5347 29.1536 32.8952 30.4646 29.0387C31.5851 25.7387 32.0621 22.1837 31.0991 19.0832C30.4466 16.9832 28.8701 15.8327 27.3911 15.4307C25.8356 15.0077 24.8486 16.5647 24.8486 18.1787Z" fill="#FA1C56"/>
</g>
<g filter="url(#filter1_f_1080_1272)">
<path d="M40.0515 20.4487C42.5214 18.0477 43.1844 14.7236 41.5323 13.0241C39.8802 11.3247 36.5387 11.8934 34.0688 14.2944C31.5989 16.6954 30.936 20.0195 32.588 21.719C34.2401 23.4184 37.5816 22.8497 40.0515 20.4487Z" fill="url(#paint7_radial_1080_1272)"/>
</g>
<g filter="url(#filter2_f_1080_1272)">
<path d="M22.0374 14.0825C19.8717 11.4038 16.622 10.4403 14.7789 11.9305C12.9358 13.4206 13.1973 16.8001 15.3629 19.4787C17.5286 22.1574 20.7783 23.1209 22.6214 21.6307C24.4645 20.1406 24.2031 16.7612 22.0374 14.0825Z" fill="url(#paint8_radial_1080_1272)" fill-opacity="0.5"/>
</g>
<g filter="url(#filter3_f_1080_1272)">
<path d="M13.4292 30.3661L12.5907 25.5076C12.3672 24.8161 11.8647 24.7351 11.5827 25.2031L8.51367 31.6501L13.4292 30.3661Z" fill="#A71135"/>
</g>
<path d="M10.1512 30.1651C10.0683 30.4219 9.93084 30.6578 9.74833 30.8566C9.56582 31.0554 9.34254 31.2125 9.09375 31.3171L5.14125 32.9776C5.00506 33.0348 4.88879 33.131 4.80702 33.254C4.72526 33.377 4.68164 33.5214 4.68164 33.6691C4.68164 33.8168 4.72526 33.9613 4.80702 34.0843C4.88879 34.2073 5.00506 34.3034 5.14125 34.3606L9.11175 36.0301C9.61575 36.2416 10.0027 36.6646 10.1692 37.1851L11.9242 42.6406C11.9728 42.7918 12.0682 42.9236 12.1965 43.0171C12.3248 43.1107 12.4795 43.161 12.6382 43.161C12.797 43.161 12.9517 43.1107 13.08 43.0171C13.2083 42.9236 13.3036 42.7918 13.3522 42.6406L15.0997 37.2016C15.1824 36.9451 15.3194 36.7094 15.5013 36.5106C15.6833 36.3118 15.906 36.1546 16.1542 36.0496L20.1457 34.3606C20.2815 34.3032 20.3973 34.2071 20.4787 34.0842C20.5602 33.9614 20.6036 33.8173 20.6036 33.6699C20.6036 33.5225 20.5602 33.3784 20.4787 33.2555C20.3973 33.1327 20.2815 33.0365 20.1457 32.9791L16.1722 31.2976C15.9246 31.1928 15.7024 31.036 15.5207 30.8377C15.339 30.6395 15.2021 30.4045 15.1192 30.1486L13.3492 24.6841C13.3003 24.5335 13.2049 24.4023 13.0768 24.3092C12.9487 24.2161 12.7944 24.166 12.636 24.166C12.4776 24.166 12.3233 24.2161 12.1952 24.3092C12.0671 24.4023 11.9717 24.5335 11.9227 24.6841L10.1512 30.1651Z" fill="url(#paint9_linear_1080_1272)"/>
<path d="M10.1512 30.1651C10.0683 30.4219 9.93084 30.6578 9.74833 30.8566C9.56582 31.0554 9.34254 31.2125 9.09375 31.3171L5.14125 32.9776C5.00506 33.0348 4.88879 33.131 4.80702 33.254C4.72526 33.377 4.68164 33.5214 4.68164 33.6691C4.68164 33.8168 4.72526 33.9613 4.80702 34.0843C4.88879 34.2073 5.00506 34.3034 5.14125 34.3606L9.11175 36.0301C9.61575 36.2416 10.0027 36.6646 10.1692 37.1851L11.9242 42.6406C11.9728 42.7918 12.0682 42.9236 12.1965 43.0171C12.3248 43.1107 12.4795 43.161 12.6382 43.161C12.797 43.161 12.9517 43.1107 13.08 43.0171C13.2083 42.9236 13.3036 42.7918 13.3522 42.6406L15.0997 37.2016C15.1824 36.9451 15.3194 36.7094 15.5013 36.5106C15.6833 36.3118 15.906 36.1546 16.1542 36.0496L20.1457 34.3606C20.2815 34.3032 20.3973 34.2071 20.4787 34.0842C20.5602 33.9614 20.6036 33.8173 20.6036 33.6699C20.6036 33.5225 20.5602 33.3784 20.4787 33.2555C20.3973 33.1327 20.2815 33.0365 20.1457 32.9791L16.1722 31.2976C15.9246 31.1928 15.7024 31.036 15.5207 30.8377C15.339 30.6395 15.2021 30.4045 15.1192 30.1486L13.3492 24.6841C13.3003 24.5335 13.2049 24.4023 13.0768 24.3092C12.9487 24.2161 12.7944 24.166 12.636 24.166C12.4776 24.166 12.3233 24.2161 12.1952 24.3092C12.0671 24.4023 11.9717 24.5335 11.9227 24.6841L10.1512 30.1651Z" fill="url(#paint10_linear_1080_1272)"/>
<path d="M10.1512 30.1651C10.0683 30.4219 9.93084 30.6578 9.74833 30.8566C9.56582 31.0554 9.34254 31.2125 9.09375 31.3171L5.14125 32.9776C5.00506 33.0348 4.88879 33.131 4.80702 33.254C4.72526 33.377 4.68164 33.5214 4.68164 33.6691C4.68164 33.8168 4.72526 33.9613 4.80702 34.0843C4.88879 34.2073 5.00506 34.3034 5.14125 34.3606L9.11175 36.0301C9.61575 36.2416 10.0027 36.6646 10.1692 37.1851L11.9242 42.6406C11.9728 42.7918 12.0682 42.9236 12.1965 43.0171C12.3248 43.1107 12.4795 43.161 12.6382 43.161C12.797 43.161 12.9517 43.1107 13.08 43.0171C13.2083 42.9236 13.3036 42.7918 13.3522 42.6406L15.0997 37.2016C15.1824 36.9451 15.3194 36.7094 15.5013 36.5106C15.6833 36.3118 15.906 36.1546 16.1542 36.0496L20.1457 34.3606C20.2815 34.3032 20.3973 34.2071 20.4787 34.0842C20.5602 33.9614 20.6036 33.8173 20.6036 33.6699C20.6036 33.5225 20.5602 33.3784 20.4787 33.2555C20.3973 33.1327 20.2815 33.0365 20.1457 32.9791L16.1722 31.2976C15.9246 31.1928 15.7024 31.036 15.5207 30.8377C15.339 30.6395 15.2021 30.4045 15.1192 30.1486L13.3492 24.6841C13.3003 24.5335 13.2049 24.4023 13.0768 24.3092C12.9487 24.2161 12.7944 24.166 12.636 24.166C12.4776 24.166 12.3233 24.2161 12.1952 24.3092C12.0671 24.4023 11.9717 24.5335 11.9227 24.6841L10.1512 30.1651Z" fill="url(#paint11_linear_1080_1272)"/>
<path d="M10.1512 30.1651C10.0683 30.4219 9.93084 30.6578 9.74833 30.8566C9.56582 31.0554 9.34254 31.2125 9.09375 31.3171L5.14125 32.9776C5.00506 33.0348 4.88879 33.131 4.80702 33.254C4.72526 33.377 4.68164 33.5214 4.68164 33.6691C4.68164 33.8168 4.72526 33.9613 4.80702 34.0843C4.88879 34.2073 5.00506 34.3034 5.14125 34.3606L9.11175 36.0301C9.61575 36.2416 10.0027 36.6646 10.1692 37.1851L11.9242 42.6406C11.9728 42.7918 12.0682 42.9236 12.1965 43.0171C12.3248 43.1107 12.4795 43.161 12.6382 43.161C12.797 43.161 12.9517 43.1107 13.08 43.0171C13.2083 42.9236 13.3036 42.7918 13.3522 42.6406L15.0997 37.2016C15.1824 36.9451 15.3194 36.7094 15.5013 36.5106C15.6833 36.3118 15.906 36.1546 16.1542 36.0496L20.1457 34.3606C20.2815 34.3032 20.3973 34.2071 20.4787 34.0842C20.5602 33.9614 20.6036 33.8173 20.6036 33.6699C20.6036 33.5225 20.5602 33.3784 20.4787 33.2555C20.3973 33.1327 20.2815 33.0365 20.1457 32.9791L16.1722 31.2976C15.9246 31.1928 15.7024 31.036 15.5207 30.8377C15.339 30.6395 15.2021 30.4045 15.1192 30.1486L13.3492 24.6841C13.3003 24.5335 13.2049 24.4023 13.0768 24.3092C12.9487 24.2161 12.7944 24.166 12.636 24.166C12.4776 24.166 12.3233 24.2161 12.1952 24.3092C12.0671 24.4023 11.9717 24.5335 11.9227 24.6841L10.1512 30.1651Z" fill="url(#paint12_radial_1080_1272)"/>
<path d="M10.2997 36.3751H9.65175C9.492 36.2311 9.30954 36.1146 9.11175 36.0301L5.14125 34.3606C5.00506 34.3034 4.88879 34.2073 4.80702 34.0843C4.72526 33.9613 4.68164 33.8168 4.68164 33.6691C4.68164 33.5214 4.72526 33.377 4.80702 33.254C4.88879 33.131 5.00506 33.0348 5.14125 32.9776L9.09375 31.3171C9.34254 31.2125 9.56582 31.0554 9.74833 30.8566C9.93084 30.6578 10.0683 30.4219 10.1512 30.1651L11.9242 24.6841C11.9732 24.5335 12.0686 24.4023 12.1967 24.3092C12.3248 24.2161 12.4791 24.166 12.6375 24.166C12.7959 24.166 12.9502 24.2161 13.0783 24.3092C13.2064 24.4023 13.3018 24.5335 13.3507 24.6841L15.1192 30.1486C15.2872 30.6661 15.6712 31.0861 16.1722 31.2976L20.1457 32.9776C20.2819 33.0348 20.3982 33.131 20.48 33.254C20.5617 33.377 20.6054 33.5214 20.6054 33.6691C20.6054 33.8168 20.5617 33.9613 20.48 34.0843C20.3982 34.2073 20.2819 34.3034 20.1457 34.3606L9.30975 35.0056C9.11775 35.0866 10.0072 35.6941 10.2997 36.3751Z" fill="url(#paint13_linear_1080_1272)"/>
<path d="M10.2997 36.3751H9.65175C9.492 36.2311 9.30954 36.1146 9.11175 36.0301L5.14125 34.3606C5.00506 34.3034 4.88879 34.2073 4.80702 34.0843C4.72526 33.9613 4.68164 33.8168 4.68164 33.6691C4.68164 33.5214 4.72526 33.377 4.80702 33.254C4.88879 33.131 5.00506 33.0348 5.14125 32.9776L9.09375 31.3171C9.34254 31.2125 9.56582 31.0554 9.74833 30.8566C9.93084 30.6578 10.0683 30.4219 10.1512 30.1651L11.9242 24.6841C11.9732 24.5335 12.0686 24.4023 12.1967 24.3092C12.3248 24.2161 12.4791 24.166 12.6375 24.166C12.7959 24.166 12.9502 24.2161 13.0783 24.3092C13.2064 24.4023 13.3018 24.5335 13.3507 24.6841L15.1192 30.1486C15.2872 30.6661 15.6712 31.0861 16.1722 31.2976L20.1457 32.9776C20.2819 33.0348 20.3982 33.131 20.48 33.254C20.5617 33.377 20.6054 33.5214 20.6054 33.6691C20.6054 33.8168 20.5617 33.9613 20.48 34.0843C20.3982 34.2073 20.2819 34.3034 20.1457 34.3606L9.30975 35.0056C9.11775 35.0866 10.0072 35.6941 10.2997 36.3751Z" fill="url(#paint14_linear_1080_1272)"/>
<path d="M9.65234 36.3765C9.88934 36.594 10.0693 36.8715 10.1698 37.185L11.9248 42.6405C11.9734 42.7916 12.0688 42.9235 12.1971 43.017C12.3254 43.1105 12.4801 43.1609 12.6388 43.1609C12.7976 43.1609 12.9523 43.1105 13.0806 43.017C13.2089 42.9235 13.3042 42.7916 13.3528 42.6405L15.1003 37.2015C15.2027 36.8835 15.3881 36.5987 15.6373 36.3765H9.65234Z" fill="url(#paint15_linear_1080_1272)"/>
<g filter="url(#filter4_f_1080_1272)">
<path d="M13.1543 25.1731L14.6033 30.0331C14.7353 30.4751 14.9675 30.8807 15.2817 31.2184C15.596 31.5561 15.9839 31.8167 16.4153 31.9801L19.6703 33.2131" stroke="url(#paint16_radial_1080_1272)" stroke-width="0.15" stroke-linecap="round"/>
</g>
<g filter="url(#filter5_f_1080_1272)">
<path d="M12.8018 43.4086L14.4428 38.0176" stroke="url(#paint17_linear_1080_1272)" stroke-width="0.15" stroke-linecap="round"/>
</g>
<g filter="url(#filter6_f_1080_1272)">
<path d="M10.2236 31.7131L12.1931 25.1731" stroke="url(#paint18_linear_1080_1272)" stroke-width="0.15" stroke-linecap="round"/>
</g>
<g filter="url(#filter7_f_1080_1272)">
<path d="M32.6937 15.234C32.4985 15.6642 32.1482 16.0049 31.7127 16.188L29.7897 16.998C29.7156 17.0296 29.6525 17.0823 29.6081 17.1495C29.5637 17.2167 29.54 17.2955 29.54 17.376C29.54 17.4565 29.5637 17.5353 29.6081 17.6025C29.6525 17.6697 29.7156 17.7224 29.7897 17.754L31.7427 18.576C32.1672 18.7545 32.5107 19.0815 32.7087 19.4955L33.9567 22.1085C34.0797 22.4895 34.6167 22.4895 34.7397 22.1085L35.1972 19.8345C35.2573 19.5352 35.3895 19.2551 35.5824 19.0185C35.7753 18.782 36.0231 18.5961 36.3042 18.477L38.0142 17.754C38.0887 17.7226 38.1523 17.6699 38.197 17.6026C38.2417 17.5352 38.2656 17.4561 38.2656 17.3753C38.2656 17.2944 38.2417 17.2153 38.197 17.148C38.1523 17.0806 38.0887 17.0279 38.0142 16.9965L36.1917 16.227C35.944 16.1222 35.7218 15.9653 35.5401 15.7671C35.3585 15.5688 35.2215 15.3338 35.1387 15.078L34.2897 12.45C34.1667 12.072 34.0797 12.072 33.9582 12.45L32.6937 15.234Z" fill="#C01942"/>
</g>
<path d="M33.466 14.8877C33.383 15.1445 33.2456 15.3804 33.0631 15.5792C32.8806 15.778 32.6573 15.9351 32.4085 16.0397L30.601 16.8002C30.5265 16.8316 30.4629 16.8843 30.4182 16.9516C30.3735 17.019 30.3496 17.0981 30.3496 17.1789C30.3496 17.2598 30.3735 17.3389 30.4182 17.4062C30.4629 17.4736 30.5265 17.5263 30.601 17.5577L32.4175 18.3227C32.9215 18.5327 33.3085 18.9557 33.4765 19.4762L34.318 22.0952C34.4395 22.4747 34.978 22.4747 35.101 22.0952L35.941 19.4852C36.0231 19.2282 36.1597 18.9921 36.3414 18.7927C36.5232 18.5934 36.7458 18.4356 36.994 18.3302L38.824 17.5562C38.8981 17.5246 38.9612 17.4719 39.0056 17.4047C39.05 17.3375 39.0737 17.2587 39.0737 17.1782C39.0737 17.0976 39.05 17.0189 39.0056 16.9517C38.9612 16.8845 38.8981 16.8318 38.824 16.8002L37.003 16.0292C36.7554 15.9244 36.5332 15.7675 36.3515 15.5693C36.1698 15.371 36.0329 15.136 35.95 14.8802L35.101 12.2537C35.0745 12.1707 35.0223 12.0982 34.9519 12.0469C34.8815 11.9955 34.7967 11.9678 34.7095 11.9678C34.6224 11.9678 34.5375 11.9955 34.4671 12.0469C34.3968 12.0982 34.3445 12.1707 34.318 12.2537L33.466 14.8877Z" fill="url(#paint19_linear_1080_1272)"/>
<path d="M33.466 14.8877C33.383 15.1445 33.2456 15.3804 33.0631 15.5792C32.8806 15.778 32.6573 15.9351 32.4085 16.0397L30.601 16.8002C30.5265 16.8316 30.4629 16.8843 30.4182 16.9516C30.3735 17.019 30.3496 17.0981 30.3496 17.1789C30.3496 17.2598 30.3735 17.3389 30.4182 17.4062C30.4629 17.4736 30.5265 17.5263 30.601 17.5577L32.4175 18.3227C32.9215 18.5327 33.3085 18.9557 33.4765 19.4762L34.318 22.0952C34.4395 22.4747 34.978 22.4747 35.101 22.0952L35.941 19.4852C36.0231 19.2282 36.1597 18.9921 36.3414 18.7927C36.5232 18.5934 36.7458 18.4356 36.994 18.3302L38.824 17.5562C38.8981 17.5246 38.9612 17.4719 39.0056 17.4047C39.05 17.3375 39.0737 17.2587 39.0737 17.1782C39.0737 17.0976 39.05 17.0189 39.0056 16.9517C38.9612 16.8845 38.8981 16.8318 38.824 16.8002L37.003 16.0292C36.7554 15.9244 36.5332 15.7675 36.3515 15.5693C36.1698 15.371 36.0329 15.136 35.95 14.8802L35.101 12.2537C35.0745 12.1707 35.0223 12.0982 34.9519 12.0469C34.8815 11.9955 34.7967 11.9678 34.7095 11.9678C34.6224 11.9678 34.5375 11.9955 34.4671 12.0469C34.3968 12.0982 34.3445 12.1707 34.318 12.2537L33.466 14.8877Z" fill="url(#paint20_linear_1080_1272)"/>
<path d="M33.466 14.8877C33.383 15.1445 33.2456 15.3804 33.0631 15.5792C32.8806 15.778 32.6573 15.9351 32.4085 16.0397L30.601 16.8002C30.5265 16.8316 30.4629 16.8843 30.4182 16.9516C30.3735 17.019 30.3496 17.0981 30.3496 17.1789C30.3496 17.2598 30.3735 17.3389 30.4182 17.4062C30.4629 17.4736 30.5265 17.5263 30.601 17.5577L32.4175 18.3227C32.9215 18.5327 33.3085 18.9557 33.4765 19.4762L34.318 22.0952C34.4395 22.4747 34.978 22.4747 35.101 22.0952L35.941 19.4852C36.0231 19.2282 36.1597 18.9921 36.3414 18.7927C36.5232 18.5934 36.7458 18.4356 36.994 18.3302L38.824 17.5562C38.8981 17.5246 38.9612 17.4719 39.0056 17.4047C39.05 17.3375 39.0737 17.2587 39.0737 17.1782C39.0737 17.0976 39.05 17.0189 39.0056 16.9517C38.9612 16.8845 38.8981 16.8318 38.824 16.8002L37.003 16.0292C36.7554 15.9244 36.5332 15.7675 36.3515 15.5693C36.1698 15.371 36.0329 15.136 35.95 14.8802L35.101 12.2537C35.0745 12.1707 35.0223 12.0982 34.9519 12.0469C34.8815 11.9955 34.7967 11.9678 34.7095 11.9678C34.6224 11.9678 34.5375 11.9955 34.4671 12.0469C34.3968 12.0982 34.3445 12.1707 34.318 12.2537L33.466 14.8877Z" fill="url(#paint21_linear_1080_1272)"/>
<path d="M33.466 14.8877C33.383 15.1445 33.2456 15.3804 33.0631 15.5792C32.8806 15.778 32.6573 15.9351 32.4085 16.0397L30.601 16.8002C30.5265 16.8316 30.4629 16.8843 30.4182 16.9516C30.3735 17.019 30.3496 17.0981 30.3496 17.1789C30.3496 17.2598 30.3735 17.3389 30.4182 17.4062C30.4629 17.4736 30.5265 17.5263 30.601 17.5577L32.4175 18.3227C32.9215 18.5327 33.3085 18.9557 33.4765 19.4762L34.318 22.0952C34.4395 22.4747 34.978 22.4747 35.101 22.0952L35.941 19.4852C36.0231 19.2282 36.1597 18.9921 36.3414 18.7927C36.5232 18.5934 36.7458 18.4356 36.994 18.3302L38.824 17.5562C38.8981 17.5246 38.9612 17.4719 39.0056 17.4047C39.05 17.3375 39.0737 17.2587 39.0737 17.1782C39.0737 17.0976 39.05 17.0189 39.0056 16.9517C38.9612 16.8845 38.8981 16.8318 38.824 16.8002L37.003 16.0292C36.7554 15.9244 36.5332 15.7675 36.3515 15.5693C36.1698 15.371 36.0329 15.136 35.95 14.8802L35.101 12.2537C35.0745 12.1707 35.0223 12.0982 34.9519 12.0469C34.8815 11.9955 34.7967 11.9678 34.7095 11.9678C34.6224 11.9678 34.5375 11.9955 34.4671 12.0469C34.3968 12.0982 34.3445 12.1707 34.318 12.2537L33.466 14.8877Z" fill="url(#paint22_radial_1080_1272)"/>
<path d="M33.4285 18.6617H33.073C32.9858 18.5826 32.8859 18.5187 32.7775 18.4727L30.601 17.5577C30.5265 17.5263 30.4629 17.4736 30.4182 17.4062C30.3735 17.3389 30.3496 17.2598 30.3496 17.1789C30.3496 17.0981 30.3735 17.019 30.4182 16.9516C30.4629 16.8843 30.5265 16.8316 30.601 16.8002L32.767 15.8882C32.9023 15.8297 33.0238 15.7434 33.1236 15.6348C33.2234 15.5263 33.2991 15.398 33.346 15.2582L34.318 12.2537C34.3445 12.1707 34.3968 12.0982 34.4671 12.0469C34.5375 11.9955 34.6224 11.9678 34.7095 11.9678C34.7967 11.9678 34.8815 11.9955 34.9519 12.0469C35.0223 12.0982 35.0745 12.1707 35.101 12.2537L36.07 15.2477C36.16 15.5327 36.3715 15.7622 36.646 15.8777L38.824 16.8002C38.8985 16.8316 38.9621 16.8843 39.0069 16.9516C39.0516 17.019 39.0754 17.0981 39.0754 17.1789C39.0754 17.2598 39.0516 17.3389 39.0069 17.4062C38.9621 17.4736 38.8985 17.5263 38.824 17.5577L32.884 17.9102C32.7805 17.9552 33.268 18.2897 33.4285 18.6617Z" fill="url(#paint23_linear_1080_1272)"/>
<path d="M33.4285 18.6617H33.073C32.9858 18.5826 32.8859 18.5187 32.7775 18.4727L30.601 17.5577C30.5265 17.5263 30.4629 17.4736 30.4182 17.4062C30.3735 17.3389 30.3496 17.2598 30.3496 17.1789C30.3496 17.0981 30.3735 17.019 30.4182 16.9516C30.4629 16.8843 30.5265 16.8316 30.601 16.8002L32.767 15.8882C32.9023 15.8297 33.0238 15.7434 33.1236 15.6348C33.2234 15.5263 33.2991 15.398 33.346 15.2582L34.318 12.2537C34.3445 12.1707 34.3968 12.0982 34.4671 12.0469C34.5375 11.9955 34.6224 11.9678 34.7095 11.9678C34.7967 11.9678 34.8815 11.9955 34.9519 12.0469C35.0223 12.0982 35.0745 12.1707 35.101 12.2537L36.07 15.2477C36.16 15.5327 36.3715 15.7622 36.646 15.8777L38.824 16.8002C38.8985 16.8316 38.9621 16.8843 39.0069 16.9516C39.0516 17.019 39.0754 17.0981 39.0754 17.1789C39.0754 17.2598 39.0516 17.3389 39.0069 17.4062C38.9621 17.4736 38.8985 17.5263 38.824 17.5577L32.884 17.9102C32.7805 17.9552 33.268 18.2897 33.4285 18.6617Z" fill="url(#paint24_linear_1080_1272)"/>
<path d="M33.0732 18.6616C33.2052 18.7836 33.3002 18.9316 33.3582 19.1056L34.3182 22.0951C34.4412 22.4746 34.9782 22.4746 35.1012 22.0951L36.0597 19.1146C36.1166 18.9406 36.2179 18.7844 36.3537 18.6616H33.0732Z" fill="url(#paint25_linear_1080_1272)"/>
<g filter="url(#filter8_f_1080_1272)">
<path d="M34.9922 12.522L35.5952 14.5425C35.7274 14.9846 35.9597 15.3903 36.2743 15.728C36.5888 16.0657 36.977 16.3263 37.4087 16.4895L38.5637 16.9275" stroke="url(#paint26_radial_1080_1272)" stroke-width="0.15" stroke-linecap="round"/>
</g>
<g filter="url(#filter9_f_1080_1272)">
<path d="M34.7998 22.5151L35.6998 19.5601" stroke="url(#paint27_linear_1080_1272)" stroke-width="0.15" stroke-linecap="round"/>
</g>
<g filter="url(#filter10_f_1080_1272)">
<path d="M33.3867 16.1055L34.4667 12.5205" stroke="url(#paint28_linear_1080_1272)" stroke-width="0.15" stroke-linecap="round"/>
</g>
<defs>
<filter id="filter0_f_1080_1272" x="21.8486" y="12.3604" width="12.7686" height="21.9636" filterUnits="userSpaceOnUse" color-interpolation-filters="sRGB">
<feFlood flood-opacity="0" result="BackgroundImageFix"/>
<feBlend mode="normal" in="SourceGraphic" in2="BackgroundImageFix" result="shape"/>
<feGaussianBlur stdDeviation="1.5" result="effect1_foregroundBlur_1080_1272"/>
</filter>
<filter id="filter1_f_1080_1272" x="29.4297" y="9.79492" width="15.2617" height="15.1533" filterUnits="userSpaceOnUse" color-interpolation-filters="sRGB">
<feFlood flood-opacity="0" result="BackgroundImageFix"/>
<feBlend mode="normal" in="SourceGraphic" in2="BackgroundImageFix" result="shape"/>
<feGaussianBlur stdDeviation="1.125" result="effect1_foregroundBlur_1080_1272"/>
</filter>
<filter id="filter2_f_1080_1272" x="11.3008" y="8.97949" width="14.7988" height="15.6023" filterUnits="userSpaceOnUse" color-interpolation-filters="sRGB">
<feFlood flood-opacity="0" result="BackgroundImageFix"/>
<feBlend mode="normal" in="SourceGraphic" in2="BackgroundImageFix" result="shape"/>
<feGaussianBlur stdDeviation="1.125" result="effect1_foregroundBlur_1080_1272"/>
</filter>
<filter id="filter3_f_1080_1272" x="7.01367" y="23.4084" width="7.91504" height="9.7417" filterUnits="userSpaceOnUse" color-interpolation-filters="sRGB">
<feFlood flood-opacity="0" result="BackgroundImageFix"/>
<feBlend mode="normal" in="SourceGraphic" in2="BackgroundImageFix" result="shape"/>
<feGaussianBlur stdDeviation="0.75" result="effect1_foregroundBlur_1080_1272"/>
</filter>
<filter id="filter4_f_1080_1272" x="12.7041" y="24.7231" width="7.41602" height="8.93994" filterUnits="userSpaceOnUse" color-interpolation-filters="sRGB">
<feFlood flood-opacity="0" result="BackgroundImageFix"/>
<feBlend mode="normal" in="SourceGraphic" in2="BackgroundImageFix" result="shape"/>
<feGaussianBlur stdDeviation="0.1875" result="effect1_foregroundBlur_1080_1272"/>
</filter>
<filter id="filter5_f_1080_1272" x="12.5016" y="37.7176" width="2.24102" height="5.99102" filterUnits="userSpaceOnUse" color-interpolation-filters="sRGB">
<feFlood flood-opacity="0" result="BackgroundImageFix"/>
<feBlend mode="normal" in="SourceGraphic" in2="BackgroundImageFix" result="shape"/>
<feGaussianBlur stdDeviation="0.1125" result="effect1_foregroundBlur_1080_1272"/>
</filter>
<filter id="filter6_f_1080_1272" x="9.69844" y="24.6481" width="3.02012" height="7.58994" filterUnits="userSpaceOnUse" color-interpolation-filters="sRGB">
<feFlood flood-opacity="0" result="BackgroundImageFix"/>
<feBlend mode="normal" in="SourceGraphic" in2="BackgroundImageFix" result="shape"/>
<feGaussianBlur stdDeviation="0.225" result="effect1_foregroundBlur_1080_1272"/>
</filter>
<filter id="filter7_f_1080_1272" x="28.415" y="11.0415" width="10.9756" height="12.4778" filterUnits="userSpaceOnUse" color-interpolation-filters="sRGB">
<feFlood flood-opacity="0" result="BackgroundImageFix"/>
<feBlend mode="normal" in="SourceGraphic" in2="BackgroundImageFix" result="shape"/>
<feGaussianBlur stdDeviation="0.5625" result="effect1_foregroundBlur_1080_1272"/>
</filter>
<filter id="filter8_f_1080_1272" x="34.542" y="12.072" width="4.47168" height="5.30542" filterUnits="userSpaceOnUse" color-interpolation-filters="sRGB">
<feFlood flood-opacity="0" result="BackgroundImageFix"/>
<feBlend mode="normal" in="SourceGraphic" in2="BackgroundImageFix" result="shape"/>
<feGaussianBlur stdDeviation="0.1875" result="effect1_foregroundBlur_1080_1272"/>
</filter>
<filter id="filter9_f_1080_1272" x="34.4996" y="19.2601" width="1.4998" height="3.55498" filterUnits="userSpaceOnUse" color-interpolation-filters="sRGB">
<feFlood flood-opacity="0" result="BackgroundImageFix"/>
<feBlend mode="normal" in="SourceGraphic" in2="BackgroundImageFix" result="shape"/>
<feGaussianBlur stdDeviation="0.1125" result="effect1_foregroundBlur_1080_1272"/>
</filter>
<filter id="filter10_f_1080_1272" x="32.8615" y="11.9956" width="2.13047" height="4.63486" filterUnits="userSpaceOnUse" color-interpolation-filters="sRGB">
<feFlood flood-opacity="0" result="BackgroundImageFix"/>
<feBlend mode="normal" in="SourceGraphic" in2="BackgroundImageFix" result="shape"/>
<feGaussianBlur stdDeviation="0.225" result="effect1_foregroundBlur_1080_1272"/>
</filter>
<radialGradient id="paint0_radial_1080_1272" cx="0" cy="0" r="1" gradientUnits="userSpaceOnUse" gradientTransform="translate(28.1997 43.9951) rotate(-90) scale(48.8127 82.9815)">
<stop stop-color="#F12E52"/>
<stop offset="0.596" stop-color="#FF3B79"/>
<stop offset="1" stop-color="#FF4EC6"/>
</radialGradient>
<radialGradient id="paint1_radial_1080_1272" cx="0" cy="0" r="1" gradientUnits="userSpaceOnUse" gradientTransform="translate(34.3254 17.6012) rotate(142.986) scale(39.2941 73.6017)">
<stop offset="0.483" stop-color="#B91D43" stop-opacity="0"/>
<stop offset="0.834" stop-color="#B91D43"/>
</radialGradient>
<radialGradient id="paint2_radial_1080_1272" cx="0" cy="0" r="1" gradientUnits="userSpaceOnUse" gradientTransform="translate(29.7882 27.2281) rotate(-158.663) scale(34.0844 48.183)">
<stop offset="0.41" stop-color="#B91D43" stop-opacity="0"/>
<stop offset="0.834" stop-color="#B91D43"/>
</radialGradient>
<radialGradient id="paint3_radial_1080_1272" cx="0" cy="0" r="1" gradientUnits="userSpaceOnUse" gradientTransform="translate(23.1402 21.2746) rotate(90) scale(29.6646)">
<stop offset="0.671" stop-color="#FF7AF2" stop-opacity="0"/>
<stop offset="0.934" stop-color="#FFBCE6"/>
</radialGradient>
<linearGradient id="paint4_linear_1080_1272" x1="26.4147" y1="24.7486" x2="38.4192" y2="39.0346" gradientUnits="userSpaceOnUse">
<stop offset="0.694" stop-color="#FF7AF2" stop-opacity="0"/>
<stop offset="0.934" stop-color="#FFBCE6"/>
</linearGradient>
<linearGradient id="paint5_linear_1080_1272" x1="24.9267" y1="25.3426" x2="10.8387" y2="41.2171" gradientUnits="userSpaceOnUse">
<stop offset="0.694" stop-color="#FF7AF2" stop-opacity="0"/>
<stop offset="0.934" stop-color="#FFBCE6"/>
</linearGradient>
<linearGradient id="paint6_linear_1080_1272" x1="29.5313" y1="14.5785" x2="25.3208" y2="9.95398" gradientUnits="userSpaceOnUse">
<stop offset="0.41" stop-color="#C12372" stop-opacity="0"/>
<stop offset="0.834" stop-color="#B5286E"/>
</linearGradient>
<radialGradient id="paint7_radial_1080_1272" cx="0" cy="0" r="1" gradientUnits="userSpaceOnUse" gradientTransform="translate(42.4809 13.9435) rotate(139.035) scale(9.22264 6.22755)">
<stop stop-color="#FF93BA"/>
<stop offset="1" stop-color="#FF73A6" stop-opacity="0"/>
</radialGradient>
<radialGradient id="paint8_radial_1080_1272" cx="0" cy="0" r="1" gradientUnits="userSpaceOnUse" gradientTransform="translate(17.2877 13.186) rotate(52.745) scale(13.275 8.96387)">
<stop stop-color="#FF93BA"/>
<stop offset="1" stop-color="#FF73A6" stop-opacity="0"/>
</radialGradient>
<linearGradient id="paint9_linear_1080_1272" x1="14.0902" y1="24.1651" x2="10.0132" y2="38.8606" gradientUnits="userSpaceOnUse">
<stop stop-color="#FFD542"/>
<stop offset="1" stop-color="#FFA847"/>
</linearGradient>
<linearGradient id="paint10_linear_1080_1272" x1="11.2777" y1="38.0176" x2="10.1242" y2="44.3746" gradientUnits="userSpaceOnUse">
<stop offset="0.458" stop-color="#E88518" stop-opacity="0"/>
<stop offset="1" stop-color="#E88518"/>
</linearGradient>
<linearGradient id="paint11_linear_1080_1272" x1="8.74725" y1="36.5641" x2="2.39475" y2="36.3946" gradientUnits="userSpaceOnUse">
<stop offset="0.362" stop-color="#E88518" stop-opacity="0"/>
<stop offset="1" stop-color="#E88518"/>
</linearGradient>
<radialGradient id="paint12_radial_1080_1272" cx="0" cy="0" r="1" gradientUnits="userSpaceOnUse" gradientTransform="translate(15.2163 18.9384) rotate(103.828) scale(10.7651 29.7432)">
<stop stop-color="#FFFF6B"/>
<stop offset="1" stop-color="#FFFF6B" stop-opacity="0"/>
</radialGradient>
<linearGradient id="paint13_linear_1080_1272" x1="11.1607" y1="33.4471" x2="9.63975" y2="36.6961" gradientUnits="userSpaceOnUse">
<stop offset="0.782" stop-color="#E88518" stop-opacity="0"/>
<stop offset="1" stop-color="#E88518"/>
</linearGradient>
<linearGradient id="paint14_linear_1080_1272" x1="11.1607" y1="33.4471" x2="9.63975" y2="36.6961" gradientUnits="userSpaceOnUse">
<stop offset="0.782" stop-color="#E88518" stop-opacity="0"/>
<stop offset="1" stop-color="#E88518"/>
</linearGradient>
<linearGradient id="paint15_linear_1080_1272" x1="14.4223" y1="40.3365" x2="11.2468" y2="41.4015" gradientUnits="userSpaceOnUse">
<stop offset="0.776" stop-color="#E88518" stop-opacity="0"/>
<stop offset="1" stop-color="#E88518"/>
</linearGradient>
<radialGradient id="paint16_radial_1080_1272" cx="0" cy="0" r="1" gradientUnits="userSpaceOnUse" gradientTransform="translate(12.1928 25.1731) rotate(43.142) scale(11.7563 10.0525)">
<stop stop-color="#FFF270" stop-opacity="0"/>
<stop offset="0.548" stop-color="#FFF270"/>
<stop offset="1" stop-color="#FFF270" stop-opacity="0"/>
</radialGradient>
<linearGradient id="paint17_linear_1080_1272" x1="13.5983" y1="41.2276" x2="12.3068" y2="39.1171" gradientUnits="userSpaceOnUse">
<stop stop-color="#FFF270" stop-opacity="0"/>
<stop offset="0.495" stop-color="#FFF270" stop-opacity="0.6"/>
<stop offset="1" stop-color="#FFF270" stop-opacity="0"/>
</linearGradient>
<linearGradient id="paint18_linear_1080_1272" x1="12.0056" y1="24.6811" x2="14.5241" y2="28.3441" gradientUnits="userSpaceOnUse">
<stop stop-color="#FF8A09" stop-opacity="0.6"/>
<stop offset="1" stop-color="#FF8A09" stop-opacity="0"/>
</linearGradient>
<linearGradient id="paint19_linear_1080_1272" x1="35.506" y1="11.9687" x2="33.271" y2="20.0237" gradientUnits="userSpaceOnUse">
<stop stop-color="#FFD542"/>
<stop offset="1" stop-color="#FFA847"/>
</linearGradient>
<linearGradient id="paint20_linear_1080_1272" x1="33.964" y1="19.5617" x2="33.331" y2="23.0462" gradientUnits="userSpaceOnUse">
<stop offset="0.458" stop-color="#E88518" stop-opacity="0"/>
<stop offset="1" stop-color="#E88518"/>
</linearGradient>
<linearGradient id="paint21_linear_1080_1272" x1="32.5765" y1="18.7652" x2="29.0965" y2="18.6722" gradientUnits="userSpaceOnUse">
<stop offset="0.362" stop-color="#E88518" stop-opacity="0"/>
<stop offset="1" stop-color="#E88518"/>
</linearGradient>
<radialGradient id="paint22_radial_1080_1272" cx="0" cy="0" r="1" gradientUnits="userSpaceOnUse" gradientTransform="translate(36.1208 9.10472) rotate(103.828) scale(5.90015 16.3017)">
<stop stop-color="#FFFF6B"/>
<stop offset="1" stop-color="#FFFF6B" stop-opacity="0"/>
</radialGradient>
<linearGradient id="paint23_linear_1080_1272" x1="33.8995" y1="17.0567" x2="33.067" y2="18.8372" gradientUnits="userSpaceOnUse">
<stop offset="0.782" stop-color="#E88518" stop-opacity="0"/>
<stop offset="1" stop-color="#E88518"/>
</linearGradient>
<linearGradient id="paint24_linear_1080_1272" x1="33.8995" y1="17.0567" x2="33.067" y2="18.8372" gradientUnits="userSpaceOnUse">
<stop offset="0.782" stop-color="#E88518" stop-opacity="0"/>
<stop offset="1" stop-color="#E88518"/>
</linearGradient>
<linearGradient id="paint25_linear_1080_1272" x1="35.6877" y1="20.8321" x2="33.9477" y2="21.4156" gradientUnits="userSpaceOnUse">
<stop offset="0.776" stop-color="#E88518" stop-opacity="0"/>
<stop offset="1" stop-color="#E88518"/>
</linearGradient>
<radialGradient id="paint26_radial_1080_1272" cx="0" cy="0" r="1" gradientUnits="userSpaceOnUse" gradientTransform="translate(34.4659 12.5227) rotate(43.142) scale(6.44339 5.50956)">
<stop stop-color="#FFF270" stop-opacity="0"/>
<stop offset="0.548" stop-color="#FFF270"/>
<stop offset="1" stop-color="#FFF270" stop-opacity="0"/>
</radialGradient>
<linearGradient id="paint27_linear_1080_1272" x1="35.2363" y1="21.3211" x2="34.5283" y2="20.1646" gradientUnits="userSpaceOnUse">
<stop stop-color="#FFF270" stop-opacity="0"/>
<stop offset="0.495" stop-color="#FFF270" stop-opacity="0.6"/>
<stop offset="1" stop-color="#FFF270" stop-opacity="0"/>
</linearGradient>
<linearGradient id="paint28_linear_1080_1272" x1="34.3632" y1="12.252" x2="35.7432" y2="14.259" gradientUnits="userSpaceOnUse">
<stop stop-color="#FF8A09" stop-opacity="0.6"/>
<stop offset="1" stop-color="#FF8A09" stop-opacity="0"/>
</linearGradient>
</defs>
</svg>
