<svg width="40" height="40" viewBox="0 0 40 40" fill="none" xmlns="http://www.w3.org/2000/svg">
<rect width="40" height="40" fill="white"/>
<path d="M8.33325 30.0001H15.3999C15.6193 30.0013 15.8367 29.9593 16.0398 29.8763C16.2428 29.7934 16.4275 29.6712 16.5833 29.5167L28.1166 17.9667L32.8499 13.3334C33.0061 13.1785 33.1301 12.9941 33.2147 12.791C33.2994 12.5879 33.3429 12.3701 33.3429 12.1501C33.3429 11.93 33.2994 11.7122 33.2147 11.5091C33.1301 11.306 33.0061 11.1217 32.8499 10.9667L25.7833 3.81673C25.6283 3.66051 25.444 3.53652 25.2409 3.45191C25.0378 3.36729 24.8199 3.32373 24.5999 3.32373C24.3799 3.32373 24.1621 3.36729 23.959 3.45191C23.7559 3.53652 23.5715 3.66051 23.4166 3.81673L18.7166 8.53339L7.14992 20.0834C6.99545 20.2391 6.87324 20.4238 6.7903 20.6269C6.70736 20.8299 6.66532 21.0474 6.66659 21.2667V28.3334C6.66659 28.7754 6.84218 29.1993 7.15474 29.5119C7.4673 29.8245 7.89122 30.0001 8.33325 30.0001ZM24.5999 7.35006L29.3166 12.0667L26.9499 14.4334L22.2333 9.71673L24.5999 7.35006ZM9.99992 21.9501L19.8833 12.0667L24.5999 16.7834L14.7166 26.6667H9.99992V21.9501ZM34.9999 33.3334H4.99992C4.55789 33.3334 4.13397 33.509 3.82141 33.8215C3.50885 34.1341 3.33325 34.558 3.33325 35.0001C3.33325 35.4421 3.50885 35.866 3.82141 36.1786C4.13397 36.4911 4.55789 36.6667 4.99992 36.6667H34.9999C35.4419 36.6667 35.8659 36.4911 36.1784 36.1786C36.491 35.866 36.6666 35.4421 36.6666 35.0001C36.6666 34.558 36.491 34.1341 36.1784 33.8215C35.8659 33.509 35.4419 33.3334 34.9999 33.3334Z" fill="black"/>
</svg>
